<svg xmlns="http://www.w3.org/2000/svg" width="48" height="48">
<defs>
  <path
     d="M 40.599845,35.927664 C 34.089619,23.924082 24.673923,5.8896697 23.806502,1.9999968 c 0,0 -1.891344,4.7671806 -5.263802,12.1115142 1.227953,1.902862 4.251003,3.952447 5.357299,5.267916 -3.819881,-1.205337 -6.145754,-3.60337 -6.145754,-3.60337 C 13.829716,24.230733 8.2863964,35.375656 2,45.666826 c 2.9999999,-1.532601 11.266666,-6.59684 17.2,-7.263188 -0.200001,-2.798654 -0.133334,-10.72819 4.466666,-10.861459 4.6,-0.13327 5.733333,6.596839 5.066667,10.928094 C 32.999999,39.403161 42.599999,43.601146 46,46 l -3.633334,-6.863379 c 0,0 -5.033333,-3.431689 -7.466667,-5.197508 3.133333,0.06664 4.922191,1.559706 5.699846,1.988551 z"
     id="path-main" />
</defs>
<acyl-settings>
<linearGradient
     id="linearGradient4321">
    <stop
       style="stop-color:#161616;stop-opacity:1.0;"
       offset="0.0"
       id="stop1" />
  </linearGradient>
<radialGradient
       inkscape:collect="always"
       xlink:href="#linearGradient4321"
       id="acyl_gradient"
       cx="50.0%"
       cy="50.0%"
       fx="50.0%"
       fy="50.0%"
       r="50.0%"
/>
<filter id="filter1111" x="-50%" y="-50%" width="200%" height="200%">
	<feImage
	id="feImage2"
	xlink:href="#1"
	result="result1" />
	<feComposite
	id="feComposite3633"
	in="result1"
	in2="SourceGraphic"
	operator="xor" />
</filter>
	<rect
	style="fill:#0088CC;fill-opacity:1.0;filter:url(#filter1111)"
	id="rect2835"
	width="48"
	height="48"
	x="0"
	y="0"
	rx="3.5"
	ry="3.5" />
	<rect
	style="fill:url(#acyl_gradient);filter:url(#filter1111)"
	id="rect2835"
	width="44"
	height="44"
	x="2"
	y="2"
	rx="3.5"
	ry="3.5" />
<defs>
<use id="1" transform="translate(22.5,22.5) scale(0.85) translate(-22.5,-22.5)" style="fill:#000000" xlink:href="#path-main" />
</defs>
	<use id="2" transform="translate(22.5,22.5) scale(0.85) translate(-22.5,-22.5)" style="fill:#0088CC;fill-opacity:1.0" xlink:href="#path-main" />
</acyl-settings>
</svg>
