<svg xmlns="http://www.w3.org/2000/svg" width="48" height="48">
<defs>
<defs
   id="defs31">
</defs>
	<path
   d="m 16.523077,9.7057692 c -6.106711,-1e-7 -7.2615385,12.2153848 -7.2615385,12.2153848 l -7.2615385,0 0,4.615384 7.1384615,0 c -2e-7,1e-6 1.1548275,12.215385 7.2615385,12.215385 6.106711,0 6.092308,0 6.092308,0 l 0,-29.0461538 c -0.0024,-1e-7 0.01411,0 -5.969231,0 z m 9.2,0 0,29.1692308 c 0,10e-7 -0.228479,0 6.8,0 6.913256,10e-7 7.261538,-12.215385 7.261538,-12.215385 l 6.215385,0 0,-4.615384 -6.215385,0 0,-0.123077 c -2e-6,0 -0.463502,-12.2153848 -7.261538,-12.2153848 -6.798037,-1e-7 -6.8,0 -6.8,0 z"
   id="path-main"
    />
	
</defs>
<acyl-settings>
<linearGradient
     id="linearGradient4321">
    <stop
       style="stop-color:#161616;stop-opacity:1.0;"
       offset="0.0"
       id="stop1" />
  </linearGradient>
<radialGradient
       inkscape:collect="always"
       xlink:href="#linearGradient4321"
       id="acyl_gradient"
       cx="50.0%"
       cy="50.0%"
       fx="50.0%"
       fy="50.0%"
       r="50.0%"
/>
<filter id="filter1111" x="-50%" y="-50%" width="200%" height="200%">
	<feImage
	id="feImage2"
	xlink:href="#1"
	result="result1" />
	<feComposite
	id="feComposite3633"
	in="result1"
	in2="SourceGraphic"
	operator="xor" />
</filter>
	<rect
	style="fill:#0088CC;fill-opacity:1.0;filter:url(#filter1111)"
	id="rect2835"
	width="48"
	height="48"
	x="0"
	y="0"
	rx="3.5"
	ry="3.5" />
	<rect
	style="fill:url(#acyl_gradient);filter:url(#filter1111)"
	id="rect2835"
	width="44"
	height="44"
	x="2"
	y="2"
	rx="3.5"
	ry="3.5" />
<defs>
<use id="1" transform="translate(22.5,22.5) scale(0.85) translate(-22.5,-22.5)" style="fill:#000000" xlink:href="#path-main" />
</defs>
	<use id="2" transform="translate(22.5,22.5) scale(0.85) translate(-22.5,-22.5)" style="fill:#0088CC;fill-opacity:1.0" xlink:href="#path-main" />
</acyl-settings>
</svg>
