<svg xmlns="http://www.w3.org/2000/svg" width="48" height="48">
<defs>
<defs
     id="defs3">
  </defs>
  <path
     d="M 9.0872178,2 C 6.1427674,2 3.6932784,4.3894041 3.6932784,7.2424242 l 0,33.5151518 C 3.6932784,43.610596 6.1427675,46 9.0872178,46 l 29.9999992,0 c 2.94445,0 5.39394,-2.389403 5.39394,-5.242424 l 0,-33.5151518 C 44.481157,4.3894041 42.031668,2 39.087217,2 L 9.0872178,2 z m 0,3.8484848 2.1818182,0 0,27.0606062 L 18.844793,24 l 7.363637,8.909091 0,-27.0606062 12.878787,0 c 0.830338,0 1.424243,0.5908108 1.424243,1.3939394 l 0,33.5151518 c 0,0.803132 -0.593909,1.393939 -1.424243,1.393939 l -29.9999992,0 c -0.8303341,0 -1.4242424,-0.59081 -1.4242424,-1.393939 l 0,-33.5151518 c 0,-0.8031286 0.5939083,-1.3939394 1.4242424,-1.3939394 z"
     id="path-main" />
</defs>
<acyl-settings>
<linearGradient
     id="linearGradient4321">
    <stop
       style="stop-color:#161616;stop-opacity:1.0;"
       offset="0.0"
       id="stop1" />
  </linearGradient>
<radialGradient
       inkscape:collect="always"
       xlink:href="#linearGradient4321"
       id="acyl_gradient"
       cx="50.0%"
       cy="50.0%"
       fx="50.0%"
       fy="50.0%"
       r="50.0%"
/>
<filter id="filter1111" x="-50%" y="-50%" width="200%" height="200%">
	<feImage
	id="feImage2"
	xlink:href="#1"
	result="result1" />
	<feComposite
	id="feComposite3633"
	in="result1"
	in2="SourceGraphic"
	operator="xor" />
</filter>
	<rect
	style="fill:#0088CC;fill-opacity:1.0;filter:url(#filter1111)"
	id="rect2835"
	width="48"
	height="48"
	x="0"
	y="0"
	rx="3.5"
	ry="3.5" />
	<rect
	style="fill:url(#acyl_gradient);filter:url(#filter1111)"
	id="rect2835"
	width="44"
	height="44"
	x="2"
	y="2"
	rx="3.5"
	ry="3.5" />
<defs>
<use id="1" transform="translate(22.5,22.5) scale(0.85) translate(-22.5,-22.5)" style="fill:#000000" xlink:href="#path-main" />
</defs>
	<use id="2" transform="translate(22.5,22.5) scale(0.85) translate(-22.5,-22.5)" style="fill:#0088CC;fill-opacity:1.0" xlink:href="#path-main" />
</acyl-settings>
</svg>
