<svg xmlns="http://www.w3.org/2000/svg" width="48" height="48">
<defs>
<defs
   id="defs31">
</defs>	
<path
   d="m 16.829843,2 0,18.280053 L 2,20.280053 2,46 l 29.170157,0 0,-18.280053 14.829843,0 L 46,2 16.829843,2 z m 4.089005,3.9233818 21.020943,0 0,17.8731832 -21.020943,0 0,-17.8731832 z M 24,9.614267 l 0,3.051519 14.743455,0 0,-3.051519 -14.743455,0 z m 0,7.091149 0,3.051519 14.743455,0 0,-3.051519 -14.743455,0 z m -17.9397906,7.498019 10.7696336,0 0,3.516512 10.251309,0 0,14.356671 -21.0209426,0 0,-17.873183 z m 3.1963351,4.03963 0,3.051519 14.7434555,0 0,-3.051519 -14.7434555,0 z m 0,7.091149 0,3.051519 14.7434555,0 0,-3.051519 -14.7434555,0 z"
   id="path-main"
    /></defs>
<acyl-settings>
<linearGradient
     id="linearGradient4321">
    <stop
       style="stop-color:#161616;stop-opacity:1.0;"
       offset="0.0"
       id="stop1" />
  </linearGradient>
<radialGradient
       inkscape:collect="always"
       xlink:href="#linearGradient4321"
       id="acyl_gradient"
       cx="50.0%"
       cy="50.0%"
       fx="50.0%"
       fy="50.0%"
       r="50.0%"
/>
<filter id="filter1111" x="-50%" y="-50%" width="200%" height="200%">
	<feImage
	id="feImage2"
	xlink:href="#1"
	result="result1" />
	<feComposite
	id="feComposite3633"
	in="result1"
	in2="SourceGraphic"
	operator="xor" />
</filter>
	<rect
	style="fill:#0088CC;fill-opacity:1.0;filter:url(#filter1111)"
	id="rect2835"
	width="48"
	height="48"
	x="0"
	y="0"
	rx="3.5"
	ry="3.5" />
	<rect
	style="fill:url(#acyl_gradient);filter:url(#filter1111)"
	id="rect2835"
	width="44"
	height="44"
	x="2"
	y="2"
	rx="3.5"
	ry="3.5" />
<defs>
<use id="1" transform="translate(22.5,22.5) scale(0.85) translate(-22.5,-22.5)" style="fill:#000000" xlink:href="#path-main" />
</defs>
	<use id="2" transform="translate(22.5,22.5) scale(0.85) translate(-22.5,-22.5)" style="fill:#0088CC;fill-opacity:1.0" xlink:href="#path-main" />
</acyl-settings>
</svg>
