<svg xmlns="http://www.w3.org/2000/svg" width="48" height="48">
<defs>
<defs
     id="defs4">
  </defs>
  <path
     id="path-main"
     d="m 35.83953,3.2133072 -0.229615,0.2583171 -7.979126,9.2420087 -23.8225698,0 17.1637308,17.163732 9.643836,-9.672538 0,3.32942 0,0.287018 0,0.0287 -1.5212,1.492499 10.849315,10.849315 0,-12.341814 0.861057,0 0.287019,0 0,-0.31572 0,-8.49576 4.276581,0 0.631442,0 L 45.598174,14.550554 36.040444,3.4716243 35.83953,3.2133072 z m 0,0.9184606 8.868885,10.3039792 -3.903457,0 -0.287019,0 0,0.287019 0,8.524462 -9.328115,0 0,-8.524462 0,-0.287019 -0.287019,0 -3.989563,0 L 35.83953,4.1317678 z M 2,14.521853 2,36.191781 12.849315,25.342466 2,14.521853 z M 14.657534,27.150685 3.8082192,38 38.135682,38 27.286367,27.150685 20.97195,33.465101 14.657534,27.150685 z" />
</defs>
<acyl-settings>
<linearGradient
     id="linearGradient4321">
    <stop
       style="stop-color:#161616;stop-opacity:1.0;"
       offset="0.0"
       id="stop1" />
  </linearGradient>
<radialGradient
       inkscape:collect="always"
       xlink:href="#linearGradient4321"
       id="acyl_gradient"
       cx="50.0%"
       cy="50.0%"
       fx="50.0%"
       fy="50.0%"
       r="50.0%"
/>
<filter id="filter1111" x="-50%" y="-50%" width="200%" height="200%">
	<feImage
	id="feImage2"
	xlink:href="#1"
	result="result1" />
	<feComposite
	id="feComposite3633"
	in="result1"
	in2="SourceGraphic"
	operator="xor" />
</filter>
	<rect
	style="fill:#0088CC;fill-opacity:1.0;filter:url(#filter1111)"
	id="rect2835"
	width="48"
	height="48"
	x="0"
	y="0"
	rx="3.5"
	ry="3.5" />
	<rect
	style="fill:url(#acyl_gradient);filter:url(#filter1111)"
	id="rect2835"
	width="44"
	height="44"
	x="2"
	y="2"
	rx="3.5"
	ry="3.5" />
<defs>
<use id="1" transform="translate(22.5,22.5) scale(0.85) translate(-22.5,-22.5)" style="fill:#000000" xlink:href="#path-main" />
</defs>
	<use id="2" transform="translate(22.5,22.5) scale(0.85) translate(-22.5,-22.5)" style="fill:#0088CC;fill-opacity:1.0" xlink:href="#path-main" />
</acyl-settings>
</svg>
