<svg xmlns="http://www.w3.org/2000/svg" width="48" height="48">
<defs>
<defs
     id="defs3">
  </defs>
  <path
     id="path-main"
     d="M 19.61212,2 C 9.9010678,2 2,9.8820943 2,19.569827 c 0,9.687733 7.9010678,17.540448 17.61212,17.540447 4.323414,0 8.276974,-1.5608 11.338907,-4.142719 l 1.295875,4.142719 7.686895,8.226675 c 0.530492,0.56702 3.004173,1.380807 4.947887,-0.558239 1.649295,-1.645336 1.145998,-4.389998 0.559582,-4.936005 l -8.246477,-7.668436 -4.152691,-1.292764 c 2.588134,-3.05458 4.152691,-6.998646 4.152691,-11.311678 C 37.194789,9.8820943 29.323172,2 19.61212,2 z m 0,4.4071474 c 7.283289,10e-8 13.194364,5.8968806 13.194364,13.1626796 0,7.2658 -5.911075,13.16268 -13.194364,13.16268 C 12.328831,32.732506 6.4177559,26.835627 6.4177559,19.569827 6.417756,12.304028 12.328831,6.4071474 19.61212,6.4071474 z m -2.149974,2.7324309 -4.447208,0.9401917 0,3.349432 4.476659,-0.910811 0,12.398775 -4.358852,0 0,3.408194 13.429978,0 0,-3.408194 -4.358853,0 0,-15.7775877 -4.741724,0 z" />
</defs>
<acyl-settings>
<linearGradient
     id="linearGradient4321">
    <stop
       style="stop-color:#161616;stop-opacity:1.0;"
       offset="0.0"
       id="stop1" />
  </linearGradient>
<radialGradient
       inkscape:collect="always"
       xlink:href="#linearGradient4321"
       id="acyl_gradient"
       cx="50.0%"
       cy="50.0%"
       fx="50.0%"
       fy="50.0%"
       r="50.0%"
/>
<filter id="filter1111" x="-50%" y="-50%" width="200%" height="200%">
	<feImage
	id="feImage2"
	xlink:href="#1"
	result="result1" />
	<feComposite
	id="feComposite3633"
	in="result1"
	in2="SourceGraphic"
	operator="xor" />
</filter>
	<rect
	style="fill:#0088CC;fill-opacity:1.0;filter:url(#filter1111)"
	id="rect2835"
	width="48"
	height="48"
	x="0"
	y="0"
	rx="3.5"
	ry="3.5" />
	<rect
	style="fill:url(#acyl_gradient);filter:url(#filter1111)"
	id="rect2835"
	width="44"
	height="44"
	x="2"
	y="2"
	rx="3.5"
	ry="3.5" />
<defs>
<use id="1" transform="translate(22.5,22.5) scale(0.85) translate(-22.5,-22.5)" style="fill:#000000" xlink:href="#path-main" />
</defs>
	<use id="2" transform="translate(22.5,22.5) scale(0.85) translate(-22.5,-22.5)" style="fill:#0088CC;fill-opacity:1.0" xlink:href="#path-main" />
</acyl-settings>
</svg>
