<svg xmlns="http://www.w3.org/2000/svg" width="48" height="48">
<defs>
<defs
     id="defs3">
  </defs>
  <path
     id="path-main"
     d="M 19.606098,2.0000001 C 9.8930799,2.0000001 2,9.8738802 2,19.563269 c 0,9.689391 7.8930808,17.533899 17.606098,17.5339 4.324289,0 8.274583,-1.560912 11.33503,-4.141172 l 1.295432,4.141172 7.713708,8.223604 c 0.5306,0.56712 3.002088,1.410718 4.946195,-0.52866 1.64963,-1.645616 1.116485,-4.388063 0.52995,-4.934162 l -8.243658,-7.694945 -4.151271,-1.29228 c 2.586553,-3.053004 4.151271,-6.993686 4.151271,-11.307457 0,-9.6893898 -7.863638,-17.5632689 -17.576657,-17.5632689 z m 0,4.3761324 c 7.284764,0 13.189853,5.9200945 13.189853,13.1871365 -1e-6,7.267044 -5.90509,13.157768 -13.189853,13.157768 -7.284763,-1e-6 -13.2192943,-5.890725 -13.2192943,-13.157768 0,-7.267042 5.9345313,-13.1871365 13.2192943,-13.1871365 z m -9.126907,4.0824325 0,1.40976 0,15.360519 0,1.40976 1.413199,0 15.397975,0 1.413199,0 0,-1.40976 0,-15.360519 0,-1.40976 -1.413199,0 -15.397975,0 -1.413199,0 z m 2.826397,2.819521 12.571579,0 0,12.540997 -12.571579,0 0,-12.540997 z" />
</defs>
<acyl-settings>
<linearGradient
     id="linearGradient4321">
    <stop
       style="stop-color:#161616;stop-opacity:1.0;"
       offset="0.0"
       id="stop1" />
  </linearGradient>
<radialGradient
       inkscape:collect="always"
       xlink:href="#linearGradient4321"
       id="acyl_gradient"
       cx="50.0%"
       cy="50.0%"
       fx="50.0%"
       fy="50.0%"
       r="50.0%"
/>
<filter id="filter1111" x="-50%" y="-50%" width="200%" height="200%">
	<feImage
	id="feImage2"
	xlink:href="#1"
	result="result1" />
	<feComposite
	id="feComposite3633"
	in="result1"
	in2="SourceGraphic"
	operator="xor" />
</filter>
	<rect
	style="fill:#0088CC;fill-opacity:1.0;filter:url(#filter1111)"
	id="rect2835"
	width="48"
	height="48"
	x="0"
	y="0"
	rx="3.5"
	ry="3.5" />
	<rect
	style="fill:url(#acyl_gradient);filter:url(#filter1111)"
	id="rect2835"
	width="44"
	height="44"
	x="2"
	y="2"
	rx="3.5"
	ry="3.5" />
<defs>
<use id="1" transform="translate(22.5,22.5) scale(0.85) translate(-22.5,-22.5)" style="fill:#000000" xlink:href="#path-main" />
</defs>
	<use id="2" transform="translate(22.5,22.5) scale(0.85) translate(-22.5,-22.5)" style="fill:#0088CC;fill-opacity:1.0" xlink:href="#path-main" />
</acyl-settings>
</svg>
