<svg xmlns="http://www.w3.org/2000/svg" width="48" height="48">
<defs>
<defs
     id="defs3">
  </defs>
  <path
     id="path-main"
     d="M 19.612083,2.0000002 C 9.8999556,2.0000002 2,9.8809835 2,19.569784 c 0,9.688802 7.8999562,17.540403 17.612083,17.540403 4.323892,0 8.277047,-1.56094 11.338883,-4.142709 l 1.295872,4.142709 7.686879,8.226654 c 0.530553,0.567084 3.003947,1.381023 4.947876,-0.558237 1.649476,-1.645517 1.146062,-4.389925 0.559581,-4.935993 l -8.24646,-7.668417 -4.152682,-1.29276 c 2.587984,-3.054482 4.152682,-6.998143 4.152682,-11.31165 0,-9.6888015 -7.870504,-17.5697838 -17.582631,-17.5697838 z m 0,4.4071365 c 7.284095,2e-7 13.194336,5.8960453 13.194336,13.1626473 1e-6,7.266601 -5.910241,13.162647 -13.194336,13.162647 -7.284095,1e-6 -13.1943365,-5.896046 -13.1943365,-13.162647 2e-7,-7.266601 5.9102405,-13.1626473 13.1943365,-13.1626473 z m -9.8957524,10.3420793 0,5.641135 19.7915044,0 0,-5.641135 -19.7915044,0 z" />
</defs>
<acyl-settings>
<linearGradient
     id="linearGradient4321">
    <stop
       style="stop-color:#161616;stop-opacity:1.0;"
       offset="0.0"
       id="stop1" />
  </linearGradient>
<radialGradient
       inkscape:collect="always"
       xlink:href="#linearGradient4321"
       id="acyl_gradient"
       cx="50.0%"
       cy="50.0%"
       fx="50.0%"
       fy="50.0%"
       r="50.0%"
/>
<filter id="filter1111" x="-50%" y="-50%" width="200%" height="200%">
	<feImage
	id="feImage2"
	xlink:href="#1"
	result="result1" />
	<feComposite
	id="feComposite3633"
	in="result1"
	in2="SourceGraphic"
	operator="xor" />
</filter>
	<rect
	style="fill:#0088CC;fill-opacity:1.0;filter:url(#filter1111)"
	id="rect2835"
	width="48"
	height="48"
	x="0"
	y="0"
	rx="3.5"
	ry="3.5" />
	<rect
	style="fill:url(#acyl_gradient);filter:url(#filter1111)"
	id="rect2835"
	width="44"
	height="44"
	x="2"
	y="2"
	rx="3.5"
	ry="3.5" />
<defs>
<use id="1" transform="translate(22.5,22.5) scale(0.85) translate(-22.5,-22.5)" style="fill:#000000" xlink:href="#path-main" />
</defs>
	<use id="2" transform="translate(22.5,22.5) scale(0.85) translate(-22.5,-22.5)" style="fill:#0088CC;fill-opacity:1.0" xlink:href="#path-main" />
</acyl-settings>
</svg>
