<svg xmlns="http://www.w3.org/2000/svg" width="48" height="48">
<defs>
<defs
   id="defs23">
</defs>
	<path
   
   d="M 16.75 6.875 L 9.875 22.875 L 2 22.875 L 2 29.09375 L 7.21875 29.09375 L 2 41.21875 L 13.21875 41.21875 L 16.625 32.375 L 30.46875 32.375 L 34.1875 41.21875 L 45.875 41.21875 L 40.59375 29.09375 L 45.875 29.09375 L 45.875 22.875 L 37.875 22.875 L 30.90625 6.875 L 16.75 6.875 z M 23.3125 12.5625 L 23.53125 12.5625 C 24.013036 14.007857 26.067783 19.269177 27.46875 22.875 L 19.5625 22.875 C 20.897392 19.268439 22.830895 14.007316 23.3125 12.5625 z "
   id="path-main" />
	
</defs>
<acyl-settings>
<linearGradient
     id="linearGradient4321">
    <stop
       style="stop-color:#161616;stop-opacity:1.0;"
       offset="0.0"
       id="stop1" />
  </linearGradient>
<radialGradient
       inkscape:collect="always"
       xlink:href="#linearGradient4321"
       id="acyl_gradient"
       cx="50.0%"
       cy="50.0%"
       fx="50.0%"
       fy="50.0%"
       r="50.0%"
/>
<filter id="filter1111" x="-50%" y="-50%" width="200%" height="200%">
	<feImage
	id="feImage2"
	xlink:href="#1"
	result="result1" />
	<feComposite
	id="feComposite3633"
	in="result1"
	in2="SourceGraphic"
	operator="xor" />
</filter>
	<rect
	style="fill:#0088CC;fill-opacity:1.0;filter:url(#filter1111)"
	id="rect2835"
	width="48"
	height="48"
	x="0"
	y="0"
	rx="3.5"
	ry="3.5" />
	<rect
	style="fill:url(#acyl_gradient);filter:url(#filter1111)"
	id="rect2835"
	width="44"
	height="44"
	x="2"
	y="2"
	rx="3.5"
	ry="3.5" />
<defs>
<use id="1" transform="translate(22.5,22.5) scale(0.85) translate(-22.5,-22.5)" style="fill:#000000" xlink:href="#path-main" />
</defs>
	<use id="2" transform="translate(22.5,22.5) scale(0.85) translate(-22.5,-22.5)" style="fill:#0088CC;fill-opacity:1.0" xlink:href="#path-main" />
</acyl-settings>
</svg>
