<svg xmlns="http://www.w3.org/2000/svg" width="48" height="48">
<defs>
<defs
     id="defs1309">
  </defs>
  <path
     id="path-main"
     d="M 7.0989583,2 C 4.2759543,2 2,4.2759543 2,7.0989583 L 2,40.901042 C 2,43.724046 4.2759543,46 7.0989583,46 L 40.901042,46 C 43.724046,46 46,43.724045 46,40.901042 L 46,7.0989583 C 46,4.2759543 43.724045,2 40.901042,2 L 7.0989583,2 z m 1.03125,3.6666667 31.7395837,0 c 1.357771,0 2.463541,1.1057697 2.463541,2.4635413 l 0,31.739584 c -1e-6,1.357771 -1.105769,2.463541 -2.463541,2.463541 l -31.7395837,0 c -1.3577718,-1e-6 -2.4635416,-1.105769 -2.4635416,-2.463541 l 0,-31.739584 c 0,-1.3577715 1.1057697,-2.4635413 2.4635416,-2.4635413 z M 12.398438,8.1875 8.1875,12.398438 l 5.270833,5.270833 -5.270833,5.270833 14.752604,0 0,-14.752604 -5.270833,5.270833 L 12.398438,8.1875 z m 12.661458,16.872396 0,14.752604 5.270833,-5.270833 5.270833,5.270833 4.210938,-4.210938 -5.270833,-5.270833 5.270833,-5.270833 -14.752604,0 z" />
</defs>
<acyl-settings>
<linearGradient
     id="linearGradient4321">
    <stop
       style="stop-color:#161616;stop-opacity:1.0;"
       offset="0.0"
       id="stop1" />
  </linearGradient>
<radialGradient
       inkscape:collect="always"
       xlink:href="#linearGradient4321"
       id="acyl_gradient"
       cx="50.0%"
       cy="50.0%"
       fx="50.0%"
       fy="50.0%"
       r="50.0%"
/>
<filter id="filter1111" x="-50%" y="-50%" width="200%" height="200%">
	<feImage
	id="feImage2"
	xlink:href="#1"
	result="result1" />
	<feComposite
	id="feComposite3633"
	in="result1"
	in2="SourceGraphic"
	operator="xor" />
</filter>
	<rect
	style="fill:#0088CC;fill-opacity:1.0;filter:url(#filter1111)"
	id="rect2835"
	width="48"
	height="48"
	x="0"
	y="0"
	rx="3.5"
	ry="3.5" />
	<rect
	style="fill:url(#acyl_gradient);filter:url(#filter1111)"
	id="rect2835"
	width="44"
	height="44"
	x="2"
	y="2"
	rx="3.5"
	ry="3.5" />
<defs>
<use id="1" transform="translate(22.5,22.5) scale(0.85) translate(-22.5,-22.5)" style="fill:#000000" xlink:href="#path-main" />
</defs>
	<use id="2" transform="translate(22.5,22.5) scale(0.85) translate(-22.5,-22.5)" style="fill:#0088CC;fill-opacity:1.0" xlink:href="#path-main" />
</acyl-settings>
</svg>
