<svg xmlns="http://www.w3.org/2000/svg" width="48" height="48">
<defs>
<defs
     id="defs5">
  </defs>
  <path
     d="m 27.395329,2 0,4.9044586 -16.955413,0 C 9.2017234,6.9045824 8.1980012,7.908305 8.1978774,9.146497 l 0,19.225478 c 1.238e-4,1.238192 1.003846,2.241914 2.2420386,2.242038 l 15.694267,0 2.634395,0 0,-4.484077 -2.634395,0 -13.452229,0 0,-14.741401 14.713375,0 0,4.932484 3.811465,-3.83949 1.765605,-1.73758 L 34.541826,9.146497 32.972399,7.57707 31.206794,5.811465 27.395329,2 z m -9.10828,15.385987 0,4.484077 17.824204,0 0,14.741401 -14.713376,0 0,-4.932484 -3.811465,3.83949 -1.765605,1.73758 -1.569427,1.597452 1.569427,1.569427 1.765605,1.765605 L 21.397877,46 l 0,-4.904459 16.955414,0 c 1.238193,-1.23e-4 2.241914,-1.003845 2.242038,-2.242038 l 0,-19.225478 c -1.24e-4,-1.238192 -1.003845,-2.241914 -2.242038,-2.242038 l -20.066242,0 z"
     id="path-main"
      />
</defs>
<acyl-settings>
<linearGradient
     id="linearGradient4321">
    <stop
       style="stop-color:#161616;stop-opacity:1.0;"
       offset="0.0"
       id="stop1" />
  </linearGradient>
<radialGradient
       inkscape:collect="always"
       xlink:href="#linearGradient4321"
       id="acyl_gradient"
       cx="50.0%"
       cy="50.0%"
       fx="50.0%"
       fy="50.0%"
       r="50.0%"
/>
<filter id="filter1111" x="-50%" y="-50%" width="200%" height="200%">
	<feImage
	id="feImage2"
	xlink:href="#1"
	result="result1" />
	<feComposite
	id="feComposite3633"
	in="result1"
	in2="SourceGraphic"
	operator="xor" />
</filter>
	<rect
	style="fill:#0088CC;fill-opacity:1.0;filter:url(#filter1111)"
	id="rect2835"
	width="48"
	height="48"
	x="0"
	y="0"
	rx="3.5"
	ry="3.5" />
	<rect
	style="fill:url(#acyl_gradient);filter:url(#filter1111)"
	id="rect2835"
	width="44"
	height="44"
	x="2"
	y="2"
	rx="3.5"
	ry="3.5" />
<defs>
<use id="1" transform="translate(22.5,22.5) scale(0.85) translate(-22.5,-22.5)" style="fill:#000000" xlink:href="#path-main" />
</defs>
	<use id="2" transform="translate(22.5,22.5) scale(0.85) translate(-22.5,-22.5)" style="fill:#0088CC;fill-opacity:1.0" xlink:href="#path-main" />
</acyl-settings>
</svg>
