<svg xmlns="http://www.w3.org/2000/svg" width="48" height="48">
<defs>
    <path
       d="M 23.625,8.25 C 23.484558,8.2708112 23.359584,8.3503406 23.28125,8.46875 L 10.46875,26.21875 C 10.365282,26.370855 10.352629,26.555537 10.4375,26.71875 C 10.522371,26.881964 10.691058,26.997348 10.875,27 L 36.5,27 C 36.683942,26.997348 36.852629,26.881964 36.9375,26.71875 C 37.022373,26.555537 37.009718,26.370855 36.90625,26.21875 L 24.09375,8.46875 C 23.990281,8.3144029 23.809757,8.2301586 23.625,8.25 z M 10.125,30 L 10.125,30.5 L 10.125,35.46875 L 10.125,35.96875 L 10.625,35.96875 L 36.5,35.96875 L 37,35.96875 L 37,35.46875 L 37,30.5 L 37,30 L 36.5,30 L 10.625,30 L 10.125,30 z"
       id="path-main"
        />
</defs>
<acyl-settings>
<linearGradient
     id="linearGradient4321">
    <stop
       style="stop-color:#161616;stop-opacity:1.0;"
       offset="0.0"
       id="stop1" />
  </linearGradient>
<radialGradient
       inkscape:collect="always"
       xlink:href="#linearGradient4321"
       id="acyl_gradient"
       cx="50.0%"
       cy="50.0%"
       fx="50.0%"
       fy="50.0%"
       r="50.0%"
/>
<filter id="filter1111" x="-50%" y="-50%" width="200%" height="200%">
	<feImage
	id="feImage2"
	xlink:href="#1"
	result="result1" />
	<feComposite
	id="feComposite3633"
	in="result1"
	in2="SourceGraphic"
	operator="xor" />
</filter>
	<rect
	style="fill:#0088CC;fill-opacity:1.0;filter:url(#filter1111)"
	id="rect2835"
	width="48"
	height="48"
	x="0"
	y="0"
	rx="3.5"
	ry="3.5" />
	<rect
	style="fill:url(#acyl_gradient);filter:url(#filter1111)"
	id="rect2835"
	width="44"
	height="44"
	x="2"
	y="2"
	rx="3.5"
	ry="3.5" />
<defs>
<use id="1" transform="translate(22.5,22.5) scale(0.85) translate(-22.5,-22.5)" style="fill:#000000" xlink:href="#path-main" />
</defs>
	<use id="2" transform="translate(22.5,22.5) scale(0.85) translate(-22.5,-22.5)" style="fill:#0088CC;fill-opacity:1.0" xlink:href="#path-main" />
</acyl-settings>
</svg>
