<svg xmlns="http://www.w3.org/2000/svg" width="48" height="48">
<defs>
<defs
     id="defs3" />
  <g
     id="layer1">
    <path
       d="M 6,5.25 C 4.4920188,5.25 3.25,6.5232687 3.25,8.03125 L 3.25,39.96875 C 3.25,41.476731 4.4920203,42.718747 6,42.71875 L 42.0625,42.71875 C 43.570481,42.71875 44.843751,41.476731 44.84375,39.96875 L 44.84375,8.03125 C 44.84375,6.5232687 43.570481,5.25 42.0625,5.25 L 6,5.25 z M 5.75,14 C 5.7610739,14.000051 5.770118,14 5.78125,14 L 42.3125,14 C 42.323632,14 42.332676,14.000051 42.34375,14 L 42.34375,39.96875 C 42.34375,40.134972 42.228724,40.21875 42.0625,40.21875 L 6,40.21875 C 5.8337741,40.21875 5.75,40.134974 5.75,39.96875 L 5.75,14 z"
       id="path-main"
        />
  </g>
</defs>
<acyl-settings>
<linearGradient
     id="linearGradient4321">
    <stop
       style="stop-color:#161616;stop-opacity:1.0;"
       offset="0.0"
       id="stop1" />
  </linearGradient>
<radialGradient
       inkscape:collect="always"
       xlink:href="#linearGradient4321"
       id="acyl_gradient"
       cx="50.0%"
       cy="50.0%"
       fx="50.0%"
       fy="50.0%"
       r="50.0%"
/>
<filter id="filter1111" x="-50%" y="-50%" width="200%" height="200%">
	<feImage
	id="feImage2"
	xlink:href="#1"
	result="result1" />
	<feComposite
	id="feComposite3633"
	in="result1"
	in2="SourceGraphic"
	operator="xor" />
</filter>
	<rect
	style="fill:#0088CC;fill-opacity:1.0;filter:url(#filter1111)"
	id="rect2835"
	width="48"
	height="48"
	x="0"
	y="0"
	rx="3.5"
	ry="3.5" />
	<rect
	style="fill:url(#acyl_gradient);filter:url(#filter1111)"
	id="rect2835"
	width="44"
	height="44"
	x="2"
	y="2"
	rx="3.5"
	ry="3.5" />
<defs>
<use id="1" transform="translate(22.5,22.5) scale(0.85) translate(-22.5,-22.5)" style="fill:#000000" xlink:href="#path-main" />
</defs>
	<use id="2" transform="translate(22.5,22.5) scale(0.85) translate(-22.5,-22.5)" style="fill:#0088CC;fill-opacity:1.0" xlink:href="#path-main" />
</acyl-settings>
</svg>
