<svg xmlns="http://www.w3.org/2000/svg" width="48" height="48">
<defs>
  <path
     d="M 24,2 C 11.851402,2 2,11.851402 2,24 2,36.1486 11.851402,46 24,46 36.148598,46 46,36.1486 46,24 46,11.851402 36.148598,2 24,2 z m 0.156129,5.563871 c 2.825494,7.064477 11.173727,9.951565 11.780645,18.153548 -4.535731,-7.654102 -5.479618,-4.899859 -8.629677,-6.954838 l 0,17.500649 c 0,2.28952 -3.389665,4.1729 -7.607742,4.1729 -4.218087,0 -7.636129,-1.88338 -7.636129,-4.1729 0,-2.28953 3.418042,-4.14452 7.636129,-4.14452 1.668353,0 3.200467,0.302145 4.456774,0.794838 l 0,-16.478709 0,-8.870968 z"
     id="path-main"
      />
</defs>
<acyl-settings>
<linearGradient
     id="linearGradient4321">
    <stop
       style="stop-color:#161616;stop-opacity:1.0;"
       offset="0.0"
       id="stop1" />
  </linearGradient>
<radialGradient
       inkscape:collect="always"
       xlink:href="#linearGradient4321"
       id="acyl_gradient"
       cx="50.0%"
       cy="50.0%"
       fx="50.0%"
       fy="50.0%"
       r="50.0%"
/>
<filter id="filter1111" x="-50%" y="-50%" width="200%" height="200%">
	<feImage
	id="feImage2"
	xlink:href="#1"
	result="result1" />
	<feComposite
	id="feComposite3633"
	in="result1"
	in2="SourceGraphic"
	operator="xor" />
</filter>
	<rect
	style="fill:#0088CC;fill-opacity:1.0;filter:url(#filter1111)"
	id="rect2835"
	width="48"
	height="48"
	x="0"
	y="0"
	rx="3.5"
	ry="3.5" />
	<rect
	style="fill:url(#acyl_gradient);filter:url(#filter1111)"
	id="rect2835"
	width="44"
	height="44"
	x="2"
	y="2"
	rx="3.5"
	ry="3.5" />
<defs>
<use id="1" transform="translate(22.5,22.5) scale(0.85) translate(-22.5,-22.5)" style="fill:#000000" xlink:href="#path-main" />
</defs>
	<use id="2" transform="translate(22.5,22.5) scale(0.85) translate(-22.5,-22.5)" style="fill:#0088CC;fill-opacity:1.0" xlink:href="#path-main" />
</acyl-settings>
</svg>
