<svg xmlns="http://www.w3.org/2000/svg" width="48" height="48">
<defs>
<defs
   id="defs32">
</defs>
	<path
   
   id="path-main"
   d="M 24,2 C 11.738505,2.197766 2,11.914813 2,24 c 0,12.094314 9.905685,22 22,22 12.094314,-2e-6 22,-9.905684 22,-22 -2e-6,-12.094316 -9.905684,-22 -22,-22 z m 8.436314,12.669377 c 0.95393,0 1.711111,0.172899 2.474255,0.745257 1.526287,1.144716 1.740923,3.24336 0.596206,4.769648 L 25.192412,33.747967 c -0.572358,0.763144 -1.520325,1.341465 -2.474255,1.341464 -0.953929,0 -1.919782,-0.190785 -2.682927,-0.95393 l -7.422764,-7.452574 c -1.335501,-1.335502 -1.335501,-3.434147 0,-4.769648 0.763144,-0.572358 1.520325,-0.953929 2.474255,-0.953929 0.953929,0 1.901896,0.381571 2.474255,0.953929 0,0 3.052573,3.052575 4.769647,4.769648 2.098645,-2.671003 7.810298,-10.672087 7.810298,-10.672087 0.572358,-0.763143 1.341463,-1.150677 2.295393,-1.341463 z" />
</defs>
<acyl-settings>
<linearGradient
     id="linearGradient4321">
    <stop
       style="stop-color:#161616;stop-opacity:1.0;"
       offset="0.0"
       id="stop1" />
  </linearGradient>
<radialGradient
       inkscape:collect="always"
       xlink:href="#linearGradient4321"
       id="acyl_gradient"
       cx="50.0%"
       cy="50.0%"
       fx="50.0%"
       fy="50.0%"
       r="50.0%"
/>
<filter id="filter1111" x="-50%" y="-50%" width="200%" height="200%">
	<feImage
	id="feImage2"
	xlink:href="#1"
	result="result1" />
	<feComposite
	id="feComposite3633"
	in="result1"
	in2="SourceGraphic"
	operator="xor" />
</filter>
	<rect
	style="fill:#0088CC;fill-opacity:1.0;filter:url(#filter1111)"
	id="rect2835"
	width="48"
	height="48"
	x="0"
	y="0"
	rx="3.5"
	ry="3.5" />
	<rect
	style="fill:url(#acyl_gradient);filter:url(#filter1111)"
	id="rect2835"
	width="44"
	height="44"
	x="2"
	y="2"
	rx="3.5"
	ry="3.5" />
<defs>
<use id="1" transform="translate(22.5,22.5) scale(0.85) translate(-22.5,-22.5)" style="fill:#000000" xlink:href="#path-main" />
</defs>
	<use id="2" transform="translate(22.5,22.5) scale(0.85) translate(-22.5,-22.5)" style="fill:#0088CC;fill-opacity:1.0" xlink:href="#path-main" />
</acyl-settings>
</svg>
