<svg xmlns="http://www.w3.org/2000/svg" width="48" height="48">
<defs>
<defs
   id="defs31">
</defs>
	<path
   d="M 24.030346,2 C 11.921474,2 2,11.921474 2,24.030346 2,36.139218 11.921474,46 24.030346,46 36.139218,46.000002 46,36.139218 46,24.030346 46.000002,11.921474 36.139218,2 24.030346,2 z m 6.402758,11.470345 c 0.825378,0 1.656826,0.352 2.33655,1.031724 1.35945,1.359448 1.359452,3.313656 0,4.673103 l -4.673102,4.642758 4.855172,4.855174 c 1.35945,1.359448 1.35945,3.313654 0,4.673102 -1.359448,1.35945 -3.313656,1.359448 -4.673102,0 l -4.64276,-4.673102 -4.673104,4.673102 c -1.359448,1.35945 -3.28331,1.359448 -4.642758,0 -1.359448,-1.359446 -1.359448,-3.313654 0,-4.673102 L 18.962758,24.030346 14.32,19.357241 c -1.359448,-1.359448 -1.359448,-3.313655 0,-4.673103 1.359448,-1.359448 3.28331,-1.359448 4.642758,0 l 4.46069,4.491034 4.673104,-4.673103 c 0.679724,-0.679724 1.511172,-1.031724 2.336552,-1.031724 z"
   id="path-main"
    />
</defs>
<acyl-settings>
<linearGradient
     id="linearGradient4321">
    <stop
       style="stop-color:#161616;stop-opacity:1.0;"
       offset="0.0"
       id="stop1" />
  </linearGradient>
<radialGradient
       inkscape:collect="always"
       xlink:href="#linearGradient4321"
       id="acyl_gradient"
       cx="50.0%"
       cy="50.0%"
       fx="50.0%"
       fy="50.0%"
       r="50.0%"
/>
<filter id="filter1111" x="-50%" y="-50%" width="200%" height="200%">
	<feImage
	id="feImage2"
	xlink:href="#1"
	result="result1" />
	<feComposite
	id="feComposite3633"
	in="result1"
	in2="SourceGraphic"
	operator="xor" />
</filter>
	<rect
	style="fill:#0088CC;fill-opacity:1.0;filter:url(#filter1111)"
	id="rect2835"
	width="48"
	height="48"
	x="0"
	y="0"
	rx="3.5"
	ry="3.5" />
	<rect
	style="fill:url(#acyl_gradient);filter:url(#filter1111)"
	id="rect2835"
	width="44"
	height="44"
	x="2"
	y="2"
	rx="3.5"
	ry="3.5" />
<defs>
<use id="1" transform="translate(22.5,22.5) scale(0.85) translate(-22.5,-22.5)" style="fill:#000000" xlink:href="#path-main" />
</defs>
	<use id="2" transform="translate(22.5,22.5) scale(0.85) translate(-22.5,-22.5)" style="fill:#0088CC;fill-opacity:1.0" xlink:href="#path-main" />
</acyl-settings>
</svg>
