<svg xmlns="http://www.w3.org/2000/svg" width="48" height="48">
<defs>
  <path
     d="m 7.5181982,8.5791234 c -1.017197,0 -1.666181,0.833327 -1.836213,1.8362116 l -3.672425,18.053874 c -0.114597,1.010736 0.819016,1.836212 1.836213,1.836212 l 40.3085378,0 c 1.017199,0 1.950252,-0.825413 1.836213,-1.836212 L 42.318099,10.415335 C 42.161321,9.4102934 41.499081,8.5791234 40.481885,8.5791234 z M 3.8457732,32.161391 c -1.017212,0 -1.836213,0.819001 -1.836213,1.836213 l 0,3.731183 c 0,1.017214 0.819001,1.836213 1.836213,1.836213 l 40.3085378,0 c 1.017214,0 1.836213,-0.818999 1.836213,-1.836213 l 0,-3.731183 c 0,-1.017212 -0.818999,-1.836213 -1.836213,-1.836213 z m 1.792143,2.218145 4.4950488,0 c 0.339493,0 0.616967,0.262784 0.616967,0.602278 l 0,1.748074 c 0,0.339494 -0.277474,0.616967 -0.616967,0.616967 l -4.4950488,0 c -0.339493,0 -0.616967,-0.277473 -0.616967,-0.616967 l 0,-1.748074 c 0,-0.339494 0.277474,-0.602278 0.616967,-0.602278 z"
     id="path-main"
      />
</defs>
<acyl-settings>
<linearGradient
     id="linearGradient4321">
    <stop
       style="stop-color:#161616;stop-opacity:1.0;"
       offset="0.0"
       id="stop1" />
  </linearGradient>
<radialGradient
       inkscape:collect="always"
       xlink:href="#linearGradient4321"
       id="acyl_gradient"
       cx="50.0%"
       cy="50.0%"
       fx="50.0%"
       fy="50.0%"
       r="50.0%"
/>
<filter id="filter1111" x="-50%" y="-50%" width="200%" height="200%">
	<feImage
	id="feImage2"
	xlink:href="#1"
	result="result1" />
	<feComposite
	id="feComposite3633"
	in="result1"
	in2="SourceGraphic"
	operator="xor" />
</filter>
	<rect
	style="fill:#0088CC;fill-opacity:1.0;filter:url(#filter1111)"
	id="rect2835"
	width="48"
	height="48"
	x="0"
	y="0"
	rx="3.5"
	ry="3.5" />
	<rect
	style="fill:url(#acyl_gradient);filter:url(#filter1111)"
	id="rect2835"
	width="44"
	height="44"
	x="2"
	y="2"
	rx="3.5"
	ry="3.5" />
<defs>
<use id="1" transform="translate(22.5,22.5) scale(0.85) translate(-22.5,-22.5)" style="fill:#000000" xlink:href="#path-main" />
</defs>
	<use id="2" transform="translate(22.5,22.5) scale(0.85) translate(-22.5,-22.5)" style="fill:#0088CC;fill-opacity:1.0" xlink:href="#path-main" />
</acyl-settings>
</svg>
