<svg xmlns="http://www.w3.org/2000/svg" width="48" height="48">
<defs>
  <path
     d="M 32.46875 3.625 L 23.625 11.0625 L 15.09375 4 L 2.46875 11.9375 L 10.71875 18.84375 L 2.34375 26.21875 L 10.875 31.625 L 10.75 36.1875 L 24.21875 43.90625 L 36.84375 35.78125 L 36.75 32.25 L 45.65625 26.34375 L 37.0625 19.03125 L 45.65625 11.5 L 32.46875 3.625 z M 24.3125 15.71875 C 25.203023 15.739251 26.113806 15.888103 27 16.1875 C 28.524436 16.702526 29.835849 17.596672 30.84375 18.71875 L 32.25 17.78125 L 32.6875 24.15625 L 26.9375 21.34375 L 28.3125 20.4375 C 27.689252 19.829562 26.918563 19.331026 26.03125 19.03125 C 22.84091 17.953405 19.421595 19.653411 18.34375 22.84375 L 15.5 21.875 C 16.797389 18.034828 20.453565 15.629913 24.3125 15.71875 z M 15.59375 25.5625 L 21.46875 28.09375 L 19.96875 29.1875 C 20.579102 29.763994 21.301615 30.242514 22.15625 30.53125 C 25.34659 31.609095 28.765905 29.909089 29.84375 26.71875 L 32.6875 27.6875 C 31.090714 32.413866 25.913867 34.971786 21.1875 33.375 C 19.743931 32.887295 18.515008 32.038541 17.53125 31 L 16.34375 31.9375 L 15.96875 28.8125 L 15.59375 25.5625 z "
     id="path-main" />
</defs>
<acyl-settings>
<linearGradient
     id="linearGradient4321">
    <stop
       style="stop-color:#161616;stop-opacity:1.0;"
       offset="0.0"
       id="stop1" />
  </linearGradient>
<radialGradient
       inkscape:collect="always"
       xlink:href="#linearGradient4321"
       id="acyl_gradient"
       cx="50.0%"
       cy="50.0%"
       fx="50.0%"
       fy="50.0%"
       r="50.0%"
/>
<filter id="filter1111" x="-50%" y="-50%" width="200%" height="200%">
	<feImage
	id="feImage2"
	xlink:href="#1"
	result="result1" />
	<feComposite
	id="feComposite3633"
	in="result1"
	in2="SourceGraphic"
	operator="xor" />
</filter>
	<rect
	style="fill:#0088CC;fill-opacity:1.0;filter:url(#filter1111)"
	id="rect2835"
	width="48"
	height="48"
	x="0"
	y="0"
	rx="3.5"
	ry="3.5" />
	<rect
	style="fill:url(#acyl_gradient);filter:url(#filter1111)"
	id="rect2835"
	width="44"
	height="44"
	x="2"
	y="2"
	rx="3.5"
	ry="3.5" />
<defs>
<use id="1" transform="translate(22.5,22.5) scale(0.85) translate(-22.5,-22.5)" style="fill:#000000" xlink:href="#path-main" />
</defs>
	<use id="2" transform="translate(22.5,22.5) scale(0.85) translate(-22.5,-22.5)" style="fill:#0088CC;fill-opacity:1.0" xlink:href="#path-main" />
</acyl-settings>
</svg>
