<svg xmlns="http://www.w3.org/2000/svg" width="48" height="48">
<defs>
<defs
     id="defs3306">
  </defs>
  <path
     d="M 24.630198,2.0082234 A 21.999623,22.01207 0 0 0 2.114959,22.071308 l 43.770082,0 A 21.999623,22.01207 0 0 0 24.630198,2.0082234 z m -7.218627,3.8119859 c 0.763306,-0.00144 1.38493,0.2141954 1.747366,0.6878772 0.966497,1.2631512 -0.270844,3.8265415 -2.749953,5.7036485 -2.479108,1.877108 -5.278188,2.380952 -6.244684,1.1178 -0.9664963,-1.263151 0.270844,-3.8265404 2.749953,-5.7036481 1.549442,-1.1731921 3.225143,-1.8032706 4.497318,-1.8056776 z M 2.0003777,23.762339 a 21.999623,22.01207 0 0 0 0,0.257954 21.999623,22.01207 0 0 0 0.085936,1.633708 l 43.8273723,0 a 21.999623,22.01207 0 0 0 0.08594,-1.633708 21.999623,22.01207 0 0 0 0,-0.257954 l -43.9992443,0 z m 0.2864534,3.582694 a 21.999623,22.01207 0 0 0 0.3437441,1.948985 l 42.7102048,0 a 21.999623,22.01207 0 0 0 0.401034,-1.948985 l -43.4549829,0 z m 0.8307149,3.611355 a 21.999623,22.01207 0 0 0 41.736263,0 l -41.736263,0 z"
     id="path-main" />
</defs>
<acyl-settings>
<linearGradient
     id="linearGradient4321">
    <stop
       style="stop-color:#161616;stop-opacity:1.0;"
       offset="0.0"
       id="stop1" />
  </linearGradient>
<radialGradient
       inkscape:collect="always"
       xlink:href="#linearGradient4321"
       id="acyl_gradient"
       cx="50.0%"
       cy="50.0%"
       fx="50.0%"
       fy="50.0%"
       r="50.0%"
/>
<filter id="filter1111" x="-50%" y="-50%" width="200%" height="200%">
	<feImage
	id="feImage2"
	xlink:href="#1"
	result="result1" />
	<feComposite
	id="feComposite3633"
	in="result1"
	in2="SourceGraphic"
	operator="xor" />
</filter>
	<rect
	style="fill:#0088CC;fill-opacity:1.0;filter:url(#filter1111)"
	id="rect2835"
	width="48"
	height="48"
	x="0"
	y="0"
	rx="3.5"
	ry="3.5" />
	<rect
	style="fill:url(#acyl_gradient);filter:url(#filter1111)"
	id="rect2835"
	width="44"
	height="44"
	x="2"
	y="2"
	rx="3.5"
	ry="3.5" />
<defs>
<use id="1" transform="translate(22.5,22.5) scale(0.85) translate(-22.5,-22.5)" style="fill:#000000" xlink:href="#path-main" />
</defs>
	<use id="2" transform="translate(22.5,22.5) scale(0.85) translate(-22.5,-22.5)" style="fill:#0088CC;fill-opacity:1.0" xlink:href="#path-main" />
</acyl-settings>
</svg>
