<svg xmlns="http://www.w3.org/2000/svg" width="48" height="48">
<defs>
<defs
     id="defs5">
  </defs>
  <path
     d="m 13.649888,30.748173 0,0 c 0,0 -1.080956,1.338046 -3.088468,4.894098 -2.0074966,3.556051 -6.0997105,2.473776 -7.4895189,0.773056 -1.38981,-1.700722 -1.2353873,-5.256774 -0.6176924,-8.890132 0.6176924,-3.633356 1.0809619,-11.595821 4.6327015,-12.910015 0.077201,-1.855331 0.6176857,-3.652953 3.3200958,-3.730257 2.702397,-0.0773 3.939906,0.224216 4.246639,2.302075 7.407006,-1.888559 11.735135,-1.495109 18.376365,0 0.562614,-1.505713 0.761155,-2.257539 3.879858,-2.302075 3.314415,-0.04674 3.793059,1.430281 3.870259,3.749443 1.467027,1.082279 3.059514,1.295008 4.14047,9.025555 1.080956,7.730549 1.621441,11.13199 0.308842,12.600793 -1.312598,1.468805 -5.63645,2.860303 -7.103463,0.773056 -1.467027,-2.087248 -3.783367,-6.285597 -3.783367,-6.285597 0,0 -5.250394,5.280625 -8.647705,-1.754173 -2.007498,0 -3.55174,0 -3.55174,0 0,0 -3.088453,6.392502 -8.493276,1.754173 z"
     id="path-main"
      />
</defs>
<acyl-settings>
<linearGradient
     id="linearGradient4321">
    <stop
       style="stop-color:#161616;stop-opacity:1.0;"
       offset="0.0"
       id="stop1" />
  </linearGradient>
<radialGradient
       inkscape:collect="always"
       xlink:href="#linearGradient4321"
       id="acyl_gradient"
       cx="50.0%"
       cy="50.0%"
       fx="50.0%"
       fy="50.0%"
       r="50.0%"
/>
<filter id="filter1111" x="-50%" y="-50%" width="200%" height="200%">
	<feImage
	id="feImage2"
	xlink:href="#1"
	result="result1" />
	<feComposite
	id="feComposite3633"
	in="result1"
	in2="SourceGraphic"
	operator="xor" />
</filter>
	<rect
	style="fill:#0088CC;fill-opacity:1.0;filter:url(#filter1111)"
	id="rect2835"
	width="48"
	height="48"
	x="0"
	y="0"
	rx="3.5"
	ry="3.5" />
	<rect
	style="fill:url(#acyl_gradient);filter:url(#filter1111)"
	id="rect2835"
	width="44"
	height="44"
	x="2"
	y="2"
	rx="3.5"
	ry="3.5" />
<defs>
<use id="1" transform="translate(22.5,22.5) scale(0.85) translate(-22.5,-22.5)" style="fill:#000000" xlink:href="#path-main" />
</defs>
	<use id="2" transform="translate(22.5,22.5) scale(0.85) translate(-22.5,-22.5)" style="fill:#0088CC;fill-opacity:1.0" xlink:href="#path-main" />
</acyl-settings>
</svg>
