<svg xmlns="http://www.w3.org/2000/svg" width="48" height="48">
<defs>
<defs
     id="defs4">
  </defs>
  <path
     id="path-main"
     d="M 7.2708333,3.9641509 C 4.3531628,3.9641509 2,6.2361931 2,9.0631089 L 2,37.365193 c 0,2.826915 2.3531628,5.098958 5.2708333,5.098958 l 33.4583337,0 C 43.646837,42.464151 46,40.192107 46,37.365193 L 46,9.0631089 c 0,-2.8269158 -2.353163,-5.098958 -5.270833,-5.098958 l -33.4583337,0 z m 2.40625,4.268229 28.6458337,0 c 1.872828,0 3.380208,1.494579 3.380208,3.3515631 l 0,23.260416 c -10e-7,1.856984 -1.50738,3.351563 -3.380208,3.351563 l -28.6458337,0 c -1.8728287,2e-6 -3.3802083,-1.494579 -3.3802083,-3.351563 l 0,-23.260416 c 0,-1.8569841 1.5073792,-3.3515631 3.3802083,-3.3515631 z M 14.375,13.073526 l -1.145833,6.072917 -4.354167,0 0,2.520833 3.838542,0 -0.515625,2.520833 -4.4114587,0 0,2.520834 3.9531247,0 -1.23177,6.445312 3.322916,0 1.289063,-6.445312 3.322916,0 -1.23177,6.445312 3.322916,0 1.289063,-6.445312 3.953125,0 0,-2.520834 -3.494792,0 0.515625,-2.520833 4.067708,0 0,-2.520833 -3.609375,0 1.174479,-6.072917 -3.351562,0 -1.145833,6.072917 -3.380209,0 1.145834,-6.072917 -3.322917,0 z m 1.71875,8.59375 3.322917,0 -0.515625,2.520833 -3.322917,0 0.515625,-2.520833 z m 9.023437,7.963542 0,5.35677 13.263021,0 0,-5.35677 -13.263021,0 z" />
</defs>
<acyl-settings>
<linearGradient
     id="linearGradient4321">
    <stop
       style="stop-color:#161616;stop-opacity:1.0;"
       offset="0.0"
       id="stop1" />
  </linearGradient>
<radialGradient
       inkscape:collect="always"
       xlink:href="#linearGradient4321"
       id="acyl_gradient"
       cx="50.0%"
       cy="50.0%"
       fx="50.0%"
       fy="50.0%"
       r="50.0%"
/>
<filter id="filter1111" x="-50%" y="-50%" width="200%" height="200%">
	<feImage
	id="feImage2"
	xlink:href="#1"
	result="result1" />
	<feComposite
	id="feComposite3633"
	in="result1"
	in2="SourceGraphic"
	operator="xor" />
</filter>
	<rect
	style="fill:#0088CC;fill-opacity:1.0;filter:url(#filter1111)"
	id="rect2835"
	width="48"
	height="48"
	x="0"
	y="0"
	rx="3.5"
	ry="3.5" />
	<rect
	style="fill:url(#acyl_gradient);filter:url(#filter1111)"
	id="rect2835"
	width="44"
	height="44"
	x="2"
	y="2"
	rx="3.5"
	ry="3.5" />
<defs>
<use id="1" transform="translate(22.5,22.5) scale(0.85) translate(-22.5,-22.5)" style="fill:#000000" xlink:href="#path-main" />
</defs>
	<use id="2" transform="translate(22.5,22.5) scale(0.85) translate(-22.5,-22.5)" style="fill:#0088CC;fill-opacity:1.0" xlink:href="#path-main" />
</acyl-settings>
</svg>
