<svg xmlns="http://www.w3.org/2000/svg" width="48" height="48">
<defs>
  <path
     d="m 43.923126,4.0771175 c -2.769157,-2.76949 -7.258855,-2.76949 -10.028013,0 l -0.605859,-0.605932 c -1.878507,-1.878728 -4.900858,-1.86828 -6.77936,0.01045 L 3.4141128,26.580165 c -1.878506,1.878729 -1.888949,4.901436 -0.01045,6.780165 L 14.632956,44.590952 c 1.878506,1.878731 4.9113,1.878731 6.789806,0 L 44.518544,21.492428 c 1.878502,-1.878727 1.878508,-4.911883 0,-6.790612 l -0.595418,-0.595485 c 2.769166,-2.769491 2.769166,-7.2597215 0,-10.0292115 z m -2.507002,2.507303 c 1.384584,1.384746 1.384584,3.6298605 0,5.0146055 -1.384578,1.384745 -3.629423,1.384747 -5.014007,0 -1.38458,-1.384746 -1.38458,-3.6298595 0,-5.0146055 1.384579,-1.384745 3.629429,-1.384747 5.014007,0 z"
     id="path-main"
     />
</defs>
<acyl-settings>
<linearGradient
     id="linearGradient4321">
    <stop
       style="stop-color:#161616;stop-opacity:1.0;"
       offset="0.0"
       id="stop1" />
  </linearGradient>
<radialGradient
       inkscape:collect="always"
       xlink:href="#linearGradient4321"
       id="acyl_gradient"
       cx="50.0%"
       cy="50.0%"
       fx="50.0%"
       fy="50.0%"
       r="50.0%"
/>
<filter id="filter1111" x="-50%" y="-50%" width="200%" height="200%">
	<feImage
	id="feImage2"
	xlink:href="#1"
	result="result1" />
	<feComposite
	id="feComposite3633"
	in="result1"
	in2="SourceGraphic"
	operator="xor" />
</filter>
	<rect
	style="fill:#0088CC;fill-opacity:1.0;filter:url(#filter1111)"
	id="rect2835"
	width="48"
	height="48"
	x="0"
	y="0"
	rx="3.5"
	ry="3.5" />
	<rect
	style="fill:url(#acyl_gradient);filter:url(#filter1111)"
	id="rect2835"
	width="44"
	height="44"
	x="2"
	y="2"
	rx="3.5"
	ry="3.5" />
<defs>
<use id="1" transform="translate(22.5,22.5) scale(0.85) translate(-22.5,-22.5)" style="fill:#000000" xlink:href="#path-main" />
</defs>
	<use id="2" transform="translate(22.5,22.5) scale(0.85) translate(-22.5,-22.5)" style="fill:#0088CC;fill-opacity:1.0" xlink:href="#path-main" />
</acyl-settings>
</svg>
