<svg xmlns="http://www.w3.org/2000/svg" width="48" height="48">
<defs>
<defs
     id="defs1874">
  </defs>
  <path
     d="M 34.5,2.5 C 28.70665,2.5 23.999999,7.2066502 24,13 24,18.793349 28.706651,23.5 34.5,23.5 40.293349,23.5 45,18.793349 45,13 45,7.2066506 40.29335,2.4999999 34.5,2.5 z m -22,0.03125 c -5.7933498,0 -10.5,4.7066507 -10.5,10.5 -1e-7,5.793349 4.7066502,10.5 10.5,10.5 5.793349,0 10.5,-4.706651 10.5,-10.5 0,-5.7933495 -4.706651,-10.5000001 -10.5,-10.5 z m 0,1 c 5.252909,-10e-8 9.5,4.2470907 9.5,9.5 0,5.252909 -4.247091,9.5 -9.5,9.5 -5.2529096,0 -9.5000001,-4.247091 -9.5,-9.5 0,-5.2529091 4.2470904,-9.5 9.5,-9.5 z M 12.5,24.5 C 6.7066501,24.5 1.9999998,29.206652 2,35 c -1e-7,5.793349 4.7066499,10.500001 10.5,10.5 C 18.293349,45.5 23.000001,40.79335 23,35 23,29.206651 18.293349,24.499999 12.5,24.5 z m 22,0 C 28.70665,24.5 23.999999,29.206651 24,35 24,40.793349 28.706651,45.5 34.5,45.5 40.293349,45.5 45,40.793349 45,35 45,29.206651 40.29335,24.5 34.5,24.5 z"
     id="path-main"
      />
</defs>
<acyl-settings>
<linearGradient
     id="linearGradient4321">
    <stop
       style="stop-color:#161616;stop-opacity:1.0;"
       offset="0.0"
       id="stop1" />
  </linearGradient>
<radialGradient
       inkscape:collect="always"
       xlink:href="#linearGradient4321"
       id="acyl_gradient"
       cx="50.0%"
       cy="50.0%"
       fx="50.0%"
       fy="50.0%"
       r="50.0%"
/>
<filter id="filter1111" x="-50%" y="-50%" width="200%" height="200%">
	<feImage
	id="feImage2"
	xlink:href="#1"
	result="result1" />
	<feComposite
	id="feComposite3633"
	in="result1"
	in2="SourceGraphic"
	operator="xor" />
</filter>
	<rect
	style="fill:#0088CC;fill-opacity:1.0;filter:url(#filter1111)"
	id="rect2835"
	width="48"
	height="48"
	x="0"
	y="0"
	rx="3.5"
	ry="3.5" />
	<rect
	style="fill:url(#acyl_gradient);filter:url(#filter1111)"
	id="rect2835"
	width="44"
	height="44"
	x="2"
	y="2"
	rx="3.5"
	ry="3.5" />
<defs>
<use id="1" transform="translate(22.5,22.5) scale(0.85) translate(-22.5,-22.5)" style="fill:#000000" xlink:href="#path-main" />
</defs>
	<use id="2" transform="translate(22.5,22.5) scale(0.85) translate(-22.5,-22.5)" style="fill:#0088CC;fill-opacity:1.0" xlink:href="#path-main" />
</acyl-settings>
</svg>
