<svg xmlns="http://www.w3.org/2000/svg" width="48" height="48">
<defs>
<path
   d="M 17.695625,2.000999 C 17.033371,2.000999 16.5,2.52869 16.5,3.172712 l 0,41.655576 C 16.5,45.472307 17.033371,46 17.695625,46 l 14.82575,0 C 33.183629,46 33.717,45.472307 33.717,44.828288 l 0,-41.655576 c 0,-0.644022 -0.533371,-1.171713 -1.195625,-1.171713 l -14.82575,0 z m 0.334775,0.3826 14.1562,0 c 0.63282,0 1.1478,0.51498 1.1478,1.1478 l 0,40.938201 c 0,0.63282 -0.51498,1.1478 -1.1478,1.1478 l -14.1562,0 c -0.63282,0 -1.147801,-0.51498 -1.147801,-1.1478 l 0,-40.938201 c 0,-0.63282 0.514981,-1.147799 1.147801,-1.147799 z m -0.7652,32.521001 0,9.565 c 0,0.42086 0.34434,0.765199 0.7652,0.765199 l 14.1562,0 c 0.42086,0 0.7652,-0.344339 0.7652,-0.765199 l 0,-9.565 -15.6866,0 z"
   id="path-main"
    />
</defs>
<acyl-settings>
<linearGradient
     id="linearGradient4321">
    <stop
       style="stop-color:#161616;stop-opacity:1.0;"
       offset="0.0"
       id="stop1" />
  </linearGradient>
<radialGradient
       inkscape:collect="always"
       xlink:href="#linearGradient4321"
       id="acyl_gradient"
       cx="50.0%"
       cy="50.0%"
       fx="50.0%"
       fy="50.0%"
       r="50.0%"
/>
<filter id="filter1111" x="-50%" y="-50%" width="200%" height="200%">
	<feImage
	id="feImage2"
	xlink:href="#1"
	result="result1" />
	<feComposite
	id="feComposite3633"
	in="result1"
	in2="SourceGraphic"
	operator="xor" />
</filter>
	<rect
	style="fill:#0088CC;fill-opacity:1.0;filter:url(#filter1111)"
	id="rect2835"
	width="48"
	height="48"
	x="0"
	y="0"
	rx="3.5"
	ry="3.5" />
	<rect
	style="fill:url(#acyl_gradient);filter:url(#filter1111)"
	id="rect2835"
	width="44"
	height="44"
	x="2"
	y="2"
	rx="3.5"
	ry="3.5" />
<defs>
<use id="1" transform="translate(22.5,22.5) scale(0.85) translate(-22.5,-22.5)" style="fill:#000000" xlink:href="#path-main" />
</defs>
	<use id="2" transform="translate(22.5,22.5) scale(0.85) translate(-22.5,-22.5)" style="fill:#0088CC;fill-opacity:1.0" xlink:href="#path-main" />
</acyl-settings>
</svg>
