<svg xmlns="http://www.w3.org/2000/svg" width="48" height="48">
<defs>
  <path
     d="M 5.673834,3.5 C 3.6342794,3.5 2,5.1455013 2,7.1837374 L 2,40.816264 C 2,42.854495 3.6342794,44.5 5.673834,44.5 l 36.640045,0 C 44.353434,44.5 46,42.854495 46,40.816264 L 46,7.1837374 C 46,5.1455013 44.353434,3.5 42.313879,3.5 l -36.640045,0 z m 0.1720191,9.811021 4.9148279,0 0,6.31147 -4.9148279,0 0,-6.31147 z m 7.8514379,0 4.902541,0 0,6.31147 -4.902541,0 0,-6.31147 z m 7.83915,0 4.914829,0 0,6.31147 -4.914829,0 0,-6.31147 z m 7.851438,0 4.902541,0 0,6.31147 -4.902541,0 0,-6.31147 z m 7.839151,0 4.91483,0 0,6.31147 -4.91483,0 0,-6.31147 z m -31.3811769,8.82869 4.9148279,0 0,5.071279 -4.9148279,0 0,-5.071279 z m 7.8514379,0 4.902541,0 0,5.071279 -4.902541,0 0,-5.071279 z m 7.83915,0 4.914829,0 0,5.071279 -4.914829,0 0,-5.071279 z m 7.851438,0 4.902541,0 0,5.071279 -4.902541,0 0,-5.071279 z m 7.839151,0 4.91483,0 0,5.071279 -4.91483,0 0,-5.071279 z m -31.3811769,7.588497 4.9148279,0 0,4.027554 -4.9148279,0 0,-4.027554 z m 7.8514379,0 4.902541,0 0,4.027554 -4.902541,0 0,-4.027554 z m 7.83915,0 4.914829,0 0,4.027554 -4.914829,0 0,-4.027554 z m 7.851438,0 4.902541,0 0,4.027554 -4.902541,0 0,-4.027554 z m 7.839151,0 4.91483,0 0,4.027554 -4.91483,0 0,-4.027554 z m -31.3811769,6.544775 4.9148279,0 0,4.027554 -4.9148279,0 0,-4.027554 z m 7.8514379,0 4.902541,0 0,4.027554 -4.902541,0 0,-4.027554 z m 7.83915,0 4.914829,0 0,4.027554 -4.914829,0 0,-4.027554 z m 7.851438,0 4.902541,0 0,4.027554 -4.902541,0 0,-4.027554 z m 7.839151,0 4.91483,0 0,4.027554 -4.91483,0 0,-4.027554 z"
     id="path-main"
      />
</defs>
<acyl-settings>
<linearGradient
     id="linearGradient4321">
    <stop
       style="stop-color:#161616;stop-opacity:1.0;"
       offset="0.0"
       id="stop1" />
  </linearGradient>
<radialGradient
       inkscape:collect="always"
       xlink:href="#linearGradient4321"
       id="acyl_gradient"
       cx="50.0%"
       cy="50.0%"
       fx="50.0%"
       fy="50.0%"
       r="50.0%"
/>
<filter id="filter1111" x="-50%" y="-50%" width="200%" height="200%">
	<feImage
	id="feImage2"
	xlink:href="#1"
	result="result1" />
	<feComposite
	id="feComposite3633"
	in="result1"
	in2="SourceGraphic"
	operator="xor" />
</filter>
	<rect
	style="fill:#0088CC;fill-opacity:1.0;filter:url(#filter1111)"
	id="rect2835"
	width="48"
	height="48"
	x="0"
	y="0"
	rx="3.5"
	ry="3.5" />
	<rect
	style="fill:url(#acyl_gradient);filter:url(#filter1111)"
	id="rect2835"
	width="44"
	height="44"
	x="2"
	y="2"
	rx="3.5"
	ry="3.5" />
<defs>
<use id="1" transform="translate(22.5,22.5) scale(0.85) translate(-22.5,-22.5)" style="fill:#000000" xlink:href="#path-main" />
</defs>
	<use id="2" transform="translate(22.5,22.5) scale(0.85) translate(-22.5,-22.5)" style="fill:#0088CC;fill-opacity:1.0" xlink:href="#path-main" />
</acyl-settings>
</svg>
