<svg xmlns="http://www.w3.org/2000/svg" width="48" height="48">
<defs>
<defs
     id="defs2162">
  </defs>
  <path
     id="path-main"
   d="M 23.5 2.78125 L 23.5 8.4375 L 35.96875 8.4375 L 22.96875 21.96875 L 22.96875 27.5 L 45.0625 27.5 L 45.0625 21.84375 L 32.03125 21.84375 L 45.0625 8.3125 L 45.0625 2.78125 L 23.5 2.78125 z M 13.1875 26.34375 L 13.1875 30.3125 L 22.1875 30.3125 L 12.78125 39.8125 L 12.78125 43.65625 L 28.71875 43.65625 L 28.71875 39.71875 L 19.34375 39.71875 L 28.71875 30.21875 L 28.71875 28.875 L 21.125 28.875 L 21.125 26.34375 L 13.1875 26.34375 z M 3.15625 36.28125 L 3.15625 38.6875 L 7 38.6875 L 2.84375 43.21875 L 2.84375 45.53125 L 11.5 45.53125 L 11.5 43.09375 L 6.84375 43.09375 L 11.21875 38.34375 L 11.21875 36.28125 L 3.15625 36.28125 z "
/>
</defs>
<acyl-settings>
<linearGradient
     id="linearGradient4321">
    <stop
       style="stop-color:#161616;stop-opacity:1.0;"
       offset="0.0"
       id="stop1" />
  </linearGradient>
<radialGradient
       inkscape:collect="always"
       xlink:href="#linearGradient4321"
       id="acyl_gradient"
       cx="50.0%"
       cy="50.0%"
       fx="50.0%"
       fy="50.0%"
       r="50.0%"
/>
<filter id="filter1111" x="-50%" y="-50%" width="200%" height="200%">
	<feImage
	id="feImage2"
	xlink:href="#1"
	result="result1" />
	<feComposite
	id="feComposite3633"
	in="result1"
	in2="SourceGraphic"
	operator="xor" />
</filter>
	<rect
	style="fill:#0088CC;fill-opacity:1.0;filter:url(#filter1111)"
	id="rect2835"
	width="48"
	height="48"
	x="0"
	y="0"
	rx="3.5"
	ry="3.5" />
	<rect
	style="fill:url(#acyl_gradient);filter:url(#filter1111)"
	id="rect2835"
	width="44"
	height="44"
	x="2"
	y="2"
	rx="3.5"
	ry="3.5" />
<defs>
<use id="1" transform="translate(22.5,22.5) scale(0.85) translate(-22.5,-22.5)" style="fill:#000000" xlink:href="#path-main" />
</defs>
	<use id="2" transform="translate(22.5,22.5) scale(0.85) translate(-22.5,-22.5)" style="fill:#0088CC;fill-opacity:1.0" xlink:href="#path-main" />
</acyl-settings>
</svg>
