<svg xmlns="http://www.w3.org/2000/svg" width="48" height="48">
<defs>
  <path
     d="M 24.005417,4.7838454 3.0507163,23.919778 c -1.990087,1.817076 -0.966742,4.725689 1.507868,4.72569 l 3.264457,0 0,8.876212 c 0,2.73952 2.2037967,4.94332 4.9433187,4.94332 l 22.726835,0 c 2.739522,0 4.94332,-2.2038 4.94332,-4.94332 l 0,-8.876212 3.015736,0 c 2.47461,0 3.482409,-2.908614 1.492323,-4.72569 l -6.870904,-6.280192 0,-10.8659756 c 0,-0.442416 -0.350381,-0.792797 -0.792796,-0.792797 l -4.259338,0 c -0.442416,0 -0.792797,0.350381 -0.792797,0.792797 l 0,5.5184846 -8.223322,-7.5082496 z"
     id="path-main"
      />
</defs>
<acyl-settings>
<linearGradient
     id="linearGradient4321">
    <stop
       style="stop-color:#161616;stop-opacity:1.0;"
       offset="0.0"
       id="stop1" />
  </linearGradient>
<radialGradient
       inkscape:collect="always"
       xlink:href="#linearGradient4321"
       id="acyl_gradient"
       cx="50.0%"
       cy="50.0%"
       fx="50.0%"
       fy="50.0%"
       r="50.0%"
/>
<filter id="filter1111" x="-50%" y="-50%" width="200%" height="200%">
	<feImage
	id="feImage2"
	xlink:href="#1"
	result="result1" />
	<feComposite
	id="feComposite3633"
	in="result1"
	in2="SourceGraphic"
	operator="xor" />
</filter>
	<rect
	style="fill:#0088CC;fill-opacity:1.0;filter:url(#filter1111)"
	id="rect2835"
	width="48"
	height="48"
	x="0"
	y="0"
	rx="3.5"
	ry="3.5" />
	<rect
	style="fill:url(#acyl_gradient);filter:url(#filter1111)"
	id="rect2835"
	width="44"
	height="44"
	x="2"
	y="2"
	rx="3.5"
	ry="3.5" />
<defs>
<use id="1" transform="translate(22.5,22.5) scale(0.85) translate(-22.5,-22.5)" style="fill:#000000" xlink:href="#path-main" />
</defs>
	<use id="2" transform="translate(22.5,22.5) scale(0.85) translate(-22.5,-22.5)" style="fill:#0088CC;fill-opacity:1.0" xlink:href="#path-main" />
</acyl-settings>
</svg>
