<svg xmlns="http://www.w3.org/2000/svg" width="48" height="48">
<defs>
  <path
     d="M 14.497188,33.502812 C 20.176689,39.182313 26.250084,43.1751 30.966256,44.70079 32.522177,45.51349 34.416536,46 36.472442,46 41.728293,46 46,42.87502 46,39.021372 c 0,-3.853652 -4.271706,-6.978628 -9.527558,-6.978628 -1.699467,0 -3.287218,0.330084 -4.664792,0.903263 -1.178554,0.49037 -0.908358,2.24338 -1.559055,3.365579 -0.547821,0.944778 -2.374197,0.820956 -3.291339,0.296963 -3.068012,-1.752853 -5.683606,-3.901829 -8.673791,-6.892013 -2.990185,-2.990185 -5.139159,-5.60578 -6.892014,-8.673792 -0.523993,-0.917141 -0.647815,-2.743517 0.296963,-3.291338 1.122199,-0.650698 2.875209,-0.380501 3.365579,-1.559055 0.573179,-1.377575 0.903263,-2.965326 0.903263,-4.664793 0,-5.25585 -3.124976,-9.527559 -6.978628,-9.527559 -3.853652,0 -6.978626,4.27171 -6.978628,9.527559 2e-6,2.055908 0.486511,3.950266 1.299211,5.506186 1.525694,4.716173 5.518476,10.789568 11.197977,16.469068 z"
     id="path-main"
      />
</defs>
<acyl-settings>
<linearGradient
     id="linearGradient4321">
    <stop
       style="stop-color:#161616;stop-opacity:1.0;"
       offset="0.0"
       id="stop1" />
  </linearGradient>
<radialGradient
       inkscape:collect="always"
       xlink:href="#linearGradient4321"
       id="acyl_gradient"
       cx="50.0%"
       cy="50.0%"
       fx="50.0%"
       fy="50.0%"
       r="50.0%"
/>
<filter id="filter1111" x="-50%" y="-50%" width="200%" height="200%">
	<feImage
	id="feImage2"
	xlink:href="#1"
	result="result1" />
	<feComposite
	id="feComposite3633"
	in="result1"
	in2="SourceGraphic"
	operator="xor" />
</filter>
	<rect
	style="fill:#0088CC;fill-opacity:1.0;filter:url(#filter1111)"
	id="rect2835"
	width="48"
	height="48"
	x="0"
	y="0"
	rx="3.5"
	ry="3.5" />
	<rect
	style="fill:url(#acyl_gradient);filter:url(#filter1111)"
	id="rect2835"
	width="44"
	height="44"
	x="2"
	y="2"
	rx="3.5"
	ry="3.5" />
<defs>
<use id="1" transform="translate(22.5,22.5) scale(0.85) translate(-22.5,-22.5)" style="fill:#000000" xlink:href="#path-main" />
</defs>
	<use id="2" transform="translate(22.5,22.5) scale(0.85) translate(-22.5,-22.5)" style="fill:#0088CC;fill-opacity:1.0" xlink:href="#path-main" />
</acyl-settings>
</svg>
