<svg xmlns="http://www.w3.org/2000/svg" width="48" height="48">
<defs>
<defs
     id="defs5">
  </defs>
  <path
     d="m 25.568045,2 c -2.067064,0 -3.744681,1.6776171 -3.744681,3.7446809 0,2.0670637 1.677617,3.7446811 3.744681,3.7446811 2.067064,0 3.74468,-1.6776173 3.744681,-3.7446811 C 29.312726,3.6776171 27.63511,2 25.568045,2 z m -3.744681,10.297872 0,17.787234 7.489362,0 0,-17.787234 -7.489362,0 z m -2.808511,1.31649 c -6.04718,2.559664 -10.2978718,8.559542 -10.2978719,15.534574 0,9.300043 7.5510209,16.851065 16.8510639,16.851064 9.300043,0 16.851064,-7.551021 16.851064,-16.851064 0,-6.975032 -4.250692,-12.97491 -10.297873,-15.534574 l 0,6.43617 c 2.832009,2.040629 4.680851,5.345106 4.680851,9.098404 10e-7,6.199448 -5.034594,11.234043 -11.234042,11.234043 -6.199448,2e-6 -11.234043,-5.034594 -11.234043,-11.234043 0,-3.753298 1.848843,-7.057775 4.680851,-9.098404 l 0,-6.43617 z"
     id="path-main"
      />
</defs>
<acyl-settings>
<linearGradient
     id="linearGradient4321">
    <stop
       style="stop-color:#161616;stop-opacity:1.0;"
       offset="0.0"
       id="stop1" />
  </linearGradient>
<radialGradient
       inkscape:collect="always"
       xlink:href="#linearGradient4321"
       id="acyl_gradient"
       cx="50.0%"
       cy="50.0%"
       fx="50.0%"
       fy="50.0%"
       r="50.0%"
/>
<filter id="filter1111" x="-50%" y="-50%" width="200%" height="200%">
	<feImage
	id="feImage2"
	xlink:href="#1"
	result="result1" />
	<feComposite
	id="feComposite3633"
	in="result1"
	in2="SourceGraphic"
	operator="xor" />
</filter>
	<rect
	style="fill:#0088CC;fill-opacity:1.0;filter:url(#filter1111)"
	id="rect2835"
	width="48"
	height="48"
	x="0"
	y="0"
	rx="3.5"
	ry="3.5" />
	<rect
	style="fill:url(#acyl_gradient);filter:url(#filter1111)"
	id="rect2835"
	width="44"
	height="44"
	x="2"
	y="2"
	rx="3.5"
	ry="3.5" />
<defs>
<use id="1" transform="translate(22.5,22.5) scale(0.85) translate(-22.5,-22.5)" style="fill:#000000" xlink:href="#path-main" />
</defs>
	<use id="2" transform="translate(22.5,22.5) scale(0.85) translate(-22.5,-22.5)" style="fill:#0088CC;fill-opacity:1.0" xlink:href="#path-main" />
</acyl-settings>
</svg>
