<svg xmlns="http://www.w3.org/2000/svg" width="48" height="48">
<defs>
  <path
     d="M 22.379845,2 3.4983389,11.795442 12.817276,16.5403 22.379845,11.734297 22.379845,2 z m 3.24031,0 0,9.734297 9.562569,4.806003 9.318937,-4.73263 L 25.620155,2 z M 24,13.837688 l -10.09856,5.160644 0,10.321285 L 24,34.48027 l 10.09856,-5.160653 0,-10.321285 L 24,13.837688 z m -22,0.843801 0,18.747084 8.953488,-4.56143 0,-9.624231 L 2,14.681489 z m 44,0 -8.953488,4.561423 0,9.624231 L 46,33.428573 46,14.681489 z M 12.829457,31.569759 3.620155,36.2657 22.379845,46 l 0,-9.624233 -9.550388,-4.806008 z m 22.341086,0 -9.550388,4.806008 0,9.624233 18.771872,-9.746527 -9.221484,-4.683714 z"
     id="path-main"
      />
</defs>
<acyl-settings>
<linearGradient
     id="linearGradient4321">
    <stop
       style="stop-color:#161616;stop-opacity:1.0;"
       offset="0.0"
       id="stop1" />
  </linearGradient>
<radialGradient
       inkscape:collect="always"
       xlink:href="#linearGradient4321"
       id="acyl_gradient"
       cx="50.0%"
       cy="50.0%"
       fx="50.0%"
       fy="50.0%"
       r="50.0%"
/>
<filter id="filter1111" x="-50%" y="-50%" width="200%" height="200%">
	<feImage
	id="feImage2"
	xlink:href="#1"
	result="result1" />
	<feComposite
	id="feComposite3633"
	in="result1"
	in2="SourceGraphic"
	operator="xor" />
</filter>
	<rect
	style="fill:#0088CC;fill-opacity:1.0;filter:url(#filter1111)"
	id="rect2835"
	width="48"
	height="48"
	x="0"
	y="0"
	rx="3.5"
	ry="3.5" />
	<rect
	style="fill:url(#acyl_gradient);filter:url(#filter1111)"
	id="rect2835"
	width="44"
	height="44"
	x="2"
	y="2"
	rx="3.5"
	ry="3.5" />
<defs>
<use id="1" transform="translate(22.5,22.5) scale(0.85) translate(-22.5,-22.5)" style="fill:#000000" xlink:href="#path-main" />
</defs>
	<use id="2" transform="translate(22.5,22.5) scale(0.85) translate(-22.5,-22.5)" style="fill:#0088CC;fill-opacity:1.0" xlink:href="#path-main" />
</acyl-settings>
</svg>
