<svg xmlns="http://www.w3.org/2000/svg" width="48" height="48">
<defs>
  <path
     d="M 9 2 C 7.3316193 2 6 3.3484075 6 5.03125 L 6 42.96875 C 6 44.651592 7.3316193 46 9 46 L 39 46 C 40.66838 46 42 44.651592 42 42.96875 L 42 19.40625 L 24.75 2 L 9 2 z M 29.5 2 L 42 14.5625 L 42 5.03125 C 42 3.3484075 40.66838 2 39 2 L 29.5 2 z M 16.28125 14.3125 L 25.90625 14.3125 L 32.21875 21.5 L 32.21875 32.6875 L 16.28125 32.6875 L 16.28125 14.3125 z M 12 33.9375 L 36.53125 33.9375 L 36.53125 40.0625 L 12 40.0625 L 12 33.9375 z M 31.8125 37.125 L 31.8125 38.46875 L 34.6875 38.46875 L 34.6875 37.125 L 31.8125 37.125 z "
     id="path-main" />
</defs>
<acyl-settings>
<linearGradient
     id="linearGradient4321">
    <stop
       style="stop-color:#161616;stop-opacity:1.0;"
       offset="0.0"
       id="stop1" />
  </linearGradient>
<radialGradient
       inkscape:collect="always"
       xlink:href="#linearGradient4321"
       id="acyl_gradient"
       cx="50.0%"
       cy="50.0%"
       fx="50.0%"
       fy="50.0%"
       r="50.0%"
/>
<filter id="filter1111" x="-50%" y="-50%" width="200%" height="200%">
	<feImage
	id="feImage2"
	xlink:href="#1"
	result="result1" />
	<feComposite
	id="feComposite3633"
	in="result1"
	in2="SourceGraphic"
	operator="xor" />
</filter>
	<rect
	style="fill:#0088CC;fill-opacity:1.0;filter:url(#filter1111)"
	id="rect2835"
	width="48"
	height="48"
	x="0"
	y="0"
	rx="3.5"
	ry="3.5" />
	<rect
	style="fill:url(#acyl_gradient);filter:url(#filter1111)"
	id="rect2835"
	width="44"
	height="44"
	x="2"
	y="2"
	rx="3.5"
	ry="3.5" />
<defs>
<use id="1" transform="translate(22.5,22.5) scale(0.85) translate(-22.5,-22.5)" style="fill:#000000" xlink:href="#path-main" />
</defs>
	<use id="2" transform="translate(22.5,22.5) scale(0.85) translate(-22.5,-22.5)" style="fill:#0088CC;fill-opacity:1.0" xlink:href="#path-main" />
</acyl-settings>
</svg>
