<svg xmlns="http://www.w3.org/2000/svg" width="48" height="48">
<defs>
  <path
     d="M 9 2 C 7.3316193 2 6 3.3484075 6 5.03125 L 6 42.96875 C 6 44.651592 7.3316193 46 9 46 L 39 46 C 40.66838 46 42 44.651592 42 42.96875 L 42 19.40625 L 24.75 2 L 9 2 z M 29.5 2 L 42 14.5625 L 42 5.03125 C 42 3.3484075 40.66838 2 39 2 L 29.5 2 z M 11.84375 17.71875 L 35.84375 17.71875 L 35.84375 35.3125 L 24.46875 35.3125 L 29.5 38.1875 L 28.59375 39.71875 L 23.34375 36.71875 L 18.0625 39.71875 L 17.15625 38.1875 L 22.1875 35.3125 L 11.84375 35.3125 L 11.84375 17.71875 z M 14.8125 20.5625 L 14.8125 22.625 L 32.78125 22.625 L 32.78125 20.5625 L 14.8125 20.5625 z M 18.8125 24.5625 L 18.8125 26.5 L 23.75 26.5 L 23.75 24.5625 L 18.8125 24.5625 z M 24.71875 24.5625 L 24.71875 32.40625 L 32.75 32.40625 L 32.75 24.5625 L 24.71875 24.5625 z M 14.875 24.59375 L 14.875 26.53125 L 16.84375 26.53125 L 16.84375 24.59375 L 14.875 24.59375 z M 25.75 25.5 L 31.75 25.5 L 31.75 31.4375 L 25.75 31.4375 L 25.75 25.5 z M 14.875 27.46875 L 14.875 29.4375 L 16.84375 29.4375 L 16.84375 27.46875 L 14.875 27.46875 z M 18.8125 27.46875 L 18.8125 29.40625 L 23.75 29.40625 L 23.75 27.46875 L 18.8125 27.46875 z M 14.875 30.40625 L 14.875 32.375 L 16.84375 32.375 L 16.84375 30.40625 L 14.875 30.40625 z M 18.8125 30.40625 L 18.8125 32.375 L 23.75 32.375 L 23.75 30.40625 L 18.8125 30.40625 z "
     id="path-main" />
</defs>
<acyl-settings>
<linearGradient
     id="linearGradient4321">
    <stop
       style="stop-color:#161616;stop-opacity:1.0;"
       offset="0.0"
       id="stop1" />
  </linearGradient>
<radialGradient
       inkscape:collect="always"
       xlink:href="#linearGradient4321"
       id="acyl_gradient"
       cx="50.0%"
       cy="50.0%"
       fx="50.0%"
       fy="50.0%"
       r="50.0%"
/>
<filter id="filter1111" x="-50%" y="-50%" width="200%" height="200%">
	<feImage
	id="feImage2"
	xlink:href="#1"
	result="result1" />
	<feComposite
	id="feComposite3633"
	in="result1"
	in2="SourceGraphic"
	operator="xor" />
</filter>
	<rect
	style="fill:#0088CC;fill-opacity:1.0;filter:url(#filter1111)"
	id="rect2835"
	width="48"
	height="48"
	x="0"
	y="0"
	rx="3.5"
	ry="3.5" />
	<rect
	style="fill:url(#acyl_gradient);filter:url(#filter1111)"
	id="rect2835"
	width="44"
	height="44"
	x="2"
	y="2"
	rx="3.5"
	ry="3.5" />
<defs>
<use id="1" transform="translate(22.5,22.5) scale(0.85) translate(-22.5,-22.5)" style="fill:#000000" xlink:href="#path-main" />
</defs>
	<use id="2" transform="translate(22.5,22.5) scale(0.85) translate(-22.5,-22.5)" style="fill:#0088CC;fill-opacity:1.0" xlink:href="#path-main" />
</acyl-settings>
</svg>
