<svg xmlns="http://www.w3.org/2000/svg" width="48" height="48">
<defs>
  <path
     d="M 9 2 C 7.3316193 2 6 3.3484075 6 5.03125 L 6 42.96875 C 6 44.651592 7.3316193 46 9 46 L 39 46 C 40.66838 46 42 44.651592 42 42.96875 L 42 19.40625 L 24.75 2 L 9 2 z M 29.5 2 L 42 14.5625 L 42 5.03125 C 42 3.3484075 40.66838 2 39 2 L 29.5 2 z M 21.96875 17.75 L 35.90625 17.75 L 35.90625 27.8125 L 21.96875 27.8125 L 21.96875 17.75 z M 12.03125 17.8125 L 20.03125 17.8125 L 20.03125 19.8125 L 12.03125 19.8125 L 12.03125 17.8125 z M 12.03125 21.78125 L 20.03125 21.78125 L 20.03125 23.78125 L 12.03125 23.78125 L 12.03125 21.78125 z M 12.03125 25.75 L 20.03125 25.75 L 20.03125 27.75 L 12.03125 27.75 L 12.03125 25.75 z M 12.03125 29.71875 L 35.90625 29.71875 L 35.90625 31.71875 L 12.03125 31.71875 L 12.03125 29.71875 z M 12.03125 33.8125 L 35.90625 33.8125 L 35.90625 35.8125 L 12.03125 35.8125 L 12.03125 33.8125 z M 12.03125 37.78125 L 30.15625 37.78125 L 30.15625 39.78125 L 12.03125 39.78125 L 12.03125 37.78125 z "
     id="path-main" />
</defs>
<acyl-settings>
<linearGradient
     id="linearGradient4321">
    <stop
       style="stop-color:#161616;stop-opacity:1.0;"
       offset="0.0"
       id="stop1" />
  </linearGradient>
<radialGradient
       inkscape:collect="always"
       xlink:href="#linearGradient4321"
       id="acyl_gradient"
       cx="50.0%"
       cy="50.0%"
       fx="50.0%"
       fy="50.0%"
       r="50.0%"
/>
<filter id="filter1111" x="-50%" y="-50%" width="200%" height="200%">
	<feImage
	id="feImage2"
	xlink:href="#1"
	result="result1" />
	<feComposite
	id="feComposite3633"
	in="result1"
	in2="SourceGraphic"
	operator="xor" />
</filter>
	<rect
	style="fill:#0088CC;fill-opacity:1.0;filter:url(#filter1111)"
	id="rect2835"
	width="48"
	height="48"
	x="0"
	y="0"
	rx="3.5"
	ry="3.5" />
	<rect
	style="fill:url(#acyl_gradient);filter:url(#filter1111)"
	id="rect2835"
	width="44"
	height="44"
	x="2"
	y="2"
	rx="3.5"
	ry="3.5" />
<defs>
<use id="1" transform="translate(22.5,22.5) scale(0.85) translate(-22.5,-22.5)" style="fill:#000000" xlink:href="#path-main" />
</defs>
	<use id="2" transform="translate(22.5,22.5) scale(0.85) translate(-22.5,-22.5)" style="fill:#0088CC;fill-opacity:1.0" xlink:href="#path-main" />
</acyl-settings>
</svg>
