<svg xmlns="http://www.w3.org/2000/svg" width="48" height="48">
<defs>
  <path
     d="m 29.375092,12.681143 4.546045,8.114799 -6.182181,8.048914 5.589218,0.395308 3.568757,-4.985275 2.833042,5.424507 5.622161,0.395308 L 40.421762,21.334 46,13.834125 40.542551,13.460779 37.413028,18.2484 34.887446,13.065471 29.375092,12.681143 z M 6.7327176,14.899261 2,16.853841 8.2919888,32.183014 20.425754,27.197739 18.877464,23.420349 11.476416,26.462026 6.7327176,14.899261 z m 11.2223604,3.019716 3.909159,10.574494 -0.966309,6.830047 4.172697,0.867482 0.97729,-6.830047 6.599451,-8.389319 -4.600948,-0.955328 -3.513851,4.941353 -1.943599,-6.072373 -4.63389,-0.966309 z"
     id="path-main"
      />
</defs>
<acyl-settings>
<linearGradient
     id="linearGradient4321">
    <stop
       style="stop-color:#161616;stop-opacity:1.0;"
       offset="0.0"
       id="stop1" />
  </linearGradient>
<radialGradient
       inkscape:collect="always"
       xlink:href="#linearGradient4321"
       id="acyl_gradient"
       cx="50.0%"
       cy="50.0%"
       fx="50.0%"
       fy="50.0%"
       r="50.0%"
/>
<filter id="filter1111" x="-50%" y="-50%" width="200%" height="200%">
	<feImage
	id="feImage2"
	xlink:href="#1"
	result="result1" />
	<feComposite
	id="feComposite3633"
	in="result1"
	in2="SourceGraphic"
	operator="xor" />
</filter>
	<rect
	style="fill:#0088CC;fill-opacity:1.0;filter:url(#filter1111)"
	id="rect2835"
	width="48"
	height="48"
	x="0"
	y="0"
	rx="3.5"
	ry="3.5" />
	<rect
	style="fill:url(#acyl_gradient);filter:url(#filter1111)"
	id="rect2835"
	width="44"
	height="44"
	x="2"
	y="2"
	rx="3.5"
	ry="3.5" />
<defs>
<use id="1" transform="translate(22.5,22.5) scale(0.85) translate(-22.5,-22.5)" style="fill:#000000" xlink:href="#path-main" />
</defs>
	<use id="2" transform="translate(22.5,22.5) scale(0.85) translate(-22.5,-22.5)" style="fill:#0088CC;fill-opacity:1.0" xlink:href="#path-main" />
</acyl-settings>
</svg>
