<svg xmlns="http://www.w3.org/2000/svg" width="48" height="48">
<defs>
  <path
     d="m 25.330048,2 c 0,0 -10.343538,0.2553 -14.477277,5.3617 -4.1337382,5.1064 -4.8936172,7.0335 -8.2978725,7.2765 8.0243175,0 11.6717335,-4.857 17.0212775,-5.8297 l 0,37.1915 12.638298,0 c 6.322188,0 11.446808,-5.0821 11.446808,-11.4043 0,-6.3222 -6.378926,-7.4042 -10.085106,-7.4042 -3.706182,0 -8.246128,2.851 -8.246128,2.851 l 0,-28.0425 z m 4.616146,30.9804 c 3.782699,-0.7307 7.723734,0.02 7.680745,2.9441 -0.0344,2.3386 -3.052449,6.5556 -12.296891,5.352 l 0,-5.7263 c 0,0 0.833446,-1.839 4.616146,-2.5698 z"
     id="path-main" />
</defs>
<acyl-settings>
<linearGradient
     id="linearGradient4321">
    <stop
       style="stop-color:#161616;stop-opacity:1.0;"
       offset="0.0"
       id="stop1" />
  </linearGradient>
<radialGradient
       inkscape:collect="always"
       xlink:href="#linearGradient4321"
       id="acyl_gradient"
       cx="50.0%"
       cy="50.0%"
       fx="50.0%"
       fy="50.0%"
       r="50.0%"
/>
<filter id="filter1111" x="-50%" y="-50%" width="200%" height="200%">
	<feImage
	id="feImage2"
	xlink:href="#1"
	result="result1" />
	<feComposite
	id="feComposite3633"
	in="result1"
	in2="SourceGraphic"
	operator="xor" />
</filter>
	<rect
	style="fill:#0088CC;fill-opacity:1.0;filter:url(#filter1111)"
	id="rect2835"
	width="48"
	height="48"
	x="0"
	y="0"
	rx="3.5"
	ry="3.5" />
	<rect
	style="fill:url(#acyl_gradient);filter:url(#filter1111)"
	id="rect2835"
	width="44"
	height="44"
	x="2"
	y="2"
	rx="3.5"
	ry="3.5" />
<defs>
<use id="1" transform="translate(22.5,22.5) scale(0.85) translate(-22.5,-22.5)" style="fill:#000000" xlink:href="#path-main" />
</defs>
	<use id="2" transform="translate(22.5,22.5) scale(0.85) translate(-22.5,-22.5)" style="fill:#0088CC;fill-opacity:1.0" xlink:href="#path-main" />
</acyl-settings>
</svg>
