<svg xmlns="http://www.w3.org/2000/svg" width="48" height="48">
<defs>
<defs
     id="defs3463">
  </defs>
  <path
     d="M 24.018858,2.5143065 C 2.3553384,2.6987529 2.5440607,20.686604 2.5440607,20.686604 c 2.0721629,1.66002 7.5273063,-7.472898 9.9762253,-7.104005 3.00219,0.452235 0.739834,11.079972 2.623617,11.448864 1.261067,0.24695 3.879369,-3.951635 6.316117,-6.628289 l 0,18.901725 C 3.1787807,37.825012 2.5440607,45.487191 2.5440607,45.487191 L 45.299312,45.201762 c 0,0 -0.185573,-6.797759 -17.523175,-7.801718 l 0,-17.9503 c 1.977624,2.666596 4.166839,5.935714 4.793771,5.296292 2.260534,-2.305584 0.286372,-10.423132 2.170153,-12.083152 1.88378,-1.66002 9.2802,10.04647 10.170567,8.309148 C 45.800996,19.23471 45.682379,2.3298601 24.018858,2.5143065 z"
     id="path-main" />
</defs>
<acyl-settings>
<linearGradient
     id="linearGradient4321">
    <stop
       style="stop-color:#161616;stop-opacity:1.0;"
       offset="0.0"
       id="stop1" />
  </linearGradient>
<radialGradient
       inkscape:collect="always"
       xlink:href="#linearGradient4321"
       id="acyl_gradient"
       cx="50.0%"
       cy="50.0%"
       fx="50.0%"
       fy="50.0%"
       r="50.0%"
/>
<filter id="filter1111" x="-50%" y="-50%" width="200%" height="200%">
	<feImage
	id="feImage2"
	xlink:href="#1"
	result="result1" />
	<feComposite
	id="feComposite3633"
	in="result1"
	in2="SourceGraphic"
	operator="xor" />
</filter>
	<rect
	style="fill:#0088CC;fill-opacity:1.0;filter:url(#filter1111)"
	id="rect2835"
	width="48"
	height="48"
	x="0"
	y="0"
	rx="3.5"
	ry="3.5" />
	<rect
	style="fill:url(#acyl_gradient);filter:url(#filter1111)"
	id="rect2835"
	width="44"
	height="44"
	x="2"
	y="2"
	rx="3.5"
	ry="3.5" />
<defs>
<use id="1" transform="translate(22.5,22.5) scale(0.85) translate(-22.5,-22.5)" style="fill:#000000" xlink:href="#path-main" />
</defs>
	<use id="2" transform="translate(22.5,22.5) scale(0.85) translate(-22.5,-22.5)" style="fill:#0088CC;fill-opacity:1.0" xlink:href="#path-main" />
</acyl-settings>
</svg>
