<svg xmlns="http://www.w3.org/2000/svg" width="48" height="48">
<defs>
<defs
     id="defs4">
  </defs>
  <path
     id="path-main"
     d="M 29.510534,9.5456226 C 16.859112,9.660513 5.9414806,21.64262 2,33.337839 33.713774,55.347287 50.744349,30.185639 44.842677,15.58893 39.675031,11.271822 34.46109,9.5006638 29.510534,9.5456226 z M 15.182363,19.718846 c -4e-6,0 11.25149,0.03337 16.686534,0.03337 5.435041,0 4.861344,5.417558 4.861344,5.417558 l 0,9.758843 -4.894718,0 c 0,0 0,-9.17163 0,-10.2205 0,-1.861058 -3.398489,-2.251782 -3.398489,0 l 0,10.139848 -4.911404,0 c 0,0 -4e-6,-8.167661 0,-10.106478 0,-1.985713 -3.384588,-1.961251 -3.384588,0 l 0,10.106478 -4.958679,0 0,-15.129124 z" />
</defs>
<acyl-settings>
<linearGradient
     id="linearGradient4321">
    <stop
       style="stop-color:#161616;stop-opacity:1.0;"
       offset="0.0"
       id="stop1" />
  </linearGradient>
<radialGradient
       inkscape:collect="always"
       xlink:href="#linearGradient4321"
       id="acyl_gradient"
       cx="50.0%"
       cy="50.0%"
       fx="50.0%"
       fy="50.0%"
       r="50.0%"
/>
<filter id="filter1111" x="-50%" y="-50%" width="200%" height="200%">
	<feImage
	id="feImage2"
	xlink:href="#1"
	result="result1" />
	<feComposite
	id="feComposite3633"
	in="result1"
	in2="SourceGraphic"
	operator="xor" />
</filter>
	<rect
	style="fill:#0088CC;fill-opacity:1.0;filter:url(#filter1111)"
	id="rect2835"
	width="48"
	height="48"
	x="0"
	y="0"
	rx="3.5"
	ry="3.5" />
	<rect
	style="fill:url(#acyl_gradient);filter:url(#filter1111)"
	id="rect2835"
	width="44"
	height="44"
	x="2"
	y="2"
	rx="3.5"
	ry="3.5" />
<defs>
<use id="1" transform="translate(22.5,22.5) scale(0.85) translate(-22.5,-22.5)" style="fill:#000000" xlink:href="#path-main" />
</defs>
	<use id="2" transform="translate(22.5,22.5) scale(0.85) translate(-22.5,-22.5)" style="fill:#0088CC;fill-opacity:1.0" xlink:href="#path-main" />
</acyl-settings>
</svg>
