<svg xmlns="http://www.w3.org/2000/svg" width="48" height="48">
<defs>
<defs
     id="defs5">
  </defs>
  <path
     d="M 24,2 C 11.856001,2 2,11.856001 2,24 2,36.144 11.856,46.000002 24,46 36.143999,46 46,36.144 46,24 46,11.856 36.143999,2 24,2 z m 0,4.5833333 c 9.613998,2e-7 17.416667,7.8026677 17.416667,17.4166667 -10e-7,5.561681 -2.611921,10.503312 -6.67448,13.692708 L 32.364583,14.661458 28.783854,14.375 24.200521,32.278646 20.5625,14.460938 16.953125,14.546875 13.401042,37.807292 C 9.2560669,34.622596 6.5833333,29.627298 6.5833333,24 6.5833332,14.386002 14.386002,6.5833333 24,6.5833333 z m -4.984375,18.7057297 3.179687,15.583333 3.58073,0.08594 4.010416,-15.640625 1.460938,14.494792 C 29.039521,40.82562 26.586876,41.416667 24,41.416667 c -2.573228,0 -5.019925,-0.572453 -7.21875,-1.575521 l 2.234375,-14.552083 z"
     id="path-main"
      />
</defs>
<acyl-settings>
<linearGradient
     id="linearGradient4321">
    <stop
       style="stop-color:#161616;stop-opacity:1.0;"
       offset="0.0"
       id="stop1" />
  </linearGradient>
<radialGradient
       inkscape:collect="always"
       xlink:href="#linearGradient4321"
       id="acyl_gradient"
       cx="50.0%"
       cy="50.0%"
       fx="50.0%"
       fy="50.0%"
       r="50.0%"
/>
<filter id="filter1111" x="-50%" y="-50%" width="200%" height="200%">
	<feImage
	id="feImage2"
	xlink:href="#1"
	result="result1" />
	<feComposite
	id="feComposite3633"
	in="result1"
	in2="SourceGraphic"
	operator="xor" />
</filter>
	<rect
	style="fill:#0088CC;fill-opacity:1.0;filter:url(#filter1111)"
	id="rect2835"
	width="48"
	height="48"
	x="0"
	y="0"
	rx="3.5"
	ry="3.5" />
	<rect
	style="fill:url(#acyl_gradient);filter:url(#filter1111)"
	id="rect2835"
	width="44"
	height="44"
	x="2"
	y="2"
	rx="3.5"
	ry="3.5" />
<defs>
<use id="1" transform="translate(22.5,22.5) scale(0.85) translate(-22.5,-22.5)" style="fill:#000000" xlink:href="#path-main" />
</defs>
	<use id="2" transform="translate(22.5,22.5) scale(0.85) translate(-22.5,-22.5)" style="fill:#0088CC;fill-opacity:1.0" xlink:href="#path-main" />
</acyl-settings>
</svg>
