<svg xmlns="http://www.w3.org/2000/svg" width="48" height="48">
<defs>
<defs
     id="defs4291">
  </defs>
  <path
     id="path-main"
   d="m 37.910775,2.0348962 c -3.095212,0 -5.306079,1.8104254 -5.306079,4.771235 l 0,2.6024918 -0.884347,0 c -0.884346,0 -1.32652,0.4337486 -1.32652,1.301246 l 0,7.373725 c 0,0.425215 0.442174,1.301246 1.32652,1.301246 l 12.992828,0 c 0.714544,-0.0041 1.156718,-0.876032 1.156718,-1.301246 l 0,-7.373725 c 0,-0.8674974 -0.442174,-1.305347 -1.32652,-1.305347 l -0.884346,0.00411 0,-2.6024918 c 0,-3.0362466 -2.210866,-4.7712411 -5.30608,-4.7712411 l -0.442174,0 z m 0,2.1687431 0.442174,0 c 3.095214,0 3.095214,2.6024919 3.095214,3.4699892 l 0,1.7349945 -6.6326,0 0,-1.7349945 c 0,-0.8674973 0,-3.4699892 3.095212,-3.4699892 z" />
</defs>
<acyl-settings>
<linearGradient
     id="linearGradient4321">
    <stop
       style="stop-color:#161616;stop-opacity:1.0;"
       offset="0.0"
       id="stop1" />
  </linearGradient>
<radialGradient
       inkscape:collect="always"
       xlink:href="#linearGradient4321"
       id="acyl_gradient"
       cx="50.0%"
       cy="50.0%"
       fx="50.0%"
       fy="50.0%"
       r="50.0%"
/>
<filter id="filter1111" x="-50%" y="-50%" width="200%" height="200%">
	<feImage
	id="feImage2"
	xlink:href="#1"
	result="result1" />
	<feComposite
	id="feComposite3633"
	in="result1"
	in2="SourceGraphic"
	operator="xor" />
</filter>
	<rect
	style="fill:#0088CC;fill-opacity:1.0;filter:url(#filter1111)"
	id="rect2835"
	width="48"
	height="48"
	x="0"
	y="0"
	rx="3.5"
	ry="3.5" />
	<rect
	style="fill:url(#acyl_gradient);filter:url(#filter1111)"
	id="rect2835"
	width="44"
	height="44"
	x="2"
	y="2"
	rx="3.5"
	ry="3.5" />
<defs>
<use id="1" transform="translate(22.5,22.5) scale(0.85) translate(-22.5,-22.5)" style="fill:#000000" xlink:href="#path-main" />
</defs>
	<use id="2" transform="translate(22.5,22.5) scale(0.85) translate(-22.5,-22.5)" style="fill:#0088CC;fill-opacity:1.0" xlink:href="#path-main" />
</acyl-settings>
</svg>
