<svg xmlns="http://www.w3.org/2000/svg" width="48" height="48">
<defs>
<defs
     id="defs4291">
  </defs>
  <path
     id="path-main"
     d="m 35.493287,23.11117 c -4.074895,0 -6.985535,2.383453 -6.985535,6.281404 l 0,3.42622 -1.164256,0 c -1.164255,0 -1.746384,0.571038 -1.746384,1.713111 l 0,9.707622 c 0,0.559802 0.582129,1.71311 1.746384,1.71311 l 17.105257,0 c 0.940708,-0.0054 1.522837,-1.15331 1.522837,-1.71311 l 0,-9.707622 c 0,-1.142073 -0.582129,-1.71851 -1.746384,-1.71851 l -1.164255,0.0054 0,-3.426221 c 0,-3.997264 -2.910639,-6.281411 -6.985536,-6.281411 l -0.582128,0 z m 0,2.855183 0.582128,0 c 4.074897,0 4.074897,3.426221 4.074897,4.568295 l 0,2.284146 -8.73192,0 0,-2.284146 c 0,-1.142074 0,-4.568295 4.074895,-4.568295 z" />
</defs>
<acyl-settings>
<linearGradient
     id="linearGradient4321">
    <stop
       style="stop-color:#161616;stop-opacity:1.0;"
       offset="0.0"
       id="stop1" />
  </linearGradient>
<radialGradient
       inkscape:collect="always"
       xlink:href="#linearGradient4321"
       id="acyl_gradient"
       cx="50.0%"
       cy="50.0%"
       fx="50.0%"
       fy="50.0%"
       r="50.0%"
/>
<filter id="filter1111" x="-50%" y="-50%" width="200%" height="200%">
	<feImage
	id="feImage2"
	xlink:href="#1"
	result="result1" />
	<feComposite
	id="feComposite3633"
	in="result1"
	in2="SourceGraphic"
	operator="xor" />
</filter>
	<rect
	style="fill:#0088CC;fill-opacity:1.0;filter:url(#filter1111)"
	id="rect2835"
	width="48"
	height="48"
	x="0"
	y="0"
	rx="3.5"
	ry="3.5" />
	<rect
	style="fill:url(#acyl_gradient);filter:url(#filter1111)"
	id="rect2835"
	width="44"
	height="44"
	x="2"
	y="2"
	rx="3.5"
	ry="3.5" />
<defs>
<use id="1" transform="translate(22.5,22.5) scale(0.85) translate(-22.5,-22.5)" style="fill:#000000" xlink:href="#path-main" />
</defs>
	<use id="2" transform="translate(22.5,22.5) scale(0.85) translate(-22.5,-22.5)" style="fill:#0088CC;fill-opacity:1.0" xlink:href="#path-main" />
</acyl-settings>
</svg>
