<svg xmlns="http://www.w3.org/2000/svg" width="48" height="48">
<defs>
<defs
     id="defs4">
  </defs>
  <path
     d="m 2.5433962,2 0,44 42.5704998,0 C 40.111808,38.186347 42.367031,29.350086 43.970297,20.640676 40.372292,20.850998 30.382506,24.523529 26.387451,30.847303 20.283049,27.830199 13.093976,28.718972 4.2016158,33.677713 6.4307165,28.361683 18.710367,24.353952 24.700641,25.987005 26.044269,23.252389 33.37279,18.408575 43.970297,20.583496 45.149071,14.169375 45.970415,7.8309866 43.284137,2 L 2.5433962,2 z M 34.707139,14.693957 c 1.520663,-0.0068 3.229349,0.0824 5.146199,0.2859 -2.814277,0.006 -11.528238,2.071455 -15.467187,5.860949 -4.819162,-2.114579 -11.227659,-1.332474 -18.2975956,1.343729 4.5474926,-4.580469 10.6909476,-5.273702 17.2683556,-4.488629 1.647992,-1.219861 4.760688,-2.972332 11.350228,-3.001949 z"
     id="path-main"
      />
</defs>
<acyl-settings>
<linearGradient
     id="linearGradient4321">
    <stop
       style="stop-color:#161616;stop-opacity:1.0;"
       offset="0.0"
       id="stop1" />
  </linearGradient>
<radialGradient
       inkscape:collect="always"
       xlink:href="#linearGradient4321"
       id="acyl_gradient"
       cx="50.0%"
       cy="50.0%"
       fx="50.0%"
       fy="50.0%"
       r="50.0%"
/>
<filter id="filter1111" x="-50%" y="-50%" width="200%" height="200%">
	<feImage
	id="feImage2"
	xlink:href="#1"
	result="result1" />
	<feComposite
	id="feComposite3633"
	in="result1"
	in2="SourceGraphic"
	operator="xor" />
</filter>
	<rect
	style="fill:#0088CC;fill-opacity:1.0;filter:url(#filter1111)"
	id="rect2835"
	width="48"
	height="48"
	x="0"
	y="0"
	rx="3.5"
	ry="3.5" />
	<rect
	style="fill:url(#acyl_gradient);filter:url(#filter1111)"
	id="rect2835"
	width="44"
	height="44"
	x="2"
	y="2"
	rx="3.5"
	ry="3.5" />
<defs>
<use id="1" transform="translate(22.5,22.5) scale(0.85) translate(-22.5,-22.5)" style="fill:#000000" xlink:href="#path-main" />
</defs>
	<use id="2" transform="translate(22.5,22.5) scale(0.85) translate(-22.5,-22.5)" style="fill:#0088CC;fill-opacity:1.0" xlink:href="#path-main" />
</acyl-settings>
</svg>
