<svg xmlns="http://www.w3.org/2000/svg" width="48" height="48">
<defs>
<defs
     id="defs4">
  </defs>
  <path
     id="path-main"
     d="M 24,2 C 11.856001,2 2,11.856002 2,24 c 0,12.143999 9.856001,22 22,22 4.74375,0 9.12433,-1.510984 12.71875,-4.067708 l 3.924479,3.924479 5.213542,-5.213542 -3.924479,-3.924479 C 44.489016,33.12433 46,28.74375 46,24 46,11.856001 36.143998,2 24,2 z m 0,7.333333 c 8.095997,1e-6 14.666667,6.570669 14.666667,14.666667 1e-6,2.711092 -0.749686,5.239727 -2.033855,7.419271 l -8.335937,-8.335938 2.893229,-2.893229 2.75,-2.75 -5.213542,-5.213541 -2.75,2.749999 -5.5,5.5 -5.499999,5.5 -2.75,2.75 5.213541,5.213542 2.75,-2.75 2.893229,-2.893229 8.335938,8.335937 C 29.239727,37.916981 26.711092,38.666667 24,38.666667 15.904001,38.666666 9.3333333,32.095998 9.3333333,24 9.3333337,15.904003 15.904002,9.333333 24,9.333333 z" />
</defs>
<acyl-settings>
<linearGradient
     id="linearGradient4321">
    <stop
       style="stop-color:#161616;stop-opacity:1.0;"
       offset="0.0"
       id="stop1" />
  </linearGradient>
<radialGradient
       inkscape:collect="always"
       xlink:href="#linearGradient4321"
       id="acyl_gradient"
       cx="50.0%"
       cy="50.0%"
       fx="50.0%"
       fy="50.0%"
       r="50.0%"
/>
<filter id="filter1111" x="-50%" y="-50%" width="200%" height="200%">
	<feImage
	id="feImage2"
	xlink:href="#1"
	result="result1" />
	<feComposite
	id="feComposite3633"
	in="result1"
	in2="SourceGraphic"
	operator="xor" />
</filter>
	<rect
	style="fill:#0088CC;fill-opacity:1.0;filter:url(#filter1111)"
	id="rect2835"
	width="48"
	height="48"
	x="0"
	y="0"
	rx="3.5"
	ry="3.5" />
	<rect
	style="fill:url(#acyl_gradient);filter:url(#filter1111)"
	id="rect2835"
	width="44"
	height="44"
	x="2"
	y="2"
	rx="3.5"
	ry="3.5" />
<defs>
<use id="1" transform="translate(22.5,22.5) scale(0.85) translate(-22.5,-22.5)" style="fill:#000000" xlink:href="#path-main" />
</defs>
	<use id="2" transform="translate(22.5,22.5) scale(0.85) translate(-22.5,-22.5)" style="fill:#0088CC;fill-opacity:1.0" xlink:href="#path-main" />
</acyl-settings>
</svg>
