<svg xmlns="http://www.w3.org/2000/svg" width="48" height="48">
<defs>
<defs
     id="defs2162">
  </defs>
  <path
     id="path-main"
     d="M 22.159477,2 C 11.435739,2.8846059 2.8887391,11.43609 2,22.159477 l 6.4705882,0 C 9.3080788,14.986234 14.986234,9.308079 22.159477,8.470588 l 0,-6.470588 z m 3.681046,0 0,6.470588 c 7.173242,0.837491 12.851398,6.515646 13.688889,13.688889 l 6.470588,0 C 45.111261,11.43609 36.564262,2.884606 25.840523,2 z m -7.362092,12.797386 0,17.484967 15.644445,-8.224837 -15.644445,-9.26013 z M 2,25.840523 C 2.8887392,36.563911 11.435739,45.115394 22.159477,46 l 0,-6.470588 C 14.986233,38.691921 9.3080787,33.013766 8.4705882,25.840523 L 2,25.840523 z m 37.529412,0 C 38.69192,33.013767 33.013766,38.691921 25.840523,39.529412 l 0,6.470588 C 36.564261,45.115394 45.111261,36.56391 46,25.840523 l -6.470588,0 z" />
</defs>
<acyl-settings>
<linearGradient
     id="linearGradient4321">
    <stop
       style="stop-color:#161616;stop-opacity:1.0;"
       offset="0.0"
       id="stop1" />
  </linearGradient>
<radialGradient
       inkscape:collect="always"
       xlink:href="#linearGradient4321"
       id="acyl_gradient"
       cx="50.0%"
       cy="50.0%"
       fx="50.0%"
       fy="50.0%"
       r="50.0%"
/>
<filter id="filter1111" x="-50%" y="-50%" width="200%" height="200%">
	<feImage
	id="feImage2"
	xlink:href="#1"
	result="result1" />
	<feComposite
	id="feComposite3633"
	in="result1"
	in2="SourceGraphic"
	operator="xor" />
</filter>
	<rect
	style="fill:#0088CC;fill-opacity:1.0;filter:url(#filter1111)"
	id="rect2835"
	width="48"
	height="48"
	x="0"
	y="0"
	rx="3.5"
	ry="3.5" />
	<rect
	style="fill:url(#acyl_gradient);filter:url(#filter1111)"
	id="rect2835"
	width="44"
	height="44"
	x="2"
	y="2"
	rx="3.5"
	ry="3.5" />
<defs>
<use id="1" transform="translate(22.5,22.5) scale(0.85) translate(-22.5,-22.5)" style="fill:#000000" xlink:href="#path-main" />
</defs>
	<use id="2" transform="translate(22.5,22.5) scale(0.85) translate(-22.5,-22.5)" style="fill:#0088CC;fill-opacity:1.0" xlink:href="#path-main" />
</acyl-settings>
</svg>
