<svg xmlns="http://www.w3.org/2000/svg" width="48" height="48">
<defs>
<defs
     id="defs4">
  </defs>
  <path
     id="path-main"
     d="m 2,9.2867537 0,6.1588153 10.51144,0 0,25.434724 8.142665,0 -0.02961,-6.129206 -3.020188,0 0,-3.049798 3.020188,0 0.02961,-2.339165 -2.931359,0 0,-3.049798 2.931359,0 0,-6.514132 -1.95424,0 0,-3.049798 1.95424,0 0,-1.302827 10.48183,0 0,-1.983849 -2.783311,0 0,-3.049798 2.783311,0 0,-1.1251683 -29.135935,0 z m 35.679677,0.8882903 0,3.020189 3.049798,0 0,-3.020189 -3.049798,0 z m -22.592194,1.776582 3.049798,0 0,3.049798 -3.049798,0 0,-3.049798 z m 10.393002,5.152086 0,3.049798 3.049798,0 0,-3.049798 -3.049798,0 z m 5.981157,0.236878 0,3.049798 3.049798,0 0,-3.049798 -3.049798,0 z m 8.379542,2.161507 0,3.049798 3.049799,0 0,-3.049798 -3.049799,0 z m -18.535666,0.355316 0,3.049798 3.049798,0 0,-3.049798 -3.049798,0 z m 4.885599,0.829072 0,3.049798 3.049798,0 0,-3.049798 -3.049798,0 z m -12.080754,0.473755 3.049799,0 0,3.049798 -3.049799,0 0,-3.049798 z m 16.522208,0.858681 0,3.020188 3.049798,0 0,-3.020188 -3.049798,0 z m -4.79677,4.056527 0,3.049798 3.049798,0 0,-3.049798 -3.049798,0 z m -4.76716,0.355316 0,3.049799 3.049798,0 0,-3.049799 -3.049798,0 z m 14.242261,0.473756 0,3.049798 3.020188,0 0,-3.049798 -3.020188,0 z m -3.790041,4.174966 0,3.020188 3.049798,0 0,-3.020188 -3.049798,0 z m -8.794078,0.97712 0,3.049798 3.049798,0 0,-3.049798 -3.049798,0 z m 20.223419,5.152086 0,3.049798 3.049798,0 0,-3.049798 -3.049798,0 z m -16.492598,0.118439 0,3.049798 3.020189,0 0,-3.049798 -3.020189,0 z m -4.79677,0.829071 0,3.049798 3.049799,0 0,-3.049798 -3.049799,0 z" />
</defs>
<acyl-settings>
<linearGradient
     id="linearGradient4321">
    <stop
       style="stop-color:#161616;stop-opacity:1.0;"
       offset="0.0"
       id="stop1" />
  </linearGradient>
<radialGradient
       inkscape:collect="always"
       xlink:href="#linearGradient4321"
       id="acyl_gradient"
       cx="50.0%"
       cy="50.0%"
       fx="50.0%"
       fy="50.0%"
       r="50.0%"
/>
<filter id="filter1111" x="-50%" y="-50%" width="200%" height="200%">
	<feImage
	id="feImage2"
	xlink:href="#1"
	result="result1" />
	<feComposite
	id="feComposite3633"
	in="result1"
	in2="SourceGraphic"
	operator="xor" />
</filter>
	<rect
	style="fill:#0088CC;fill-opacity:1.0;filter:url(#filter1111)"
	id="rect2835"
	width="48"
	height="48"
	x="0"
	y="0"
	rx="3.5"
	ry="3.5" />
	<rect
	style="fill:url(#acyl_gradient);filter:url(#filter1111)"
	id="rect2835"
	width="44"
	height="44"
	x="2"
	y="2"
	rx="3.5"
	ry="3.5" />
<defs>
<use id="1" transform="translate(22.5,22.5) scale(0.85) translate(-22.5,-22.5)" style="fill:#000000" xlink:href="#path-main" />
</defs>
	<use id="2" transform="translate(22.5,22.5) scale(0.85) translate(-22.5,-22.5)" style="fill:#0088CC;fill-opacity:1.0" xlink:href="#path-main" />
</acyl-settings>
</svg>
