<svg xmlns="http://www.w3.org/2000/svg" width="48" height="48">
<defs>
  <path
     d="m 7.2727273,2 0,44 32.8866047,0 0,-44 -32.8866047,0 z m 8.6185567,3.402063 4.536084,0 0,4.536083 -4.536084,0 0,-4.536083 z m 5.443303,0 4.536083,0 0,4.536083 -4.536083,0 0,-4.536083 z m 5.443302,0 4.536084,0 0,4.536083 -4.536084,0 0,-4.536083 z m -16.329901,5.443302 4.536083,0 0,4.536083 -4.536083,0 0,-4.536083 z m 21.773198,0 4.536083,0 0,4.536083 -4.536083,0 0,-4.536083 z m -16.329902,5.443297 4.536084,0 0,4.536083 -4.536084,0 0,-4.536083 z m 5.443303,0 4.536083,0 0,4.536083 -4.536083,0 0,-4.536083 z m 5.443302,0 4.536084,0 0,4.536083 -4.536084,0 0,-4.536083 z m -5.443302,5.443302 4.536083,0 0,4.536083 -4.536083,0 0,-4.536083 z m 0,5.443302 4.536083,0 0,4.536084 -4.536083,0 0,-4.536084 z m 0,5.443297 4.536083,0 0,4.536078 -4.536083,0 0,-4.536078 z m -5.443303,5.443291 4.536084,0 0,4.536083 -4.536084,0 0,-4.536083 z m 5.443303,0 4.536083,0 0,4.536083 -4.536083,0 0,-4.536083 z"
     id="path-main"/>
</defs>
<acyl-settings>
<linearGradient
     id="linearGradient4321">
    <stop
       style="stop-color:#161616;stop-opacity:1.0;"
       offset="0.0"
       id="stop1" />
  </linearGradient>
<radialGradient
       inkscape:collect="always"
       xlink:href="#linearGradient4321"
       id="acyl_gradient"
       cx="50.0%"
       cy="50.0%"
       fx="50.0%"
       fy="50.0%"
       r="50.0%"
/>
<filter id="filter1111" x="-50%" y="-50%" width="200%" height="200%">
	<feImage
	id="feImage2"
	xlink:href="#1"
	result="result1" />
	<feComposite
	id="feComposite3633"
	in="result1"
	in2="SourceGraphic"
	operator="xor" />
</filter>
	<rect
	style="fill:#0088CC;fill-opacity:1.0;filter:url(#filter1111)"
	id="rect2835"
	width="48"
	height="48"
	x="0"
	y="0"
	rx="3.5"
	ry="3.5" />
	<rect
	style="fill:url(#acyl_gradient);filter:url(#filter1111)"
	id="rect2835"
	width="44"
	height="44"
	x="2"
	y="2"
	rx="3.5"
	ry="3.5" />
<defs>
<use id="1" transform="translate(22.5,22.5) scale(0.85) translate(-22.5,-22.5)" style="fill:#000000" xlink:href="#path-main" />
</defs>
	<use id="2" transform="translate(22.5,22.5) scale(0.85) translate(-22.5,-22.5)" style="fill:#0088CC;fill-opacity:1.0" xlink:href="#path-main" />
</acyl-settings>
</svg>
