<svg xmlns="http://www.w3.org/2000/svg" width="48" height="48">
<defs>
  <path
     d="M 5.661547,3.5 C 3.6219924,3.5 2,5.145009 2,7.182635 L 2,40.81737 C 2,42.85499 3.6219924,44.5 5.661547,44.5 l 36.652332,0 C 44.353434,44.5 46,42.85499 46,40.81737 L 46,7.182635 C 46,5.145009 44.353434,3.5 42.313879,3.5 l -36.652332,0 z m 0.172019,9.820359 4.914828,0 0,6.309581 -4.914828,0 0,-6.309581 z m 7.863725,0 25.409662,0 3.034907,0 0,6.309581 -3.034907,0 -25.409662,0 0,-6.309581 z m -7.863725,8.813773 4.914828,0 0,5.082036 -4.914828,0 0,-5.082036 z m 7.863725,0 26.282044,0 2.162525,0 0,5.082036 -2.162525,0 -26.282044,0 0,-5.082036 z m -7.863725,7.586228 4.914828,0 0,4.02635 -4.914828,0 0,-4.02635 z m 7.863725,0 26.110025,0 2.334544,0 0,4.02635 -2.334544,0 -26.110025,0 0,-4.02635 z m -7.863725,6.55509 4.914828,0 0,4.02635 -4.914828,0 0,-4.02635 z m 7.863725,0 3.366658,0 1.523596,0 23.554315,0 0,4.02635 -23.554315,0 -1.523596,0 -3.366658,0 0,-4.02635 z"
     id="path-main"
      />
</defs>
<acyl-settings>
<linearGradient
     id="linearGradient4321">
    <stop
       style="stop-color:#161616;stop-opacity:1.0;"
       offset="0.0"
       id="stop1" />
  </linearGradient>
<radialGradient
       inkscape:collect="always"
       xlink:href="#linearGradient4321"
       id="acyl_gradient"
       cx="50.0%"
       cy="50.0%"
       fx="50.0%"
       fy="50.0%"
       r="50.0%"
/>
<filter id="filter1111" x="-50%" y="-50%" width="200%" height="200%">
	<feImage
	id="feImage2"
	xlink:href="#1"
	result="result1" />
	<feComposite
	id="feComposite3633"
	in="result1"
	in2="SourceGraphic"
	operator="xor" />
</filter>
	<rect
	style="fill:#0088CC;fill-opacity:1.0;filter:url(#filter1111)"
	id="rect2835"
	width="48"
	height="48"
	x="0"
	y="0"
	rx="3.5"
	ry="3.5" />
	<rect
	style="fill:url(#acyl_gradient);filter:url(#filter1111)"
	id="rect2835"
	width="44"
	height="44"
	x="2"
	y="2"
	rx="3.5"
	ry="3.5" />
<defs>
<use id="1" transform="translate(22.5,22.5) scale(0.85) translate(-22.5,-22.5)" style="fill:#000000" xlink:href="#path-main" />
</defs>
	<use id="2" transform="translate(22.5,22.5) scale(0.85) translate(-22.5,-22.5)" style="fill:#0088CC;fill-opacity:1.0" xlink:href="#path-main" />
</acyl-settings>
</svg>
