<svg xmlns="http://www.w3.org/2000/svg" width="48" height="48">
<defs>
  <path
     d="M 13.784144,2 C 11.422498,2 9.522,3.900497 9.522,6.262144 l 0,35.475716 C 9.522,44.09951 11.422498,46 13.784144,46 l 20.70365,0 c 2.361646,0 4.262146,-1.90049 4.262146,-4.26214 l 0,-35.475716 C 38.74994,3.900497 36.84944,2 34.487794,2 l -20.70365,0 z m 0.442656,2.592699 19.818338,0 c 1.116679,0 2.010923,0.894243 2.010923,2.010922 l 0,29.569419 c 0,1.11668 -0.894244,2.01092 -2.010923,2.01092 l -19.818338,0 c -1.11668,0 -2.010922,-0.89424 -2.010922,-2.01092 l 0,-29.569419 c 0,-1.116679 0.894242,-2.010922 2.010922,-2.010922 z m 1.492383,35.602181 c 1.026538,0 1.859155,0.83262 1.859155,1.85916 0,1.02654 -0.832617,1.85916 -1.859155,1.85916 -1.026538,0 -1.859155,-0.83262 -1.859155,-1.85916 0,-1.02654 0.832617,-1.85916 1.859155,-1.85916 z m 5.615407,0 c 1.026537,0 1.859154,0.83262 1.859154,1.85916 0,1.02654 -0.832617,1.85916 -1.859154,1.85916 -1.026538,0 -1.859156,-0.83262 -1.859156,-1.85916 0,-1.02654 0.832618,-1.85916 1.859156,-1.85916 z m 5.615406,0 c 1.026538,0 1.859155,0.83262 1.859155,1.85916 0,1.02654 -0.832617,1.85916 -1.859155,1.85916 -1.026537,0 -1.859155,-0.83262 -1.859155,-1.85916 0,-1.02654 0.832618,-1.85916 1.859155,-1.85916 z m 5.615407,0 c 1.026537,0 1.859154,0.83262 1.859154,1.85916 0,1.02654 -0.832617,1.85916 -1.859154,1.85916 -1.026538,0 -1.859155,-0.83262 -1.859155,-1.85916 0,-1.02654 0.832617,-1.85916 1.859155,-1.85916 z"
     id="path-main"
      />
</defs>
<acyl-settings>
<linearGradient
     id="linearGradient4321">
    <stop
       style="stop-color:#161616;stop-opacity:1.0;"
       offset="0.0"
       id="stop1" />
  </linearGradient>
<radialGradient
       inkscape:collect="always"
       xlink:href="#linearGradient4321"
       id="acyl_gradient"
       cx="50.0%"
       cy="50.0%"
       fx="50.0%"
       fy="50.0%"
       r="50.0%"
/>
<filter id="filter1111" x="-50%" y="-50%" width="200%" height="200%">
	<feImage
	id="feImage2"
	xlink:href="#1"
	result="result1" />
	<feComposite
	id="feComposite3633"
	in="result1"
	in2="SourceGraphic"
	operator="xor" />
</filter>
	<rect
	style="fill:#0088CC;fill-opacity:1.0;filter:url(#filter1111)"
	id="rect2835"
	width="48"
	height="48"
	x="0"
	y="0"
	rx="3.5"
	ry="3.5" />
	<rect
	style="fill:url(#acyl_gradient);filter:url(#filter1111)"
	id="rect2835"
	width="44"
	height="44"
	x="2"
	y="2"
	rx="3.5"
	ry="3.5" />
<defs>
<use id="1" transform="translate(22.5,22.5) scale(0.85) translate(-22.5,-22.5)" style="fill:#000000" xlink:href="#path-main" />
</defs>
	<use id="2" transform="translate(22.5,22.5) scale(0.85) translate(-22.5,-22.5)" style="fill:#0088CC;fill-opacity:1.0" xlink:href="#path-main" />
</acyl-settings>
</svg>
