<svg xmlns="http://www.w3.org/2000/svg" width="48" height="48">
<defs>
<defs
     id="defs3">
  </defs>
  <path
     d="M 24.200521,2 C 14.510172,2 6.7218087,10.165659 6.2395833,20.304688 3.7690977,21.423429 2,23.917247 2,26.950521 l 0,11.544271 c -1e-7,4.026083 3.0079334,7.41927 6.8463542,7.419271 3.8384268,1e-6 6.8463548,-3.385815 6.8463538,-7.419271 l 0,-11.544271 c 0,-2.623508 -1.33463,-4.850087 -3.265625,-6.158854 0.187406,-6.902706 5.413811,-12.375 11.830729,-12.375 6.353121,10e-7 11.572593,5.372121 11.859375,12.174479 -2.236531,1.220333 -3.809895,3.617 -3.809895,6.473958 l 0,11.544271 c 0,4.033459 3.016831,7.390627 6.846354,7.390625 3.829522,-10e-7 6.846351,-3.364544 6.846354,-7.390625 l 0,-11.544271 c 10e-7,-2.865212 -1.548433,-5.307551 -3.809896,-6.53125 C 41.818198,10.287557 33.964373,2 24.200521,2 z"
     id="path-main"
      />
</defs>
<acyl-settings>
<linearGradient
     id="linearGradient4321">
    <stop
       style="stop-color:#161616;stop-opacity:1.0;"
       offset="0.0"
       id="stop1" />
  </linearGradient>
<radialGradient
       inkscape:collect="always"
       xlink:href="#linearGradient4321"
       id="acyl_gradient"
       cx="50.0%"
       cy="50.0%"
       fx="50.0%"
       fy="50.0%"
       r="50.0%"
/>
<filter id="filter1111" x="-50%" y="-50%" width="200%" height="200%">
	<feImage
	id="feImage2"
	xlink:href="#1"
	result="result1" />
	<feComposite
	id="feComposite3633"
	in="result1"
	in2="SourceGraphic"
	operator="xor" />
</filter>
	<rect
	style="fill:#0088CC;fill-opacity:1.0;filter:url(#filter1111)"
	id="rect2835"
	width="48"
	height="48"
	x="0"
	y="0"
	rx="3.5"
	ry="3.5" />
	<rect
	style="fill:url(#acyl_gradient);filter:url(#filter1111)"
	id="rect2835"
	width="44"
	height="44"
	x="2"
	y="2"
	rx="3.5"
	ry="3.5" />
<defs>
<use id="1" transform="translate(22.5,22.5) scale(0.85) translate(-22.5,-22.5)" style="fill:#000000" xlink:href="#path-main" />
</defs>
	<use id="2" transform="translate(22.5,22.5) scale(0.85) translate(-22.5,-22.5)" style="fill:#0088CC;fill-opacity:1.0" xlink:href="#path-main" />
</acyl-settings>
</svg>
