<svg xmlns="http://www.w3.org/2000/svg" width="48" height="48">
<defs>
<defs
   id="defs19">
</defs>
<path
   
   id="path-main"
   d="m 18.714653,31.491892 -0.118919,-1.664865 c -0.118919,-3.210811 0.832433,-6.540541 3.686487,-9.87027 2.021621,-2.378379 3.686486,-4.518919 3.686486,-6.65946 0,-2.14054 -1.427027,-3.686486 -4.518919,-3.686486 -2.14054,0 -4.637837,0.713513 -6.302702,1.783783 L 13.006545,4.6162161 c 2.25946,-1.3081081 6.064865,-2.6162163 10.583784,-2.6162163 8.324324,0 12.12973,4.6378379 12.12973,9.7513512 0,4.875676 -3.091892,7.967568 -5.470271,10.702703 -2.259459,2.497297 -3.329729,4.994594 -3.21081,7.848649 l 0,1.189189 -8.324325,0 0,0 z M 22.638978,46 c -3.32973,0 -5.58919,-2.497297 -5.58919,-5.708108 0,-3.448649 2.378379,-5.708108 5.58919,-5.708108 3.448648,0 5.589189,2.378378 5.708108,5.708108 0,3.329729 -2.25946,5.708108 -5.589189,5.708108 l -0.118919,0 z" />
</defs>
<acyl-settings>
<linearGradient
     id="linearGradient4321">
    <stop
       style="stop-color:#161616;stop-opacity:1.0;"
       offset="0.0"
       id="stop1" />
  </linearGradient>
<radialGradient
       inkscape:collect="always"
       xlink:href="#linearGradient4321"
       id="acyl_gradient"
       cx="50.0%"
       cy="50.0%"
       fx="50.0%"
       fy="50.0%"
       r="50.0%"
/>
<filter id="filter1111" x="-50%" y="-50%" width="200%" height="200%">
	<feImage
	id="feImage2"
	xlink:href="#1"
	result="result1" />
	<feComposite
	id="feComposite3633"
	in="result1"
	in2="SourceGraphic"
	operator="xor" />
</filter>
	<rect
	style="fill:#0088CC;fill-opacity:1.0;filter:url(#filter1111)"
	id="rect2835"
	width="48"
	height="48"
	x="0"
	y="0"
	rx="3.5"
	ry="3.5" />
	<rect
	style="fill:url(#acyl_gradient);filter:url(#filter1111)"
	id="rect2835"
	width="44"
	height="44"
	x="2"
	y="2"
	rx="3.5"
	ry="3.5" />
<defs>
<use id="1" transform="translate(22.5,22.5) scale(0.85) translate(-22.5,-22.5)" style="fill:#000000" xlink:href="#path-main" />
</defs>
	<use id="2" transform="translate(22.5,22.5) scale(0.85) translate(-22.5,-22.5)" style="fill:#0088CC;fill-opacity:1.0" xlink:href="#path-main" />
</acyl-settings>
</svg>
