<svg xmlns="http://www.w3.org/2000/svg" width="48" height="48">
<defs>
<defs
     id="defs3">
  </defs>
  <path
     id="path-main"
     d="m 2.5729167,15.367187 -0.085937,4.583334 6.7317708,0 L 2,29.231771 l 0,1.776041 13.348958,0 0,-4.583333 -5.5572913,0 5.4427083,-7.132812 0.08594,-3.92448 -12.7473963,0 z m 19.3359373,2.721355 -0.08594,4.067708 5.270833,0 -5.643229,7.276042 0,1.661458 11.143229,0 0,-4.067708 -4.325521,0 4.210938,-5.528646 0.08594,-3.408854 -10.65625,0 z m 16.041667,2.835937 -0.05729,3.408854 3.494792,0 -3.752604,5.127604 0,1.51823 8.364583,0 0,-3.78125 -2.75,0 2.692708,-3.523438 0.05729,-2.75 -8.049479,0 z" />
</defs>
<acyl-settings>
<linearGradient
     id="linearGradient4321">
    <stop
       style="stop-color:#161616;stop-opacity:1.0;"
       offset="0.0"
       id="stop1" />
  </linearGradient>
<radialGradient
       inkscape:collect="always"
       xlink:href="#linearGradient4321"
       id="acyl_gradient"
       cx="50.0%"
       cy="50.0%"
       fx="50.0%"
       fy="50.0%"
       r="50.0%"
/>
<filter id="filter1111" x="-50%" y="-50%" width="200%" height="200%">
	<feImage
	id="feImage2"
	xlink:href="#1"
	result="result1" />
	<feComposite
	id="feComposite3633"
	in="result1"
	in2="SourceGraphic"
	operator="xor" />
</filter>
	<rect
	style="fill:#0088CC;fill-opacity:1.0;filter:url(#filter1111)"
	id="rect2835"
	width="48"
	height="48"
	x="0"
	y="0"
	rx="3.5"
	ry="3.5" />
	<rect
	style="fill:url(#acyl_gradient);filter:url(#filter1111)"
	id="rect2835"
	width="44"
	height="44"
	x="2"
	y="2"
	rx="3.5"
	ry="3.5" />
<defs>
<use id="1" transform="translate(22.5,22.5) scale(0.85) translate(-22.5,-22.5)" style="fill:#000000" xlink:href="#path-main" />
</defs>
	<use id="2" transform="translate(22.5,22.5) scale(0.85) translate(-22.5,-22.5)" style="fill:#0088CC;fill-opacity:1.0" xlink:href="#path-main" />
</acyl-settings>
</svg>
