<svg xmlns="http://www.w3.org/2000/svg" width="48" height="48">
<defs>
  <path
     id="path-main"
     d="m 24.413723,2.0004002 c -5.678566,-0.048081 -11.021031,4.2409916 -12.069202,9.6248068 -1.048172,5.383815 1.79407,10.432019 7.104024,12.374751 l 0,14.666372 c 0,4.888791 2.762355,7.373565 4.88879,7.333186 2.126436,-0.04038 4.888791,-2.444395 4.888791,-7.333186 l 4.888791,-2.444395 -7.333186,-2.444396 7.333186,-4.88879 -4.888791,-2.444396 0,-2.444395 c 5.34448,-1.852512 8.130472,-6.744852 7.180411,-12.145589 C 35.456477,6.4536313 30.092288,2.0484839 24.413723,2.0004002 z m 0,7.2567985 c 1.42935,0 2.520783,1.0914273 2.520783,2.5207833 0,1.429355 -1.091433,2.520782 -2.520783,2.520782 -1.429351,0 -2.520783,-1.091427 -2.520783,-2.520782 0,-1.429356 1.091432,-2.5207833 2.520783,-2.5207833 z m 0,2.4443953 c 0.05334,0 -0.07639,0.129724 -0.07639,0.07639 0,-0.05334 0.129725,0.07639 0.07639,0.07639 -0.05334,0 0.07639,-0.129724 0.07639,-0.07639 0,0.05334 -0.129724,-0.07639 -0.07639,-0.07639 z" />
</defs>
<acyl-settings>
<linearGradient
     id="linearGradient4321">
    <stop
       style="stop-color:#161616;stop-opacity:1.0;"
       offset="0.0"
       id="stop1" />
  </linearGradient>
<radialGradient
       inkscape:collect="always"
       xlink:href="#linearGradient4321"
       id="acyl_gradient"
       cx="50.0%"
       cy="50.0%"
       fx="50.0%"
       fy="50.0%"
       r="50.0%"
/>
<filter id="filter1111" x="-50%" y="-50%" width="200%" height="200%">
	<feImage
	id="feImage2"
	xlink:href="#1"
	result="result1" />
	<feComposite
	id="feComposite3633"
	in="result1"
	in2="SourceGraphic"
	operator="xor" />
</filter>
	<rect
	style="fill:#0088CC;fill-opacity:1.0;filter:url(#filter1111)"
	id="rect2835"
	width="48"
	height="48"
	x="0"
	y="0"
	rx="3.5"
	ry="3.5" />
	<rect
	style="fill:url(#acyl_gradient);filter:url(#filter1111)"
	id="rect2835"
	width="44"
	height="44"
	x="2"
	y="2"
	rx="3.5"
	ry="3.5" />
<defs>
<use id="1" transform="translate(22.5,22.5) scale(0.85) translate(-22.5,-22.5)" style="fill:#000000" xlink:href="#path-main" />
</defs>
	<use id="2" transform="translate(22.5,22.5) scale(0.85) translate(-22.5,-22.5)" style="fill:#0088CC;fill-opacity:1.0" xlink:href="#path-main" />
</acyl-settings>
</svg>
