<svg xmlns="http://www.w3.org/2000/svg" width="48" height="48">
<defs>
  <path
     d="M 34.265625,14.666667 4.5520833,14.727431 C 3.3671268,14.727431 2,16.202291 2,17.279514 L 2,35.326389 C 2,36.747734 3.5636023,38 4.8559028,38 L 34.083333,38 C 35.633726,38 37,36.684083 37,35.326389 l 0,-17.80382 c 0,-1.507993 -1.334371,-2.855902 -2.734375,-2.855902 z m -28.6805556,2.491319 13.3072916,13.307292 1.154514,0 13.368056,-13.307292 1.336804,1.336806 -7.960068,8.081597 6.015625,6.137152 -1.336806,1.336806 -6.137153,-6.137153 -4.435764,4.496528 -2.795138,0 L 13.666666,27.913194 7.5295139,34.11111 6.1927083,32.713541 12.269097,26.576389 4.2482639,18.494792 5.5850694,17.157986 z"
     id="path-main" />
</defs>
<acyl-settings>
<linearGradient
     id="linearGradient4321">
    <stop
       style="stop-color:#161616;stop-opacity:1.0;"
       offset="0.0"
       id="stop1" />
  </linearGradient>
<radialGradient
       inkscape:collect="always"
       xlink:href="#linearGradient4321"
       id="acyl_gradient"
       cx="50.0%"
       cy="50.0%"
       fx="50.0%"
       fy="50.0%"
       r="50.0%"
/>
<filter id="filter1111" x="-50%" y="-50%" width="200%" height="200%">
	<feImage
	id="feImage2"
	xlink:href="#1"
	result="result1" />
	<feComposite
	id="feComposite3633"
	in="result1"
	in2="SourceGraphic"
	operator="xor" />
</filter>
	<rect
	style="fill:#0088CC;fill-opacity:1.0;filter:url(#filter1111)"
	id="rect2835"
	width="48"
	height="48"
	x="0"
	y="0"
	rx="3.5"
	ry="3.5" />
	<rect
	style="fill:url(#acyl_gradient);filter:url(#filter1111)"
	id="rect2835"
	width="44"
	height="44"
	x="2"
	y="2"
	rx="3.5"
	ry="3.5" />
<defs>
<use id="1" transform="translate(22.5,22.5) scale(0.85) translate(-22.5,-22.5)" style="fill:#000000" xlink:href="#path-main" />
</defs>
	<use id="2" transform="translate(22.5,22.5) scale(0.85) translate(-22.5,-22.5)" style="fill:#0088CC;fill-opacity:1.0" xlink:href="#path-main" />
</acyl-settings>
</svg>
