<svg xmlns="http://www.w3.org/2000/svg" width="48" height="48">
<defs>
<defs
     id="defs7856" />
  <g
     id="layer1">
    <path
       d="M 36.34375,11.3125 L 36.34375,12.28125 L 36.34375,14.78125 L 30.5,14.78125 L 30.34375,14.78125 L 30.1875,14.875 L 21.5,21.625 L 12.8125,14.875 L 12.65625,14.78125 L 12.5,14.78125 L 4.09375,14.78125 L 3.59375,14.78125 L 3.59375,15.28125 L 3.59375,19.28125 L 3.59375,19.78125 L 4.09375,19.78125 L 12.3125,19.78125 L 18.09375,24.28125 L 12.3125,28.78125 L 4.09375,28.78125 L 3.59375,28.78125 L 3.59375,29.28125 L 3.59375,33.28125 L 3.59375,33.78125 L 4.09375,33.78125 L 12.5,33.78125 L 12.65625,33.78125 L 12.8125,33.6875 L 21.5,26.9375 L 30.1875,33.6875 L 30.34375,33.78125 L 30.5,33.78125 L 36.34375,33.78125 L 36.34375,36.28125 L 36.34375,37.25 L 37.125,36.6875 L 44.125,31.6875 L 44.6875,31.28125 L 44.125,30.875 L 37.125,25.875 L 36.34375,25.3125 L 36.34375,26.28125 L 36.34375,28.78125 L 30.6875,28.78125 L 24.90625,24.28125 L 30.6875,19.78125 L 36.34375,19.78125 L 36.34375,22.28125 L 36.34375,23.25 L 37.125,22.6875 L 44.125,17.6875 L 44.6875,17.28125 L 44.125,16.875 L 37.125,11.875 L 36.34375,11.3125 z"
       id="path-main"
        />
  </g>
</defs>
<acyl-settings>
<linearGradient
     id="linearGradient4321">
    <stop
       style="stop-color:#161616;stop-opacity:1.0;"
       offset="0.0"
       id="stop1" />
  </linearGradient>
<radialGradient
       inkscape:collect="always"
       xlink:href="#linearGradient4321"
       id="acyl_gradient"
       cx="50.0%"
       cy="50.0%"
       fx="50.0%"
       fy="50.0%"
       r="50.0%"
/>
<filter id="filter1111" x="-50%" y="-50%" width="200%" height="200%">
	<feImage
	id="feImage2"
	xlink:href="#1"
	result="result1" />
	<feComposite
	id="feComposite3633"
	in="result1"
	in2="SourceGraphic"
	operator="xor" />
</filter>
	<rect
	style="fill:#0088CC;fill-opacity:1.0;filter:url(#filter1111)"
	id="rect2835"
	width="48"
	height="48"
	x="0"
	y="0"
	rx="3.5"
	ry="3.5" />
	<rect
	style="fill:url(#acyl_gradient);filter:url(#filter1111)"
	id="rect2835"
	width="44"
	height="44"
	x="2"
	y="2"
	rx="3.5"
	ry="3.5" />
<defs>
<use id="1" transform="translate(22.5,22.5) scale(0.85) translate(-22.5,-22.5)" style="fill:#000000" xlink:href="#path-main" />
</defs>
	<use id="2" transform="translate(22.5,22.5) scale(0.85) translate(-22.5,-22.5)" style="fill:#0088CC;fill-opacity:1.0" xlink:href="#path-main" />
</acyl-settings>
</svg>
