<svg xmlns="http://www.w3.org/2000/svg" width="48" height="48">
<defs>
  <path
     d="m 38.056466,24 c -1.295989,0 -2.589451,0.42303 -3.614117,1.370107 -1.024666,0.947076 -1.694118,2.416854 -1.694118,4.149466 l 0,2.622776 -0.07529,0 C 31.195957,32.142349 30,33.385921 30,34.921708 l 0,8.298933 C 29.999998,44.756428 31.195955,46 32.672939,46 l 10.654117,0 c 1.476985,0 2.672942,-1.243572 2.672942,-2.779359 l 0,-8.298933 c 0,-1.508911 -1.156683,-2.737124 -2.597647,-2.779359 l 0,-2.622776 c 0,-1.732612 -0.669451,-3.20239 -1.694118,-4.149466 C 40.683565,24.42303 39.352457,24 38.056466,24 z m 0,2.779359 c 0.703538,0 1.407375,0.226468 1.882354,0.665481 0.474977,0.439013 0.790588,1.035165 0.790588,2.074733 l 0,2.622776 -5.308235,0 0,-2.622776 c 0,-1.039568 0.315609,-1.63572 0.790588,-2.074733 0.474978,-0.439013 1.141168,-0.665481 1.844705,-0.665481 z"
     id="path-main" />
</defs>
<acyl-settings>
<linearGradient
     id="linearGradient4321">
    <stop
       style="stop-color:#161616;stop-opacity:1.0;"
       offset="0.0"
       id="stop1" />
  </linearGradient>
<radialGradient
       inkscape:collect="always"
       xlink:href="#linearGradient4321"
       id="acyl_gradient"
       cx="50.0%"
       cy="50.0%"
       fx="50.0%"
       fy="50.0%"
       r="50.0%"
/>
<filter id="filter1111" x="-50%" y="-50%" width="200%" height="200%">
	<feImage
	id="feImage2"
	xlink:href="#1"
	result="result1" />
	<feComposite
	id="feComposite3633"
	in="result1"
	in2="SourceGraphic"
	operator="xor" />
</filter>
	<rect
	style="fill:#0088CC;fill-opacity:1.0;filter:url(#filter1111)"
	id="rect2835"
	width="48"
	height="48"
	x="0"
	y="0"
	rx="3.5"
	ry="3.5" />
	<rect
	style="fill:url(#acyl_gradient);filter:url(#filter1111)"
	id="rect2835"
	width="44"
	height="44"
	x="2"
	y="2"
	rx="3.5"
	ry="3.5" />
<defs>
<use id="1" transform="translate(22.5,22.5) scale(0.85) translate(-22.5,-22.5)" style="fill:#000000" xlink:href="#path-main" />
</defs>
	<use id="2" transform="translate(22.5,22.5) scale(0.85) translate(-22.5,-22.5)" style="fill:#0088CC;fill-opacity:1.0" xlink:href="#path-main" />
</acyl-settings>
</svg>
