<svg xmlns="http://www.w3.org/2000/svg" width="48" height="48">
<defs>
  <path
     id="path-main"
     d="M 22.004206,2 C 16.587319,2 12.22643,6.360889 12.22643,11.777777 l 0,7.333333 -2.4444446,0 c -1.3542221,0 -2.4444443,1.090222 -2.4444443,2.444444 l 0,22.000002 C 7.3375411,44.909778 8.4277633,46 9.7819854,46 l 29.3333316,0 c 1.354222,0 2.444444,-1.090222 2.444444,-2.444444 l 0,-22.000002 c 0,-1.354222 -1.090222,-2.444444 -2.444444,-2.444444 l -2.444445,0 0,-7.333333 C 36.670872,6.360889 32.309984,2 26.893095,2 l -4.888889,0 z m 0,4.888889 4.888889,0 c 2.708444,0 4.888889,2.180444 4.888889,4.888888 l 0,7.333333 -14.666665,0 0,-7.333333 c 0,-2.708444 2.180444,-4.888888 4.888887,-4.888888 z" />
</defs>
<acyl-settings>
<linearGradient
     id="linearGradient4321">
    <stop
       style="stop-color:#161616;stop-opacity:1.0;"
       offset="0.0"
       id="stop1" />
  </linearGradient>
<radialGradient
       inkscape:collect="always"
       xlink:href="#linearGradient4321"
       id="acyl_gradient"
       cx="50.0%"
       cy="50.0%"
       fx="50.0%"
       fy="50.0%"
       r="50.0%"
/>
<filter id="filter1111" x="-50%" y="-50%" width="200%" height="200%">
	<feImage
	id="feImage2"
	xlink:href="#1"
	result="result1" />
	<feComposite
	id="feComposite3633"
	in="result1"
	in2="SourceGraphic"
	operator="xor" />
</filter>
	<rect
	style="fill:#0088CC;fill-opacity:1.0;filter:url(#filter1111)"
	id="rect2835"
	width="48"
	height="48"
	x="0"
	y="0"
	rx="3.5"
	ry="3.5" />
	<rect
	style="fill:url(#acyl_gradient);filter:url(#filter1111)"
	id="rect2835"
	width="44"
	height="44"
	x="2"
	y="2"
	rx="3.5"
	ry="3.5" />
<defs>
<use id="1" transform="translate(22.5,22.5) scale(0.85) translate(-22.5,-22.5)" style="fill:#000000" xlink:href="#path-main" />
</defs>
	<use id="2" transform="translate(22.5,22.5) scale(0.85) translate(-22.5,-22.5)" style="fill:#0088CC;fill-opacity:1.0" xlink:href="#path-main" />
</acyl-settings>
</svg>
