<svg xmlns="http://www.w3.org/2000/svg" width="48" height="48">
<defs>
<defs
     id="defs8857">
  </defs>
  <g
     id="layer1"
     inkscape:label="Layer 1"
     inkscape:groupmode="layer">
    <path
         d="m 24.029851,2.000004 c -3.15109,0 -6.160659,1.5882053 -8.417911,3.8858696 -2.257251,2.2976642 -3.791044,5.3532104 -3.791044,8.4592394 -0.0011,6.184013 5.7148,11.627717 11.940298,11.627717 3.121143,0 6.176375,-1.428469 8.477612,-3.586956 2.301237,-2.158488 3.880597,-5.075091 3.880597,-8.190218 1e-6,-3.098032 -1.506384,-6.1026192 -3.731343,-8.369565 C 30.163101,3.5591451 27.174303,2.000004 24.029851,2.000004 z m -0.02985,24.839674 c -2.097852,0 -5.926115,0.296486 -8.746269,0.866848 C 9.6664956,28.841066 6.3091581,31.11443 4.4179104,34.192939 2.5266626,37.271448 2.121327,40.989137 2.0298507,44.9837 L 2,45.91033 2.9253731,45.97011 C 3.0801411,45.98131 3.2522714,46 3.4626865,46 L 45.014925,46 46,46 45.97015,45.013587 C 45.88305,41.02301 45.489284,37.303166 43.61194,34.222826 41.734597,31.142487 38.381149,28.848606 32.80597,27.706522 29.9636,27.123953 26.116062,26.839674 24,26.839674 z"
       id="path-main"/>
  </g>
</defs>
<acyl-settings>
<linearGradient
     id="linearGradient4321">
    <stop
       style="stop-color:#161616;stop-opacity:1.0;"
       offset="0.0"
       id="stop1" />
  </linearGradient>
<radialGradient
       inkscape:collect="always"
       xlink:href="#linearGradient4321"
       id="acyl_gradient"
       cx="50.0%"
       cy="50.0%"
       fx="50.0%"
       fy="50.0%"
       r="50.0%"
/>
<filter id="filter1111" x="-50%" y="-50%" width="200%" height="200%">
	<feImage
	id="feImage2"
	xlink:href="#1"
	result="result1" />
	<feComposite
	id="feComposite3633"
	in="result1"
	in2="SourceGraphic"
	operator="xor" />
</filter>
	<rect
	style="fill:#0088CC;fill-opacity:1.0;filter:url(#filter1111)"
	id="rect2835"
	width="48"
	height="48"
	x="0"
	y="0"
	rx="3.5"
	ry="3.5" />
	<rect
	style="fill:url(#acyl_gradient);filter:url(#filter1111)"
	id="rect2835"
	width="44"
	height="44"
	x="2"
	y="2"
	rx="3.5"
	ry="3.5" />
<defs>
<use id="1" transform="translate(22.5,22.5) scale(0.85) translate(-22.5,-22.5)" style="fill:#000000" xlink:href="#path-main" />
</defs>
	<use id="2" transform="translate(22.5,22.5) scale(0.85) translate(-22.5,-22.5)" style="fill:#0088CC;fill-opacity:1.0" xlink:href="#path-main" />
</acyl-settings>
</svg>
