<svg xmlns="http://www.w3.org/2000/svg" width="48" height="48">
<defs>
    <path
       d="M 12.000019,34.495541 C 11.998439,34.674961 12.093099,34.841481 12.248089,34.931881 C 12.403079,35.022291 12.594619,35.022731 12.750019,34.933041 L 30.000019,24.589291 L 30.000019,34.495541 C 30.000049,34.771671 30.223889,34.995511 30.500019,34.995541 L 35.500019,34.995541 C 35.776149,34.995511 35.999989,34.771671 36.000019,34.495541 L 36.000019,13.495541 C 35.999989,13.219411 35.776149,12.995571 35.500019,12.995541 L 30.500019,12.995541 C 30.223889,12.995571 30.000049,13.219411 30.000019,13.495541 L 30.000019,23.401791 L 12.750019,13.058041 C 12.594619,12.968351 12.403079,12.968791 12.248089,13.059201 C 12.093099,13.149601 11.998439,13.316121 12.000019,13.495541 L 12.000019,34.495541 z"
       id="path-main"
        />
</defs>
<acyl-settings>
<linearGradient
     id="linearGradient4321">
    <stop
       style="stop-color:#161616;stop-opacity:1.0;"
       offset="0.0"
       id="stop1" />
  </linearGradient>
<radialGradient
       inkscape:collect="always"
       xlink:href="#linearGradient4321"
       id="acyl_gradient"
       cx="50.0%"
       cy="50.0%"
       fx="50.0%"
       fy="50.0%"
       r="50.0%"
/>
<filter id="filter1111" x="-50%" y="-50%" width="200%" height="200%">
	<feImage
	id="feImage2"
	xlink:href="#1"
	result="result1" />
	<feComposite
	id="feComposite3633"
	in="result1"
	in2="SourceGraphic"
	operator="xor" />
</filter>
	<rect
	style="fill:#0088CC;fill-opacity:1.0;filter:url(#filter1111)"
	id="rect2835"
	width="48"
	height="48"
	x="0"
	y="0"
	rx="3.5"
	ry="3.5" />
	<rect
	style="fill:url(#acyl_gradient);filter:url(#filter1111)"
	id="rect2835"
	width="44"
	height="44"
	x="2"
	y="2"
	rx="3.5"
	ry="3.5" />
<defs>
<use id="1" transform="translate(22.5,22.5) scale(0.85) translate(-22.5,-22.5)" style="fill:#000000" xlink:href="#path-main" />
</defs>
	<use id="2" transform="translate(22.5,22.5) scale(0.85) translate(-22.5,-22.5)" style="fill:#0088CC;fill-opacity:1.0" xlink:href="#path-main" />
</acyl-settings>
</svg>
