<svg xmlns="http://www.w3.org/2000/svg" width="48" height="48">
<defs>
<defs
     id="defs3306">
  </defs>
  <path
     d="M 2 4 L 2 11 L 16 11 L 16 4 L 2 4 z M 20 4 L 20 11 L 36 11 L 36 4 L 20 4 z M 40 4 L 40 11 L 46 11 L 46 4 L 40 4 z M 2 15 L 2 22 L 8 22 L 8 15 L 2 15 z M 12 15 L 12 22 L 28 22 L 28 15 L 12 15 z M 32 15 L 32 22 L 46 22 L 46 15 L 32 15 z M 2 26 L 2 33 L 16 33 L 16 26 L 2 26 z M 20 26 L 20 33 L 36 33 L 36 26 L 20 26 z M 40 26 L 40 33 L 46 33 L 46 26 L 40 26 z M 2 37 L 2 44 L 8 44 L 8 37 L 2 37 z M 12 37 L 12 44 L 28 44 L 28 37 L 12 37 z M 32 37 L 32 44 L 46 44 L 46 37 L 32 37 z "
     id="path-main" />
</defs>
<acyl-settings>
<linearGradient
     id="linearGradient4321">
    <stop
       style="stop-color:#161616;stop-opacity:1.0;"
       offset="0.0"
       id="stop1" />
  </linearGradient>
<radialGradient
       inkscape:collect="always"
       xlink:href="#linearGradient4321"
       id="acyl_gradient"
       cx="50.0%"
       cy="50.0%"
       fx="50.0%"
       fy="50.0%"
       r="50.0%"
/>
<filter id="filter1111" x="-50%" y="-50%" width="200%" height="200%">
	<feImage
	id="feImage2"
	xlink:href="#1"
	result="result1" />
	<feComposite
	id="feComposite3633"
	in="result1"
	in2="SourceGraphic"
	operator="xor" />
</filter>
	<rect
	style="fill:#0088CC;fill-opacity:1.0;filter:url(#filter1111)"
	id="rect2835"
	width="48"
	height="48"
	x="0"
	y="0"
	rx="3.5"
	ry="3.5" />
	<rect
	style="fill:url(#acyl_gradient);filter:url(#filter1111)"
	id="rect2835"
	width="44"
	height="44"
	x="2"
	y="2"
	rx="3.5"
	ry="3.5" />
<defs>
<use id="1" transform="translate(22.5,22.5) scale(0.85) translate(-22.5,-22.5)" style="fill:#000000" xlink:href="#path-main" />
</defs>
	<use id="2" transform="translate(22.5,22.5) scale(0.85) translate(-22.5,-22.5)" style="fill:#0088CC;fill-opacity:1.0" xlink:href="#path-main" />
</acyl-settings>
</svg>
