<svg xmlns="http://www.w3.org/2000/svg" width="48" height="48">
<defs>
<defs
     id="defs3467">
  </defs>
  <path
     id="path-main"
     d="M 24.775407,2 C 18.362915,2 13.782564,5.8235906 13.782564,12.076773 l 0,5.496422 4.580351,0 0,-3.664282 c 0,-1.83214 0,-7.3285617 6.412492,-7.3285617 l 0.91607,0 c 6.412492,-1e-7 6.412492,5.4964217 6.412492,7.3285617 l 0,3.664282 4.580351,0 0,-5.496422 C 36.684318,5.6642814 32.103969,2 25.691477,2 l -0.91607,0 z M 11.921796,24.930384 c -1.832141,0 -2.7482111,0.91607 -2.7482111,2.748211 l 0,15.573194 C 9.1735849,44.149837 10.089655,46 11.921796,46 l 26.909564,0 c 1.480357,-0.0087 2.404684,-1.850165 2.404684,-2.748211 l 0,-15.573194 c 0,-1.832141 -0.91607,-2.748211 -2.74821,-2.748211 l -1.832141,0 -22.901757,0 -1.83214,0 z" />
</defs>
<acyl-settings>
<linearGradient
     id="linearGradient4321">
    <stop
       style="stop-color:#161616;stop-opacity:1.0;"
       offset="0.0"
       id="stop1" />
  </linearGradient>
<radialGradient
       inkscape:collect="always"
       xlink:href="#linearGradient4321"
       id="acyl_gradient"
       cx="50.0%"
       cy="50.0%"
       fx="50.0%"
       fy="50.0%"
       r="50.0%"
/>
<filter id="filter1111" x="-50%" y="-50%" width="200%" height="200%">
	<feImage
	id="feImage2"
	xlink:href="#1"
	result="result1" />
	<feComposite
	id="feComposite3633"
	in="result1"
	in2="SourceGraphic"
	operator="xor" />
</filter>
	<rect
	style="fill:#0088CC;fill-opacity:1.0;filter:url(#filter1111)"
	id="rect2835"
	width="48"
	height="48"
	x="0"
	y="0"
	rx="3.5"
	ry="3.5" />
	<rect
	style="fill:url(#acyl_gradient);filter:url(#filter1111)"
	id="rect2835"
	width="44"
	height="44"
	x="2"
	y="2"
	rx="3.5"
	ry="3.5" />
<defs>
<use id="1" transform="translate(22.5,22.5) scale(0.85) translate(-22.5,-22.5)" style="fill:#000000" xlink:href="#path-main" />
</defs>
	<use id="2" transform="translate(22.5,22.5) scale(0.85) translate(-22.5,-22.5)" style="fill:#0088CC;fill-opacity:1.0" xlink:href="#path-main" />
</acyl-settings>
</svg>
