<svg xmlns="http://www.w3.org/2000/svg" width="48" height="48">
<defs>
<defs
     id="defs3306" />
  <g
     id="layer1">
    <path
       d="M 15.974767,5.1367064 C 14.979772,7.5186638 14.457557,10.155276 14.457557,12.903114 C 14.457559,23.894463 23.252314,32.804534 34.101412,32.804534 C 37.269909,32.804534 40.233859,32.052241 42.885251,30.701132 C 39.900274,37.847001 32.895425,42.836145 24.758603,42.836145 C 13.909504,42.836145 5.1147466,33.926073 5.1147466,22.934724 C 5.1147466,15.153418 9.5476614,8.4118621 15.974767,5.1367064 z"
       id="path-main"
        />
  </g>
</defs>
<acyl-settings>
<linearGradient
     id="linearGradient4321">
    <stop
       style="stop-color:#161616;stop-opacity:1.0;"
       offset="0.0"
       id="stop1" />
  </linearGradient>
<radialGradient
       inkscape:collect="always"
       xlink:href="#linearGradient4321"
       id="acyl_gradient"
       cx="50.0%"
       cy="50.0%"
       fx="50.0%"
       fy="50.0%"
       r="50.0%"
/>
<filter id="filter1111" x="-50%" y="-50%" width="200%" height="200%">
	<feImage
	id="feImage2"
	xlink:href="#1"
	result="result1" />
	<feComposite
	id="feComposite3633"
	in="result1"
	in2="SourceGraphic"
	operator="xor" />
</filter>
	<rect
	style="fill:#0088CC;fill-opacity:1.0;filter:url(#filter1111)"
	id="rect2835"
	width="48"
	height="48"
	x="0"
	y="0"
	rx="3.5"
	ry="3.5" />
	<rect
	style="fill:url(#acyl_gradient);filter:url(#filter1111)"
	id="rect2835"
	width="44"
	height="44"
	x="2"
	y="2"
	rx="3.5"
	ry="3.5" />
<defs>
<use id="1" transform="translate(22.5,22.5) scale(0.85) translate(-22.5,-22.5)" style="fill:#000000" xlink:href="#path-main" />
</defs>
	<use id="2" transform="translate(22.5,22.5) scale(0.85) translate(-22.5,-22.5)" style="fill:#0088CC;fill-opacity:1.0" xlink:href="#path-main" />
</acyl-settings>
</svg>
