<svg xmlns="http://www.w3.org/2000/svg" width="48" height="48">
<defs>
<defs
     id="defs5">
  </defs>
  <path
     id="path-main"
     d="m 22.375,4.375 0,5.90625 -4.75,-2.71875 -1.25,2.15625 6,3.4375 0,8.0625 -7,-4.03125 0,-6.90625 -2.46875,0 0,5.46875 -5.125,-2.9375 -1.65625,2.8125 5.125,2.96875 -4.75,2.75 1.25,2.15625 6,-3.46875 7,4.03125 -7,4.03125 -6,-3.46875 -1.25,2.15625 4.75,2.75 -5.125,2.96875 1.65625,2.8125 5.125,-2.9375 0,5.46875 2.46875,0 0,-6.90625 7,-4.03125 0,8.0625 -6,3.4375 1.25,2.15625 4.75,-2.71875 0,5.90625 3.25,0 0,-5.90625 4.75,2.71875 1.25,-2.15625 -6,-3.4375 0,-8.0625 7,4.03125 0,6.90625 2.46875,0 0,-5.46875 5.125,2.9375 L 41.875,32.5 36.75,29.53125 l 4.75,-2.75 -1.25,-2.15625 -6,3.46875 -7,-4.03125 7,-4.03125 6,3.46875 1.25,-2.15625 -4.75,-2.75 5.125,-2.96875 -1.65625,-2.8125 -5.125,2.9375 0,-5.46875 -2.46875,0 0,6.90625 -7,4.03125 0,-8.0625 6,-3.4375 -1.25,-2.15625 -4.75,2.71875 0,-5.90625 -3.25,0 z" />
</defs>
<acyl-settings>
<linearGradient
     id="linearGradient4321">
    <stop
       style="stop-color:#161616;stop-opacity:1.0;"
       offset="0.0"
       id="stop1" />
  </linearGradient>
<radialGradient
       inkscape:collect="always"
       xlink:href="#linearGradient4321"
       id="acyl_gradient"
       cx="50.0%"
       cy="50.0%"
       fx="50.0%"
       fy="50.0%"
       r="50.0%"
/>
<filter id="filter1111" x="-50%" y="-50%" width="200%" height="200%">
	<feImage
	id="feImage2"
	xlink:href="#1"
	result="result1" />
	<feComposite
	id="feComposite3633"
	in="result1"
	in2="SourceGraphic"
	operator="xor" />
</filter>
	<rect
	style="fill:#0088CC;fill-opacity:1.0;filter:url(#filter1111)"
	id="rect2835"
	width="48"
	height="48"
	x="0"
	y="0"
	rx="3.5"
	ry="3.5" />
	<rect
	style="fill:url(#acyl_gradient);filter:url(#filter1111)"
	id="rect2835"
	width="44"
	height="44"
	x="2"
	y="2"
	rx="3.5"
	ry="3.5" />
<defs>
<use id="1" transform="translate(22.5,22.5) scale(0.85) translate(-22.5,-22.5)" style="fill:#000000" xlink:href="#path-main" />
</defs>
	<use id="2" transform="translate(22.5,22.5) scale(0.85) translate(-22.5,-22.5)" style="fill:#0088CC;fill-opacity:1.0" xlink:href="#path-main" />
</acyl-settings>
</svg>
