<svg xmlns="http://www.w3.org/2000/svg" width="48" height="48">
<defs>
  <path
     d="m 20.333333,5.3558052 c -10.12,0 -18.3333328,8.2133338 -18.333333,18.3333338 0,10.12 8.213334,18.333333 18.333333,18.333333 4.802815,0 9.181593,-1.863204 12.451389,-4.888889 l 13.215278,0 -8.173611,-8.173611 c 0.508303,-1.680842 0.840278,-3.424828 0.840278,-5.270833 0,-10.12 -8.213334,-18.3333338 -18.333334,-18.3333338 z m -5.347222,9.7777778 5.347222,5.5 5.5,-5.423611 3.055556,3.131944 -5.5,5.347223 5.423611,5.5 -3.131944,3.055555 -5.347223,-5.5 -5.5,5.423611 -3.055555,-3.131944 5.5,-5.347222 -5.423611,-5.5 3.131944,-3.055556 z"
     id="path-main"
      />
</defs>
<acyl-settings>
<linearGradient
     id="linearGradient4321">
    <stop
       style="stop-color:#161616;stop-opacity:1.0;"
       offset="0.0"
       id="stop1" />
  </linearGradient>
<radialGradient
       inkscape:collect="always"
       xlink:href="#linearGradient4321"
       id="acyl_gradient"
       cx="50.0%"
       cy="50.0%"
       fx="50.0%"
       fy="50.0%"
       r="50.0%"
/>
<filter id="filter1111" x="-50%" y="-50%" width="200%" height="200%">
	<feImage
	id="feImage2"
	xlink:href="#1"
	result="result1" />
	<feComposite
	id="feComposite3633"
	in="result1"
	in2="SourceGraphic"
	operator="xor" />
</filter>
	<rect
	style="fill:#0088CC;fill-opacity:1.0;filter:url(#filter1111)"
	id="rect2835"
	width="48"
	height="48"
	x="0"
	y="0"
	rx="3.5"
	ry="3.5" />
	<rect
	style="fill:url(#acyl_gradient);filter:url(#filter1111)"
	id="rect2835"
	width="44"
	height="44"
	x="2"
	y="2"
	rx="3.5"
	ry="3.5" />
<defs>
<use id="1" transform="translate(22.5,22.5) scale(0.85) translate(-22.5,-22.5)" style="fill:#000000" xlink:href="#path-main" />
</defs>
	<use id="2" transform="translate(22.5,22.5) scale(0.85) translate(-22.5,-22.5)" style="fill:#0088CC;fill-opacity:1.0" xlink:href="#path-main" />
</acyl-settings>
</svg>
