<svg xmlns="http://www.w3.org/2000/svg" width="48" height="48">
<defs>
  <path
     d="M 20.350711,5.9292285 C 10.230212,5.9292285 2.0000002,14.150347 2,24.279939 2,34.409532 10.230213,42.63065 20.350711,42.63065 c 4.803053,0 9.17238,-1.871922 12.442338,-4.900474 l 13.206951,0 -8.167457,-8.167456 c 0.508328,-1.682436 0.834124,-3.435026 0.834124,-5.282781 0,-10.129592 -8.195457,-18.3507103 -18.315956,-18.3507105 z M 8.116904,23.063509 l 4.900474,0 0,4.900474 -4.900474,0 0,-4.900474 z m 9.800948,0 4.865718,0 0,4.900474 -4.865718,0 0,-4.900474 z m 9.766192,0 4.900474,0 0,4.900474 -4.900474,0 0,-4.900474 z"
     id="path-main" />
</defs>
<acyl-settings>
<linearGradient
     id="linearGradient4321">
    <stop
       style="stop-color:#161616;stop-opacity:1.0;"
       offset="0.0"
       id="stop1" />
  </linearGradient>
<radialGradient
       inkscape:collect="always"
       xlink:href="#linearGradient4321"
       id="acyl_gradient"
       cx="50.0%"
       cy="50.0%"
       fx="50.0%"
       fy="50.0%"
       r="50.0%"
/>
<filter id="filter1111" x="-50%" y="-50%" width="200%" height="200%">
	<feImage
	id="feImage2"
	xlink:href="#1"
	result="result1" />
	<feComposite
	id="feComposite3633"
	in="result1"
	in2="SourceGraphic"
	operator="xor" />
</filter>
	<rect
	style="fill:#0088CC;fill-opacity:1.0;filter:url(#filter1111)"
	id="rect2835"
	width="48"
	height="48"
	x="0"
	y="0"
	rx="3.5"
	ry="3.5" />
	<rect
	style="fill:url(#acyl_gradient);filter:url(#filter1111)"
	id="rect2835"
	width="44"
	height="44"
	x="2"
	y="2"
	rx="3.5"
	ry="3.5" />
<defs>
<use id="1" transform="translate(22.5,22.5) scale(0.85) translate(-22.5,-22.5)" style="fill:#000000" xlink:href="#path-main" />
</defs>
	<use id="2" transform="translate(22.5,22.5) scale(0.85) translate(-22.5,-22.5)" style="fill:#0088CC;fill-opacity:1.0" xlink:href="#path-main" />
</acyl-settings>
</svg>
