<svg xmlns="http://www.w3.org/2000/svg" width="48" height="48">
<defs>
<defs
     id="defs4">
  </defs>
  <g
     inkscape:label="Layer 1"
     inkscape:groupmode="layer"
     id="layer1">
    <path
         d="M 3 7 L 3 42 L 45 42 L 45 10.5 L 25.75 10.5 L 25.75 7 L 3 7 z M 4.75 8.75 L 24 8.75 L 24 12.25 L 43.25 12.25 L 43.25 15.75 L 20.5 15.75 L 20.5 12.25 L 4.75 12.25 L 4.75 8.75 z M 20.3125 18.75 L 25.5625 18.75 C 25.770518 18.749999 25.937501 18.901384 25.9375 19.09375 L 25.9375 25.75 L 32.59375 25.75 C 32.786117 25.749999 32.937499 25.916979 32.9375 26.125 L 32.9375 31.375 C 32.937499 31.583023 32.786117 31.75 32.59375 31.75 L 25.9375 31.75 L 25.9375 38.40625 C 25.937499 38.598618 25.770523 38.75 25.5625 38.75 L 20.3125 38.75 C 20.104477 38.749999 19.937501 38.598619 19.9375 38.40625 L 19.9375 31.75 L 13.28125 31.75 C 13.088881 31.749999 12.9375 31.583024 12.9375 31.375 L 12.9375 26.125 C 12.9375 25.916979 13.088881 25.75 13.28125 25.75 L 19.9375 25.75 L 19.9375 19.09375 C 19.937499 18.901382 20.104478 18.75 20.3125 18.75 z "
       id="path-main" />
  </g>
</defs>
<acyl-settings>
<linearGradient
     id="linearGradient4321">
    <stop
       style="stop-color:#161616;stop-opacity:1.0;"
       offset="0.0"
       id="stop1" />
  </linearGradient>
<radialGradient
       inkscape:collect="always"
       xlink:href="#linearGradient4321"
       id="acyl_gradient"
       cx="50.0%"
       cy="50.0%"
       fx="50.0%"
       fy="50.0%"
       r="50.0%"
/>
<filter id="filter1111" x="-50%" y="-50%" width="200%" height="200%">
	<feImage
	id="feImage2"
	xlink:href="#1"
	result="result1" />
	<feComposite
	id="feComposite3633"
	in="result1"
	in2="SourceGraphic"
	operator="xor" />
</filter>
	<rect
	style="fill:#0088CC;fill-opacity:1.0;filter:url(#filter1111)"
	id="rect2835"
	width="48"
	height="48"
	x="0"
	y="0"
	rx="3.5"
	ry="3.5" />
	<rect
	style="fill:url(#acyl_gradient);filter:url(#filter1111)"
	id="rect2835"
	width="44"
	height="44"
	x="2"
	y="2"
	rx="3.5"
	ry="3.5" />
<defs>
<use id="1" transform="translate(22.5,22.5) scale(0.85) translate(-22.5,-22.5)" style="fill:#000000" xlink:href="#path-main" />
</defs>
	<use id="2" transform="translate(22.5,22.5) scale(0.85) translate(-22.5,-22.5)" style="fill:#0088CC;fill-opacity:1.0" xlink:href="#path-main" />
</acyl-settings>
</svg>
