<svg xmlns="http://www.w3.org/2000/svg" width="48" height="48">
<defs>
      <path
         d="M 12.71875,5 C 12.318018,5 12,5.3012923 12,5.6875 L 12,42.3125 C 12,42.698712 12.318018,43 12.71875,43 L 23.46875,43 L 36,31.1875 L 36,17.15625 L 23.09375,5 L 12.71875,5 z M 25.125,5 L 36,15.25 L 36,5.6875 C 36,5.3012922 35.650727,5 35.25,5 L 25.125,5 z M 21.375,14 L 26.625,14 C 26.833019,14 27.000001,14.151384 27,14.34375 L 27,21 L 33.65625,21 C 33.848618,21 33.999999,21.166979 34,21.375 L 34,26.625 C 34,26.833024 33.848617,27 33.65625,27 L 27,27 L 27,33.65625 C 27,33.848619 26.833023,34 26.625,34 L 21.375,34 C 21.166978,34 21.000001,33.848619 21,33.65625 L 21,27 L 14.34375,27 C 14.151381,27 14,26.833024 14,26.625 L 14,21.375 C 14,21.16698 14.151381,21 14.34375,21 L 21,21 L 21,14.34375 C 21,14.151383 21.166978,14 21.375,14 z M 36,33.09375 L 25.5,43 L 35.25,43 C 35.650737,43 36,42.698712 36,42.3125 L 36,33.09375 z"
         id="path-main"
          />
</defs>
<acyl-settings>
<linearGradient
     id="linearGradient4321">
    <stop
       style="stop-color:#161616;stop-opacity:1.0;"
       offset="0.0"
       id="stop1" />
  </linearGradient>
<radialGradient
       inkscape:collect="always"
       xlink:href="#linearGradient4321"
       id="acyl_gradient"
       cx="50.0%"
       cy="50.0%"
       fx="50.0%"
       fy="50.0%"
       r="50.0%"
/>
<filter id="filter1111" x="-50%" y="-50%" width="200%" height="200%">
	<feImage
	id="feImage2"
	xlink:href="#1"
	result="result1" />
	<feComposite
	id="feComposite3633"
	in="result1"
	in2="SourceGraphic"
	operator="xor" />
</filter>
	<rect
	style="fill:#0088CC;fill-opacity:1.0;filter:url(#filter1111)"
	id="rect2835"
	width="48"
	height="48"
	x="0"
	y="0"
	rx="3.5"
	ry="3.5" />
	<rect
	style="fill:url(#acyl_gradient);filter:url(#filter1111)"
	id="rect2835"
	width="44"
	height="44"
	x="2"
	y="2"
	rx="3.5"
	ry="3.5" />
<defs>
<use id="1" transform="translate(22.5,22.5) scale(0.85) translate(-22.5,-22.5)" style="fill:#000000" xlink:href="#path-main" />
</defs>
	<use id="2" transform="translate(22.5,22.5) scale(0.85) translate(-22.5,-22.5)" style="fill:#0088CC;fill-opacity:1.0" xlink:href="#path-main" />
</acyl-settings>
</svg>
