<svg xmlns="http://www.w3.org/2000/svg" width="48" height="48">
<defs>
  <path
     id="path-main"
     d="m 34.439812,2.0023641 c 2.328719,-0.097626 3.928185,2.8510042 2.548663,4.7397347 C 31.34279,12.563842 25.570341,18.264834 19.83976,24.004083 c 5.651858,5.675182 11.334052,11.321603 16.966945,17.014805 1.563302,1.73865 0.269041,4.838785 -2.061933,4.962914 -1.946885,0.220596 -3.023375,-1.615255 -4.290386,-2.744266 -5.7558,-5.769534 -11.52427,-11.52666 -17.272108,-17.303963 -1.188493,-1.344482 -0.729601,-3.487001 0.646307,-4.51558 C 20.070568,15.181519 26.28591,8.917201 32.544583,2.698178 33.070928,2.2567224 33.750943,1.9987439 34.439812,2.0023641 z"
      />
</defs>
<acyl-settings>
<linearGradient
     id="linearGradient4321">
    <stop
       style="stop-color:#161616;stop-opacity:1.0;"
       offset="0.0"
       id="stop1" />
  </linearGradient>
<radialGradient
       inkscape:collect="always"
       xlink:href="#linearGradient4321"
       id="acyl_gradient"
       cx="50.0%"
       cy="50.0%"
       fx="50.0%"
       fy="50.0%"
       r="50.0%"
/>
<filter id="filter1111" x="-50%" y="-50%" width="200%" height="200%">
	<feImage
	id="feImage2"
	xlink:href="#1"
	result="result1" />
	<feComposite
	id="feComposite3633"
	in="result1"
	in2="SourceGraphic"
	operator="xor" />
</filter>
	<rect
	style="fill:#0088CC;fill-opacity:1.0;filter:url(#filter1111)"
	id="rect2835"
	width="48"
	height="48"
	x="0"
	y="0"
	rx="3.5"
	ry="3.5" />
	<rect
	style="fill:url(#acyl_gradient);filter:url(#filter1111)"
	id="rect2835"
	width="44"
	height="44"
	x="2"
	y="2"
	rx="3.5"
	ry="3.5" />
<defs>
<use id="1" transform="translate(22.5,22.5) scale(0.85) translate(-22.5,-22.5)" style="fill:#000000" xlink:href="#path-main" />
</defs>
	<use id="2" transform="translate(22.5,22.5) scale(0.85) translate(-22.5,-22.5)" style="fill:#0088CC;fill-opacity:1.0" xlink:href="#path-main" />
</acyl-settings>
</svg>
