<svg xmlns="http://www.w3.org/2000/svg" width="48" height="48">
<defs>
  <path
     d="m 46,36.644517 c 0,-1.581939 -1.323807,-2.855485 -2.98913,-2.855485 l -38.02174,0 C 3.323807,33.789032 2,35.062578 2,36.644517 2,38.226454 3.323807,39.5 4.98913,39.5 l 38.02174,0 C 44.676193,39.5 46,38.226454 46,36.644517 z M 45.222826,11.361589 c 0,-0.729913 -0.274895,-1.4633303 -0.836956,-2.0226344 -1.124124,-1.1186069 -2.941094,-1.1186069 -4.065218,0 L 24.179348,25.40105 8.038044,9.3389546 c -1.124124,-1.1186069 -2.941094,-1.1186069 -4.065218,0 -1.124123,1.1186074 -1.124123,2.9266614 0,4.0452694 l 17.815218,17.727793 c 0.646916,0.643741 1.551533,0.870559 2.391304,0.77336 0.850885,0.109512 1.735006,-0.120271 2.391304,-0.77336 L 44.38587,13.384224 c 0.562061,-0.559304 0.836956,-1.292721 0.836956,-2.022635 z"
     id="path-main" />
</defs>
<acyl-settings>
<linearGradient
     id="linearGradient4321">
    <stop
       style="stop-color:#161616;stop-opacity:1.0;"
       offset="0.0"
       id="stop1" />
  </linearGradient>
<radialGradient
       inkscape:collect="always"
       xlink:href="#linearGradient4321"
       id="acyl_gradient"
       cx="50.0%"
       cy="50.0%"
       fx="50.0%"
       fy="50.0%"
       r="50.0%"
/>
<filter id="filter1111" x="-50%" y="-50%" width="200%" height="200%">
	<feImage
	id="feImage2"
	xlink:href="#1"
	result="result1" />
	<feComposite
	id="feComposite3633"
	in="result1"
	in2="SourceGraphic"
	operator="xor" />
</filter>
	<rect
	style="fill:#0088CC;fill-opacity:1.0;filter:url(#filter1111)"
	id="rect2835"
	width="48"
	height="48"
	x="0"
	y="0"
	rx="3.5"
	ry="3.5" />
	<rect
	style="fill:url(#acyl_gradient);filter:url(#filter1111)"
	id="rect2835"
	width="44"
	height="44"
	x="2"
	y="2"
	rx="3.5"
	ry="3.5" />
<defs>
<use id="1" transform="translate(22.5,22.5) scale(0.85) translate(-22.5,-22.5)" style="fill:#000000" xlink:href="#path-main" />
</defs>
	<use id="2" transform="translate(22.5,22.5) scale(0.85) translate(-22.5,-22.5)" style="fill:#0088CC;fill-opacity:1.0" xlink:href="#path-main" />
</acyl-settings>
</svg>
