<svg xmlns="http://www.w3.org/2000/svg" width="48" height="48">
<defs>
  <path
     d="M 23.6875 2 A 4.5812446 4.5801257 0 0 0 19.40625 6.59375 A 4.5812446 4.5801257 0 0 0 28.59375 6.59375 A 4.5812446 4.5801257 0 0 0 23.6875 2 z M 10.84375 6.59375 A 4.5848248 4.5801259 0 0 0 6.5625 11.15625 A 4.5848248 4.5801259 0 0 0 15.75 11.15625 A 4.5848248 4.5801259 0 0 0 10.84375 6.59375 z M 36.5 6.59375 A 4.584825 4.5837068 0 0 0 32.25 11.15625 A 4.584825 4.5837068 0 0 0 41.4375 11.15625 A 4.584825 4.5837068 0 0 0 36.5 6.59375 z M 6.71875 19.40625 A 4.5812446 4.5801257 0 0 0 2 24 A 4.5812446 4.5801257 0 0 0 11.15625 24 A 4.5812446 4.5801257 0 0 0 6.71875 19.40625 z M 41.09375 19.4375 A 4.5812446 4.5801257 0 0 0 36.84375 24 A 4.5812446 4.5801257 0 0 0 46 24 A 4.5812446 4.5801257 0 0 0 41.09375 19.4375 z M 10.84375 32.25 A 4.5848286 4.5837065 0 0 0 6.5625 36.84375 A 4.5848286 4.5837065 0 0 0 15.75 36.84375 A 4.5848286 4.5837065 0 0 0 10.84375 32.25 z M 36.5 32.25 A 4.5848285 4.5837065 0 0 0 32.25 36.84375 A 4.5848285 4.5837065 0 0 0 41.4375 36.84375 A 4.5848285 4.5837065 0 0 0 36.5 32.25 z M 23.65625 36.84375 A 4.5812446 4.5801257 0 0 0 19.40625 41.40625 A 4.5812446 4.5801257 0 0 0 28.5625 41.40625 A 4.5812446 4.5801257 0 0 0 23.65625 36.84375 z "
     id="path-main" />
</defs>
<acyl-settings>
<linearGradient
     id="linearGradient4321">
    <stop
       style="stop-color:#161616;stop-opacity:1.0;"
       offset="0.0"
       id="stop1" />
  </linearGradient>
<radialGradient
       inkscape:collect="always"
       xlink:href="#linearGradient4321"
       id="acyl_gradient"
       cx="50.0%"
       cy="50.0%"
       fx="50.0%"
       fy="50.0%"
       r="50.0%"
/>
<filter id="filter1111" x="-50%" y="-50%" width="200%" height="200%">
	<feImage
	id="feImage2"
	xlink:href="#1"
	result="result1" />
	<feComposite
	id="feComposite3633"
	in="result1"
	in2="SourceGraphic"
	operator="xor" />
</filter>
	<rect
	style="fill:#0088CC;fill-opacity:1.0;filter:url(#filter1111)"
	id="rect2835"
	width="48"
	height="48"
	x="0"
	y="0"
	rx="3.5"
	ry="3.5" />
	<rect
	style="fill:url(#acyl_gradient);filter:url(#filter1111)"
	id="rect2835"
	width="44"
	height="44"
	x="2"
	y="2"
	rx="3.5"
	ry="3.5" />
<defs>
<use id="1" transform="translate(22.5,22.5) scale(0.85) translate(-22.5,-22.5)" style="fill:#000000" xlink:href="#path-main" />
</defs>
	<use id="2" transform="translate(22.5,22.5) scale(0.85) translate(-22.5,-22.5)" style="fill:#0088CC;fill-opacity:1.0" xlink:href="#path-main" />
</acyl-settings>
</svg>
