<svg xmlns="http://www.w3.org/2000/svg" width="48" height="48">
<defs>
<defs
     id="defs5">
  </defs>
  <path
     d="M 24,2 18.815104,18.84375 2,18.815104 15.606771,29.213542 10.393229,46 24.028646,35.601562 37.606771,46 32.393229,29.15625 46,18.815104 l -16.84375,0 L 24,2 z m 0,8.135417 3.437499,11.20052 11.229168,0 -9.08073,6.903646 L 33.052083,39.46875 24,32.536458 14.947917,39.46875 18.414062,28.268229 9.3333333,21.335937 20.533854,21.364583 24,10.135417 z m 0,6.903645 -1.976563,6.388021 -6.38802,0 5.184895,3.953125 -2.005208,6.388021 L 24,29.815104 l 5.184896,3.953125 -2.005209,-6.416667 5.184896,-3.924479 -6.388021,0 L 24,17.039062 z"
     id="path-main"
      />
</defs>
<acyl-settings>
<linearGradient
     id="linearGradient4321">
    <stop
       style="stop-color:#161616;stop-opacity:1.0;"
       offset="0.0"
       id="stop1" />
  </linearGradient>
<radialGradient
       inkscape:collect="always"
       xlink:href="#linearGradient4321"
       id="acyl_gradient"
       cx="50.0%"
       cy="50.0%"
       fx="50.0%"
       fy="50.0%"
       r="50.0%"
/>
<filter id="filter1111" x="-50%" y="-50%" width="200%" height="200%">
	<feImage
	id="feImage2"
	xlink:href="#1"
	result="result1" />
	<feComposite
	id="feComposite3633"
	in="result1"
	in2="SourceGraphic"
	operator="xor" />
</filter>
	<rect
	style="fill:#0088CC;fill-opacity:1.0;filter:url(#filter1111)"
	id="rect2835"
	width="48"
	height="48"
	x="0"
	y="0"
	rx="3.5"
	ry="3.5" />
	<rect
	style="fill:url(#acyl_gradient);filter:url(#filter1111)"
	id="rect2835"
	width="44"
	height="44"
	x="2"
	y="2"
	rx="3.5"
	ry="3.5" />
<defs>
<use id="1" transform="translate(22.5,22.5) scale(0.85) translate(-22.5,-22.5)" style="fill:#000000" xlink:href="#path-main" />
</defs>
	<use id="2" transform="translate(22.5,22.5) scale(0.85) translate(-22.5,-22.5)" style="fill:#0088CC;fill-opacity:1.0" xlink:href="#path-main" />
</acyl-settings>
</svg>
