<svg xmlns="http://www.w3.org/2000/svg" width="48" height="48">
<defs>
  <path
     d="m 36.398653,6.9999988 c -6.2e-5,2.9999725 -2.091556,3.0432502 -4.427305,3.0802032 l -24.3458904,0 c -0.5919965,-0.0085 -1.1365722,0.528202 -1.1365722,1.120076 0,0.591874 0.5445757,1.128546 1.1365722,1.120076 l 24.3458904,0 c 3.413771,0 6.360362,-0.982407 6.454112,-3.0802152 l 5.333688,0 0,25.1084282 c 0,1.271053 -0.428075,2.241076 -1.61061,3.045224 -0.334322,0.2273 -0.745415,0.436236 -1.225465,0.618339 0.213114,-0.532675 0.338459,-1.133518 0.338459,-1.79679 l 0,-22.529922 -39.261532,0 0,21.783197 c 0,3.05091 2.456909,5.511807 5.5087543,5.507056 9.6397757,-0.01501 19.2823377,0.06159 28.9209527,0 3.072836,-0.02529 5.364764,-0.640333 6.979311,-1.738212 1.745018,-1.186632 2.590983,-3.01539 2.590983,-4.888685 l 0,-27.3485783 -9.601348,-1.969e-4 z"
     id="path-main" />
</defs>
<acyl-settings>
<linearGradient
     id="linearGradient4321">
    <stop
       style="stop-color:#161616;stop-opacity:1.0;"
       offset="0.0"
       id="stop1" />
  </linearGradient>
<radialGradient
       inkscape:collect="always"
       xlink:href="#linearGradient4321"
       id="acyl_gradient"
       cx="50.0%"
       cy="50.0%"
       fx="50.0%"
       fy="50.0%"
       r="50.0%"
/>
<filter id="filter1111" x="-50%" y="-50%" width="200%" height="200%">
	<feImage
	id="feImage2"
	xlink:href="#1"
	result="result1" />
	<feComposite
	id="feComposite3633"
	in="result1"
	in2="SourceGraphic"
	operator="xor" />
</filter>
	<rect
	style="fill:#0088CC;fill-opacity:1.0;filter:url(#filter1111)"
	id="rect2835"
	width="48"
	height="48"
	x="0"
	y="0"
	rx="3.5"
	ry="3.5" />
	<rect
	style="fill:url(#acyl_gradient);filter:url(#filter1111)"
	id="rect2835"
	width="44"
	height="44"
	x="2"
	y="2"
	rx="3.5"
	ry="3.5" />
<defs>
<use id="1" transform="translate(22.5,22.5) scale(0.85) translate(-22.5,-22.5)" style="fill:#000000" xlink:href="#path-main" />
</defs>
	<use id="2" transform="translate(22.5,22.5) scale(0.85) translate(-22.5,-22.5)" style="fill:#0088CC;fill-opacity:1.0" xlink:href="#path-main" />
</acyl-settings>
</svg>
