<svg xmlns="http://www.w3.org/2000/svg" width="48" height="48">
<defs>
  <path
     id="path-main"
     d="m 11.420213,9.5895106 c -2.3374492,0 -4.2420215,1.3048124 -4.2420215,2.9255324 l 31.5372345,0 c 0,-1.620719 -1.904574,-2.9255324 -4.242022,-2.9255324 l -23.053191,0 z M 7.8803191,13.275681 C 4.6150646,13.275681 2,15.534536 2,18.336851 L 2,36.09483 c 0,2.802315 2.6150646,5.061169 5.8803191,5.06117 l 32.2393619,0 C 43.384935,41.156 46,38.897145 46,36.09483 l 0,-17.757979 c 0,-2.802315 -2.615065,-5.06117 -5.880319,-5.06117 l -32.2393619,0 z m 11.5558509,6.055851 7.050532,0 4.037234,4.154255 -0.02925,10.648936 c 0,0.472584 -0.359779,0.848405 -0.819149,0.848405 l -10.239362,0 c -0.459373,0 -0.819149,-0.375822 -0.819149,-0.848405 l 0,-13.954787 c 0,-0.472582 0.359777,-0.848404 0.819149,-0.848404 z" />
</defs>
<acyl-settings>
<linearGradient
     id="linearGradient4321">
    <stop
       style="stop-color:#161616;stop-opacity:1.0;"
       offset="0.0"
       id="stop1" />
  </linearGradient>
<radialGradient
       inkscape:collect="always"
       xlink:href="#linearGradient4321"
       id="acyl_gradient"
       cx="50.0%"
       cy="50.0%"
       fx="50.0%"
       fy="50.0%"
       r="50.0%"
/>
<filter id="filter1111" x="-50%" y="-50%" width="200%" height="200%">
	<feImage
	id="feImage2"
	xlink:href="#1"
	result="result1" />
	<feComposite
	id="feComposite3633"
	in="result1"
	in2="SourceGraphic"
	operator="xor" />
</filter>
	<rect
	style="fill:#0088CC;fill-opacity:1.0;filter:url(#filter1111)"
	id="rect2835"
	width="48"
	height="48"
	x="0"
	y="0"
	rx="3.5"
	ry="3.5" />
	<rect
	style="fill:url(#acyl_gradient);filter:url(#filter1111)"
	id="rect2835"
	width="44"
	height="44"
	x="2"
	y="2"
	rx="3.5"
	ry="3.5" />
<defs>
<use id="1" transform="translate(22.5,22.5) scale(0.85) translate(-22.5,-22.5)" style="fill:#000000" xlink:href="#path-main" />
</defs>
	<use id="2" transform="translate(22.5,22.5) scale(0.85) translate(-22.5,-22.5)" style="fill:#0088CC;fill-opacity:1.0" xlink:href="#path-main" />
</acyl-settings>
</svg>
