<svg xmlns="http://www.w3.org/2000/svg" width="48" height="48">
<defs>
  <path
     d="M 3.84375 7.125 C 2.823171 7.125 2 7.948173 2 8.96875 L 2 39.03125 C 2 40.05183 2.823171 40.875 3.84375 40.875 L 44.15625 40.875 C 45.176828 40.875 46 40.05183 46 39.03125 L 46 10.78125 C 46 9.7606715 45.176828 8.9375 44.15625 8.9375 L 15.6875 8.9375 L 14.0625 7.125 L 3.84375 7.125 z M 18.78125 14.4375 C 24.172488 14.4375 28.593749 18.827512 28.59375 24.21875 C 28.59375 25.167145 28.441339 26.100186 28.1875 26.96875 C 28.19872 26.97415 28.20761 26.96315 28.21875 26.96875 L 37.96875 31.6875 C 38.890362 32.133141 39.258139 33.203385 38.8125 34.125 C 38.366861 35.046612 37.234112 35.44564 36.3125 35 L 26.59375 30.3125 C 26.55516 30.29463 26.5369 30.27024 26.5 30.25 C 24.704502 32.542349 21.905548 34 18.78125 34 C 13.390014 34 9 29.609986 9 24.21875 C 9 18.827512 13.390014 14.4375 18.78125 14.4375 z M 18.78125 17.5 C 15.057725 17.5 12.09375 20.495223 12.09375 24.21875 C 12.09375 27.942276 15.057724 30.937498 18.78125 30.9375 C 22.504777 30.9375 25.53125 27.942276 25.53125 24.21875 C 25.53125 20.495223 22.504777 17.500001 18.78125 17.5 z "
     id="path-main" />
</defs>
<acyl-settings>
<linearGradient
     id="linearGradient4321">
    <stop
       style="stop-color:#161616;stop-opacity:1.0;"
       offset="0.0"
       id="stop1" />
  </linearGradient>
<radialGradient
       inkscape:collect="always"
       xlink:href="#linearGradient4321"
       id="acyl_gradient"
       cx="50.0%"
       cy="50.0%"
       fx="50.0%"
       fy="50.0%"
       r="50.0%"
/>
<filter id="filter1111" x="-50%" y="-50%" width="200%" height="200%">
	<feImage
	id="feImage2"
	xlink:href="#1"
	result="result1" />
	<feComposite
	id="feComposite3633"
	in="result1"
	in2="SourceGraphic"
	operator="xor" />
</filter>
	<rect
	style="fill:#0088CC;fill-opacity:1.0;filter:url(#filter1111)"
	id="rect2835"
	width="48"
	height="48"
	x="0"
	y="0"
	rx="3.5"
	ry="3.5" />
	<rect
	style="fill:url(#acyl_gradient);filter:url(#filter1111)"
	id="rect2835"
	width="44"
	height="44"
	x="2"
	y="2"
	rx="3.5"
	ry="3.5" />
<defs>
<use id="1" transform="translate(22.5,22.5) scale(0.85) translate(-22.5,-22.5)" style="fill:#000000" xlink:href="#path-main" />
</defs>
	<use id="2" transform="translate(22.5,22.5) scale(0.85) translate(-22.5,-22.5)" style="fill:#0088CC;fill-opacity:1.0" xlink:href="#path-main" />
</acyl-settings>
</svg>
