<svg xmlns="http://www.w3.org/2000/svg" width="48" height="48">
<defs>
<defs
     id="defs2385" />
  <g
     id="layer1">
    <path
       d="M 4.78125,6 C 4.3452053,6 4,6.3388679 4,6.75 L 4,34.0625 C 4,34.473647 4.3452051,34.8125 4.78125,34.8125 L 21.15625,34.8125 L 21.15625,39.125 L 17.21875,39.125 C 17.017195,39.125 16.84375,39.296838 16.84375,39.5 L 16.84375,41.625 C 16.84375,41.828109 17.017195,42 17.21875,42 L 30.78125,42 C 30.982806,42 31.15625,41.828108 31.15625,41.625 L 31.15625,39.5 C 31.15625,39.296837 30.982806,39.124999 30.78125,39.125 L 26.84375,39.125 L 26.84375,34.8125 L 43.21875,34.8125 C 43.654789,34.8125 44,34.473645 44,34.0625 L 44,6.75 C 44,6.3388678 43.654791,6 43.21875,6 L 4.78125,6 z"
       id="path-main"
        />
  </g>
</defs>
<acyl-settings>
<linearGradient
     id="linearGradient4321">
    <stop
       style="stop-color:#161616;stop-opacity:1.0;"
       offset="0.0"
       id="stop1" />
  </linearGradient>
<radialGradient
       inkscape:collect="always"
       xlink:href="#linearGradient4321"
       id="acyl_gradient"
       cx="50.0%"
       cy="50.0%"
       fx="50.0%"
       fy="50.0%"
       r="50.0%"
/>
<filter id="filter1111" x="-50%" y="-50%" width="200%" height="200%">
	<feImage
	id="feImage2"
	xlink:href="#1"
	result="result1" />
	<feComposite
	id="feComposite3633"
	in="result1"
	in2="SourceGraphic"
	operator="xor" />
</filter>
	<rect
	style="fill:#0088CC;fill-opacity:1.0;filter:url(#filter1111)"
	id="rect2835"
	width="48"
	height="48"
	x="0"
	y="0"
	rx="3.5"
	ry="3.5" />
	<rect
	style="fill:url(#acyl_gradient);filter:url(#filter1111)"
	id="rect2835"
	width="44"
	height="44"
	x="2"
	y="2"
	rx="3.5"
	ry="3.5" />
<defs>
<use id="1" transform="translate(22.5,22.5) scale(0.85) translate(-22.5,-22.5)" style="fill:#000000" xlink:href="#path-main" />
</defs>
	<use id="2" transform="translate(22.5,22.5) scale(0.85) translate(-22.5,-22.5)" style="fill:#0088CC;fill-opacity:1.0" xlink:href="#path-main" />
</acyl-settings>
</svg>
