<svg xmlns="http://www.w3.org/2000/svg" width="48" height="48">
<defs>
<defs
     id="defs2385" />
  <g
     id="layer1">
    <path
       d="M 3.5625,11 C 3.2572681,11 3,11.214494 3,11.5 L 3,30.5 C 3,30.785506 3.2572681,31 3.5625,31 L 15,31 L 15,34 L 12.25,34 C 12.108918,34 12,34.108916 12,34.25 L 12,35.75 C 12,35.891082 12.108918,36 12.25,36 L 21.75,36 C 21.891082,36 22,35.891084 22,35.75 L 22,34.25 C 22,34.108918 21.891082,34 21.75,34 L 19,34 L 19,31 L 30.4375,31 C 30.742732,31 31,30.785506 31,30.5 L 31,11.5 C 31,11.214494 30.742733,11 30.4375,11 L 3.5625,11 z M 36,11 C 35.437566,11 35,11.470289 35,12.0625 L 35,34.9375 C 35,35.529712 35.437566,36 36,36 L 44,36 C 44.562434,36 45,35.529711 45,34.9375 L 45,12.0625 C 45,11.470288 44.562434,11 44,11 L 36,11 z"
       id="path-main"
        />
  </g>
</defs>
<acyl-settings>
<linearGradient
     id="linearGradient4321">
    <stop
       style="stop-color:#161616;stop-opacity:1.0;"
       offset="0.0"
       id="stop1" />
  </linearGradient>
<radialGradient
       inkscape:collect="always"
       xlink:href="#linearGradient4321"
       id="acyl_gradient"
       cx="50.0%"
       cy="50.0%"
       fx="50.0%"
       fy="50.0%"
       r="50.0%"
/>
<filter id="filter1111" x="-50%" y="-50%" width="200%" height="200%">
	<feImage
	id="feImage2"
	xlink:href="#1"
	result="result1" />
	<feComposite
	id="feComposite3633"
	in="result1"
	in2="SourceGraphic"
	operator="xor" />
</filter>
	<rect
	style="fill:#0088CC;fill-opacity:1.0;filter:url(#filter1111)"
	id="rect2835"
	width="48"
	height="48"
	x="0"
	y="0"
	rx="3.5"
	ry="3.5" />
	<rect
	style="fill:url(#acyl_gradient);filter:url(#filter1111)"
	id="rect2835"
	width="44"
	height="44"
	x="2"
	y="2"
	rx="3.5"
	ry="3.5" />
<defs>
<use id="1" transform="translate(22.5,22.5) scale(0.85) translate(-22.5,-22.5)" style="fill:#000000" xlink:href="#path-main" />
</defs>
	<use id="2" transform="translate(22.5,22.5) scale(0.85) translate(-22.5,-22.5)" style="fill:#0088CC;fill-opacity:1.0" xlink:href="#path-main" />
</acyl-settings>
</svg>
