<svg xmlns="http://www.w3.org/2000/svg" width="48" height="48">
<defs>
<defs
   id="defs30"></defs>	
<path
   d="m 33.722641,2.000001 c -0.592752,0 -1.180274,0.22131 -1.632412,0.6608283 L 7.6326911,26.62304 C 7.3918616,26.878131 7.216537,27.181315 7.1171926,27.513722 L 2.105402,43.086285 c -0.2044516,0.632194 -0.1077482,1.308059 0.2577492,1.867559 0.3654974,0.559503 0.956534,0.944876 1.6324118,1.03434 0.3915011,0.04 0.7833627,-0.02256 1.1455522,-0.17239 l 14.2048468,-5.34409 c 0.28071,-0.117894 0.53221,-0.30342 0.744609,-0.51717 L 45.321357,15.503885 c 0.904857,-0.878472 0.904858,-2.310742 0,-3.189215 L 35.383692,2.6608293 C 34.931554,2.221311 34.315394,2.000001 33.722641,2.000001 z M 9.0932701,28.548062 14.076422,29.093964 18.486798,33.374982 19.030935,37.656 9.837879,41.592239 6.1721121,37.82839 9.0932701,28.548062 z"
   id="path-main"
    /></defs>
<acyl-settings>
<linearGradient
     id="linearGradient4321">
    <stop
       style="stop-color:#161616;stop-opacity:1.0;"
       offset="0.0"
       id="stop1" />
  </linearGradient>
<radialGradient
       inkscape:collect="always"
       xlink:href="#linearGradient4321"
       id="acyl_gradient"
       cx="50.0%"
       cy="50.0%"
       fx="50.0%"
       fy="50.0%"
       r="50.0%"
/>
<filter id="filter1111" x="-50%" y="-50%" width="200%" height="200%">
	<feImage
	id="feImage2"
	xlink:href="#1"
	result="result1" />
	<feComposite
	id="feComposite3633"
	in="result1"
	in2="SourceGraphic"
	operator="xor" />
</filter>
	<rect
	style="fill:#0088CC;fill-opacity:1.0;filter:url(#filter1111)"
	id="rect2835"
	width="48"
	height="48"
	x="0"
	y="0"
	rx="3.5"
	ry="3.5" />
	<rect
	style="fill:url(#acyl_gradient);filter:url(#filter1111)"
	id="rect2835"
	width="44"
	height="44"
	x="2"
	y="2"
	rx="3.5"
	ry="3.5" />
<defs>
<use id="1" transform="translate(22.5,22.5) scale(0.85) translate(-22.5,-22.5)" style="fill:#000000" xlink:href="#path-main" />
</defs>
	<use id="2" transform="translate(22.5,22.5) scale(0.85) translate(-22.5,-22.5)" style="fill:#0088CC;fill-opacity:1.0" xlink:href="#path-main" />
</acyl-settings>
</svg>
