<svg xmlns="http://www.w3.org/2000/svg" width="48" height="48">
<defs>
<defs
     id="defs2564">
  </defs>
  <path
     id="path-main"
     d="M 11.026118,2 C 10.429455,2.2000188 10.00422,2.7943701 10.00422,3.5182482 l 0,40.8759128 c 0,0.890923 0.645095,1.60584 1.459854,1.605839 l 25.138686,0 c 0.814758,0 1.518248,-0.714913 1.518248,-1.605839 l 0,-40.8759128 C 38.121008,2.7943702 37.652129,2.2000188 37.040716,2 L 11.026118,2 z m 4.291971,1.5182482 c 0.893,1e-7 1.635036,0.8045413 1.635036,1.7810219 0,0.9764817 -0.742036,1.7810219 -1.635036,1.7810219 -0.892999,0 -1.635037,-0.8045404 -1.635037,-1.7810219 0,-0.9764794 0.742038,-1.7810219 1.635037,-1.7810219 z m 4.379562,0.8175182 9.69343,0 0,1.1386862 -9.69343,0 0,-1.1386862 z m -5.518249,3.8832117 20.759125,0 0,16.7007299 -20.759125,0 0,-16.7007299 z m 0.08759,18.7153279 5.89781,0 0,3.386862 -5.89781,0 0,-3.386862 z m 7.357664,0 5.839416,0 0,3.386862 -5.839416,0 0,-3.386862 z m 7.29927,0 5.89781,0 0,3.386862 -5.89781,0 0,-3.386862 z m -14.656934,4.20438 5.89781,0 0,3.416058 -5.89781,0 0,-3.416058 z m 7.357664,0 5.839416,0 0,3.416058 -5.839416,0 0,-3.416058 z m 7.29927,0 5.89781,0 0,3.416058 -5.89781,0 0,-3.416058 z m -14.656934,4.262774 5.89781,0 0,3.386861 -5.89781,0 0,-3.386861 z m 7.357664,0 5.839416,0 0,3.386861 -5.839416,0 0,-3.386861 z m 7.29927,0 5.89781,0 0,3.386861 -5.89781,0 0,-3.386861 z m -14.656934,4.233576 5.89781,0 0,3.386862 -5.89781,0 0,-3.386862 z m 7.357664,0 5.839416,0 0,3.386862 -5.839416,0 0,-3.386862 z m 7.29927,0 5.89781,0 0,3.386862 -5.89781,0 0,-3.386862 z" />
</defs>
<acyl-settings>
<linearGradient
     id="linearGradient4321">
    <stop
       style="stop-color:#161616;stop-opacity:1.0;"
       offset="0.0"
       id="stop1" />
  </linearGradient>
<radialGradient
       inkscape:collect="always"
       xlink:href="#linearGradient4321"
       id="acyl_gradient"
       cx="50.0%"
       cy="50.0%"
       fx="50.0%"
       fy="50.0%"
       r="50.0%"
/>
<filter id="filter1111" x="-50%" y="-50%" width="200%" height="200%">
	<feImage
	id="feImage2"
	xlink:href="#1"
	result="result1" />
	<feComposite
	id="feComposite3633"
	in="result1"
	in2="SourceGraphic"
	operator="xor" />
</filter>
	<rect
	style="fill:#0088CC;fill-opacity:1.0;filter:url(#filter1111)"
	id="rect2835"
	width="48"
	height="48"
	x="0"
	y="0"
	rx="3.5"
	ry="3.5" />
	<rect
	style="fill:url(#acyl_gradient);filter:url(#filter1111)"
	id="rect2835"
	width="44"
	height="44"
	x="2"
	y="2"
	rx="3.5"
	ry="3.5" />
<defs>
<use id="1" transform="translate(22.5,22.5) scale(0.85) translate(-22.5,-22.5)" style="fill:#000000" xlink:href="#path-main" />
</defs>
	<use id="2" transform="translate(22.5,22.5) scale(0.85) translate(-22.5,-22.5)" style="fill:#0088CC;fill-opacity:1.0" xlink:href="#path-main" />
</acyl-settings>
</svg>
